Montserrat-Black.ufo
<glyph name="exclam" format="1">
  <advance width="294"/>
  <unicode hex="0021"/>
  <outline>
    <contour>
      <point x="40" y="701" type="line"/>
      <point x="40" y="517" type="line"/>
      <point x="80" y="258" type="line"/>
      <point x="214" y="258" type="line"/>
      <point x="254" y="517" type="line"/>
      <point x="254" y="701" type="line"/>
    </contour>
    <component base="period" xOffset="10"/>
  </outline>
</glyph>
<glyph name="numbersign" format="1">
  <advance width="745"/>
  <unicode hex="0023"/>
  <outline>
    <contour>
      <point x="542" y="0" type="line"/>
      <point x="629" y="701" type="line"/>
      <point x="469" y="701" type="line"/>
      <point x="382" y="0" type="line"/>
    </contour>
    <contour>
      <point x="708" y="291" type="line"/>
      <point x="23" y="291" type="line"/>
      <point x="4" y="138" type="line"/>
      <point x="689" y="138" type="line"/>
    </contour>
    <contour>
      <point x="277" y="0" type="line"/>
      <point x="364" y="701" type="line"/>
      <point x="204" y="701" type="line"/>
      <point x="117" y="0" type="line"/>
    </contour>
    <contour>
      <point x="741" y="554" type="line"/>
      <point x="56" y="554" type="line"/>
      <point x="38" y="401" type="line"/>
      <point x="723" y="401" type="line"/>
    </contour>
  </outline>
</glyph>
<glyph name="dollar" format="1">
  <advance width="664"/>
  <unicode hex="0024"/>
  <outline>
    <contour>
      <point x="243" y="118" type="line"/>
      <point x="243" y="-165" type="line"/>
      <point x="409" y="-165" type="line"/>
      <point x="409" y="118" type="line"/>
    </contour>
    <contour>
      <point x="243" y="864" type="line"/>
      <point x="243" y="579" type="line"/>
      <point x="409" y="579" type="line"/>
      <point x="409" y="864" type="line"/>
    </contour>
    <component base="S"/>
  </outline>
</glyph>
<glyph name="asterisk" format="1">
  <advance width="406"/>
  <unicode hex="002A"/>
  <outline>
    <contour>
      <point x="386" y="496" type="line"/>
      <point x="307" y="539" type="line"/>
      <point x="386" y="580" type="line"/>
      <point x="331" y="675" type="line"/>
      <point x="256" y="630" type="line"/>
      <point x="258" y="718" type="line"/>
      <point x="148" y="718" type="line"/>
      <point x="150" y="630" type="line"/>
      <point x="75" y="677" type="line"/>
      <point x="20" y="580" type="line"/>
      <point x="98" y="539" type="line"/>
      <point x="20" y="496" type="line"/>
      <point x="75" y="402" type="line"/>
      <point x="151" y="448" type="line"/>
      <point x="148" y="359" type="line"/>
      <point x="258" y="359" type="line"/>
      <point x="255" y="447" type="line"/>
      <point x="331" y="400" type="line"/>
    </contour>
  </outline>
</glyph>
<glyph name="plus" format="1">
  <advance width="520"/>
  <unicode hex="002B"/>
  <outline>
    <contour>
      <point x="30" y="399" type="line"/>
      <point x="30" y="259" type="line"/>
      <point x="490" y="259" type="line"/>
      <point x="490" y="399" type="line"/>
    </contour>
    <contour>
      <point x="190" y="559" type="line"/>
      <point x="190" y="99" type="line"/>
      <point x="330" y="99" type="line"/>
      <point x="330" y="559" type="line"/>
    </contour>
  </outline>
</glyph>
<glyph name="comma" format="1">
  <advance width="265"/>
  <unicode hex="002C"/>
  <outline>
    <contour>
      <point x="18" y="-110" type="line"/>
      <point x="122" y="-110" type="line"/>
      <point x="209" y="16" type="line" smooth="yes"/>
      <point x="225" y="39"/>
      <point x="236" y="65"/>
      <point x="236" y="96" type="curve" smooth="yes"/>
      <point x="236" y="162"/>
      <point x="188" y="197"/>
      <point x="134" y="197" type="curve" smooth="yes"/>
      <point x="74" y="197"/>
      <point x="31" y="155"/>
      <point x="31" y="95" type="curve" smooth="yes"/>
      <point x="31" y="38"/>
      <point x="72" y="-10"/>
      <point x="166" y="-6" type="curve"/>
      <point x="102" y="96" type="line"/>
    </contour>
  </outline>
</glyph>
<glyph name="period" format="1">
  <advance width="265"/>
  <unicode hex="002E"/>
  <outline>
    <contour>
      <point x="72" y="197"/>
      <point x="30" y="155"/>
      <point x="30" y="95" type="curve" smooth="yes"/>
      <point x="30" y="34"/>
      <point x="72" y="-8"/>
      <point x="132" y="-8" type="curve" smooth="yes"/>
      <point x="193" y="-8"/>
      <point x="235" y="34"/>
      <point x="235" y="95" type="curve" smooth="yes"/>
      <point x="235" y="155"/>
      <point x="193" y="197"/>
      <point x="132" y="197" type="curve" smooth="yes"/>
    </contour>
  </outline>
</glyph>
<glyph name="slash" format="1">
  <advance width="373"/>
  <unicode hex="002F"/>
  <outline>
    <contour>
      <point x="279" y="806" type="line"/>
      <point x="-50" y="-104" type="line"/>
      <point x="138" y="-104" type="line"/>
      <point x="467" y="806" type="line"/>
    </contour>
  </outline>
</glyph>
<glyph name="zero" format="1">
  <advance width="713"/>
  <unicode hex="0030"/>
  <outline>
    <contour>
      <point x="149" y="708"/>
      <point x="35" y="581"/>
      <point x="35" y="351" type="curve" smooth="yes"/>
      <point x="35" y="121"/>
      <point x="149" y="-7"/>
      <point x="357" y="-7" type="curve" smooth="yes"/>
      <point x="563" y="-7"/>
      <point x="678" y="121"/>
      <point x="678" y="351" type="curve" smooth="yes"/>
      <point x="678" y="581"/>
      <point x="563" y="708"/>
      <point x="357" y="708" type="curve" smooth="yes"/>
    </contour>
    <contour>
      <point x="419" y="540"/>
      <point x="440" y="493"/>
      <point x="440" y="351" type="curve" smooth="yes"/>
      <point x="440" y="209"/>
      <point x="419" y="161"/>
      <point x="357" y="161" type="curve" smooth="yes"/>
      <point x="294" y="161"/>
      <point x="273" y="209"/>
      <point x="273" y="351" type="curve" smooth="yes"/>
      <point x="273" y="493"/>
      <point x="294" y="540"/>
      <point x="357" y="540" type="curve" smooth="yes"/>
    </contour>
  </outline>
</glyph>
<glyph name="one" format="1">
  <advance width="435"/>
  <unicode hex="0031"/>
  <outline>
    <contour>
      <point x="2" y="701" type="line"/>
      <point x="2" y="518" type="line"/>
      <point x="124" y="518" type="line"/>
      <point x="124" y="0" type="line"/>
      <point x="356" y="0" type="line"/>
      <point x="356" y="701" type="line"/>
    </contour>
  </outline>
</glyph>
<glyph name="two" format="1">
  <advance width="610"/>
  <unicode hex="0032"/>
  <outline>
    <contour>
      <point x="213" y="711"/>
      <point x="111" y="670"/>
      <point x="11" y="601" type="curve"/>
      <point x="97" y="434" type="line"/>
      <point x="165" y="489"/>
      <point x="234" y="524"/>
      <point x="287" y="524" type="curve" smooth="yes"/>
      <point x="317" y="524"/>
      <point x="333" y="511"/>
      <point x="333" y="487" type="curve" smooth="yes"/>
      <point x="333" y="463"/>
      <point x="310" y="428"/>
      <point x="282" y="398" type="curve" smooth="yes"/>
      <point x="39" y="145" type="line"/>
      <point x="39" y="0" type="line"/>
      <point x="586" y="0" type="line"/>
      <point x="586" y="178" type="line"/>
      <point x="334" y="178" type="line"/>
      <point x="440" y="284" type="line" smooth="yes"/>
      <point x="518" y="362"/>
      <point x="576" y="440"/>
      <point x="576" y="521" type="curve" smooth="yes"/>
      <point x="576" y="635"/>
      <point x="467" y="711"/>
      <point x="323" y="711" type="curve" smooth="yes"/>
    </contour>
  </outline>
</glyph>
<glyph name="three" format="1">
  <advance width="575"/>
  <unicode hex="0033"/>
  <outline>
    <contour>
      <point x="373" y="424" type="line"/>
      <point x="524" y="569" type="line"/>
      <point x="524" y="699" type="line"/>
      <point x="30" y="699" type="line"/>
      <point x="30" y="531" type="line"/>
      <point x="263" y="531" type="line" smooth="yes"/>
      <point x="130" y="404" type="line"/>
      <point x="130" y="283" type="line"/>
      <point x="257" y="283" type="line" smooth="yes"/>
      <point x="305" y="283"/>
      <point x="329" y="263"/>
      <point x="329" y="222" type="curve" smooth="yes"/>
      <point x="329" y="181"/>
      <point x="305" y="161"/>
      <point x="257" y="161" type="curve" smooth="yes"/>
      <point x="196" y="161"/>
      <point x="138" y="194"/>
      <point x="85" y="259" type="curve"/>
      <point x="-7" y="83" type="line"/>
      <point x="61" y="27"/>
      <point x="171" y="-10"/>
      <point x="276" y="-10" type="curve" smooth="yes"/>
      <point x="446" y="-10"/>
      <point x="556" y="86"/>
      <point x="556" y="223" type="curve" smooth="yes"/>
      <point x="556" y="328"/>
      <point x="491" y="396"/>
      <point x="403" y="417" type="curve" smooth="yes"/>
    </contour>
  </outline>
</glyph>
<glyph name="four" format="1">
  <advance width="664"/>
  <unicode hex="0034"/>
  <outline>
    <contour>
      <point x="230" y="701" type="line"/>
      <point x="25" y="287" type="line"/>
      <point x="25" y="135" type="line"/>
      <point x="355" y="135" type="line"/>
      <point x="355" y="0" type="line"/>
      <point x="570" y="0" type="line"/>
      <point x="570" y="135" type="line"/>
      <point x="659" y="135" type="line"/>
      <point x="659" y="301" type="line"/>
      <point x="570" y="301" type="line"/>
      <point x="570" y="435" type="line"/>
      <point x="355" y="435" type="line"/>
      <point x="355" y="301" type="line"/>
      <point x="260" y="301" type="line"/>
      <point x="451" y="701" type="line"/>
    </contour>
  </outline>
</glyph>
<glyph name="five" format="1">
  <advance width="611"/>
  <unicode hex="0035"/>
  <outline>
    <contour>
      <point x="67" y="701" type="line"/>
      <point x="67" y="280" type="line"/>
      <point x="107" y="280"/>
      <point x="233" y="280"/>
      <point x="264" y="280" type="curve" smooth="yes"/>
      <point x="314" y="280"/>
      <point x="339" y="261"/>
      <point x="339" y="223" type="curve" smooth="yes"/>
      <point x="339" y="182"/>
      <point x="314" y="161"/>
      <point x="264" y="161" type="curve" smooth="yes"/>
      <point x="202" y="161"/>
      <point x="145" y="194"/>
      <point x="95" y="259" type="curve"/>
      <point x="3" y="83" type="line"/>
      <point x="80" y="27"/>
      <point x="193" y="-10"/>
      <point x="292" y="-10" type="curve" smooth="yes"/>
      <point x="472" y="-10"/>
      <point x="589" y="88"/>
      <point x="589" y="239" type="curve" smooth="yes"/>
      <point x="589" y="367"/>
      <point x="479" y="449"/>
      <point x="310" y="449" type="curve" smooth="yes"/>
      <point x="306" y="449"/>
      <point x="283" y="449"/>
      <point x="279" y="449" type="curve"/>
      <point x="279" y="523" type="line"/>
      <point x="556" y="523" type="line"/>
      <point x="556" y="701" type="line"/>
    </contour>
  </outline>
</glyph>
<glyph name="six" format="1">
  <advance width="648"/>
  <unicode hex="0036"/>
  <outline>
    <contour>
      <point x="170" y="711"/>
      <point x="35" y="566"/>
      <point x="35" y="343" type="curve" smooth="yes"/>
      <point x="35" y="128"/>
      <point x="155" y="-10"/>
      <point x="353" y="-10" type="curve" smooth="yes"/>
      <point x="518" y="-10"/>
      <point x="628" y="86"/>
      <point x="628" y="237" type="curve" smooth="yes"/>
      <point x="628" y="374"/>
      <point x="538" y="468"/>
      <point x="401" y="468" type="curve" smooth="yes"/>
      <point x="333" y="468"/>
      <point x="286" y="445"/>
      <point x="256" y="416" type="curve"/>
      <point x="256" y="494"/>
      <point x="302" y="533"/>
      <point x="392" y="533" type="curve" smooth="yes"/>
      <point x="447" y="533"/>
      <point x="494" y="518"/>
      <point x="532" y="487" type="curve"/>
      <point x="620" y="649" type="line"/>
      <point x="559" y="687"/>
      <point x="464" y="711"/>
      <point x="378" y="711" type="curve" smooth="yes"/>
    </contour>
    <contour>
      <point x="391" y="300"/>
      <point x="413" y="279"/>
      <point x="413" y="238" type="curve" smooth="yes"/>
      <point x="413" y="195"/>
      <point x="390" y="174"/>
      <point x="345" y="174" type="curve" smooth="yes"/>
      <point x="299" y="174"/>
      <point x="276" y="195"/>
      <point x="276" y="237" type="curve" smooth="yes"/>
      <point x="276" y="279"/>
      <point x="300" y="300"/>
      <point x="346" y="300" type="curve" smooth="yes"/>
    </contour>
  </outline>
</glyph>
<glyph name="seven" format="1">
  <advance width="617"/>
  <unicode hex="0037"/>
  <outline>
    <contour>
      <point x="29" y="701" type="line"/>
      <point x="29" y="425" type="line"/>
      <point x="233" y="425" type="line"/>
      <point x="233" y="523" type="line"/>
      <point x="353" y="523" type="line"/>
      <point x="122" y="0" type="line"/>
      <point x="367" y="0" type="line"/>
      <point x="608" y="546" type="line"/>
      <point x="608" y="701" type="line"/>
    </contour>
  </outline>
</glyph>
<glyph name="eight" format="1">
  <advance width="656"/>
  <unicode hex="0038"/>
  <outline>
    <contour>
      <point x="167" y="711"/>
      <point x="63" y="637"/>
      <point x="63" y="522" type="curve" smooth="yes"/>
      <point x="63" y="469"/>
      <point x="97" y="411"/>
      <point x="149" y="375" type="curve"/>
      <point x="74" y="341"/>
      <point x="25" y="270"/>
      <point x="25" y="195" type="curve" smooth="yes"/>
      <point x="25" y="71"/>
      <point x="144" y="-10"/>
      <point x="328" y="-10" type="curve" smooth="yes"/>
      <point x="512" y="-10"/>
      <point x="631" y="72"/>
      <point x="631" y="199" type="curve" smooth="yes"/>
      <point x="631" y="272"/>
      <point x="587" y="341"/>
      <point x="519" y="375" type="curve"/>
      <point x="564" y="407"/>
      <point x="593" y="462"/>
      <point x="593" y="515" type="curve" smooth="yes"/>
      <point x="593" y="634"/>
      <point x="489" y="711"/>
      <point x="327" y="711" type="curve" smooth="yes"/>
    </contour>
    <contour>
      <point x="384" y="284"/>
      <point x="413" y="262"/>
      <point x="413" y="219" type="curve" smooth="yes"/>
      <point x="413" y="177"/>
      <point x="384" y="156"/>
      <point x="328" y="156" type="curve" smooth="yes"/>
      <point x="272" y="156"/>
      <point x="244" y="177"/>
      <point x="244" y="219" type="curve" smooth="yes"/>
      <point x="244" y="262"/>
      <point x="272" y="284"/>
      <point x="328" y="284" type="curve" smooth="yes"/>
    </contour>
    <contour>
      <point x="375" y="560"/>
      <point x="399" y="541"/>
      <point x="399" y="503" type="curve" smooth="yes"/>
      <point x="399" y="467"/>
      <point x="375" y="449"/>
      <point x="328" y="449" type="curve" smooth="yes"/>
      <point x="281" y="449"/>
      <point x="257" y="467"/>
      <point x="257" y="503" type="curve" smooth="yes"/>
      <point x="257" y="541"/>
      <point x="281" y="560"/>
      <point x="328" y="560" type="curve" smooth="yes"/>
    </contour>
  </outline>
</glyph>
<glyph name="less" format="1">
  <advance width="520"/>
  <unicode hex="003C"/>
  <outline>
    <contour>
      <point x="30" y="412" type="line"/>
      <point x="30" y="234" type="line"/>
      <point x="490" y="49" type="line"/>
      <point x="490" y="205" type="line"/>
      <point x="174" y="323" type="line"/>
      <point x="490" y="441" type="line"/>
      <point x="490" y="597" type="line"/>
    </contour>
  </outline>
</glyph>
<glyph name="equal" format="1">
  <advance width="520"/>
  <unicode hex="003D"/>
  <outline>
    <contour>
      <point x="30" y="509" type="line"/>
      <point x="30" y="369" type="line"/>
      <point x="490" y="369" type="line"/>
      <point x="490" y="509" type="line"/>
    </contour>
    <contour>
      <point x="30" y="289" type="line"/>
      <point x="30" y="149" type="line"/>
      <point x="490" y="149" type="line"/>
      <point x="490" y="289" type="line"/>
    </contour>
  </outline>
</glyph>
<glyph name="question" format="1">
  <advance width="498"/>
  <unicode hex="003F"/>
  <outline>
    <contour>
      <point x="173" y="455" type="line"/>
      <point x="173" y="509"/>
      <point x="190" y="534"/>
      <point x="227" y="534" type="curve" smooth="yes"/>
      <point x="257" y="534"/>
      <point x="271" y="521"/>
      <point x="271" y="492" type="curve" smooth="yes"/>
      <point x="271" y="415"/>
      <point x="161" y="399"/>
      <point x="161" y="250" type="curve"/>
      <point x="328" y="250" type="line"/>
      <point x="328" y="355"/>
      <point x="478" y="384"/>
      <point x="478" y="529" type="curve" smooth="yes"/>
      <point x="478" y="644"/>
      <point x="393" y="711"/>
      <point x="248" y="711" type="curve" smooth="yes"/>
      <point x="92" y="711"/>
      <point x="1" y="616"/>
      <point x="1" y="455" type="curve"/>
    </contour>
    <component base="period" xOffset="109"/>
  </outline>
</glyph>
<glyph name="A" format="1">
  <advance width="799"/>
  <unicode hex="0041"/>
  <outline>
    <contour>
      <point x="286" y="701" type="line"/>
      <point x="-10" y="0" type="line"/>
      <point x="228" y="0" type="line"/>
      <point x="398" y="470" type="line"/>
      <point x="562" y="0" type="line"/>
      <point x="809" y="0" type="line"/>
      <point x="524" y="701" type="line"/>
    </contour>
    <contour>
      <point x="190" y="265" type="line"/>
      <point x="190" y="99" type="line" smooth="yes"/>
      <point x="592" y="99" type="line"/>
      <point x="592" y="265" type="line"/>
    </contour>
    <contour>
      <point x="809" y="10" type="move" name="ogonek"/>
    </contour>
    <contour>
      <point x="400" y="701" type="move" name="top"/>
    </contour>
  </outline>
</glyph>
<glyph name="B" format="1">
  <advance width="724"/>
  <unicode hex="0042"/>
  <outline>
    <contour>
      <point x="50" y="701" type="line"/>
      <point x="50" y="0" type="line"/>
      <point x="422" y="0" type="line" smooth="yes"/>
      <point x="593" y="0"/>
      <point x="704" y="77"/>
      <point x="704" y="197" type="curve" smooth="yes"/>
      <point x="704" y="285"/>
      <point x="649" y="355"/>
      <point x="565" y="374" type="curve"/>
      <point x="637" y="396"/>
      <point x="683" y="455"/>
      <point x="683" y="524" type="curve" smooth="yes"/>
      <point x="683" y="631"/>
      <point x="574" y="701"/>
      <point x="405" y="701" type="curve" smooth="yes"/>
    </contour>
    <contour>
      <point x="435" y="277"/>
      <point x="463" y="257"/>
      <point x="463" y="226" type="curve" smooth="yes"/>
      <point x="463" y="192"/>
      <point x="435" y="170"/>
      <point x="392" y="170" type="curve" smooth="yes"/>
      <point x="281" y="170" type="line"/>
      <point x="281" y="277" type="line"/>
      <point x="392" y="277" type="line" smooth="yes"/>
    </contour>
    <contour>
      <point x="424" y="531"/>
      <point x="445" y="512"/>
      <point x="445" y="482" type="curve" smooth="yes"/>
      <point x="445" y="451"/>
      <point x="424" y="431"/>
      <point x="392" y="431" type="curve" smooth="yes"/>
      <point x="281" y="431" type="line"/>
      <point x="281" y="531" type="line"/>
      <point x="392" y="531" type="line" smooth="yes"/>
    </contour>
  </outline>
</glyph>
<glyph name="C" format="1">
  <advance width="688"/>
  <unicode hex="0043"/>
  <outline>
    <contour>
      <point x="175" y="708"/>
      <point x="15" y="558"/>
      <point x="15" y="352" type="curve" smooth="yes"/>
      <point x="15" y="143"/>
      <point x="171" y="-10"/>
      <point x="386" y="-10" type="curve" smooth="yes"/>
      <point x="494" y="-10"/>
      <point x="613" y="45"/>
      <point x="691" y="130" type="curve"/>
      <point x="557" y="273" type="line"/>
      <point x="511" y="224"/>
      <point x="448" y="193"/>
      <point x="398" y="193" type="curve" smooth="yes"/>
      <point x="314" y="193"/>
      <point x="253" y="261"/>
      <point x="253" y="355" type="curve" smooth="yes"/>
      <point x="253" y="448"/>
      <point x="314" y="515"/>
      <point x="398" y="515" type="curve" smooth="yes"/>
      <point x="452" y="515"/>
      <point x="515" y="478"/>
      <point x="557" y="421" type="curve"/>
      <point x="691" y="580" type="line"/>
      <point x="619" y="658"/>
      <point x="502" y="708"/>
      <point x="395" y="708" type="curve" smooth="yes"/>
    </contour>
    <contour>
      <point x="394" y="701" type="move" name="top"/>
    </contour>
    <contour>
      <point x="368" y="0" type="move" name="bottom"/>
    </contour>
  </outline>
</glyph>
<glyph name="D" format="1">
  <advance width="759"/>
  <unicode hex="0044"/>
  <outline>
    <contour>
      <point x="50" y="701" type="line"/>
      <point x="50" y="0" type="line"/>
      <point x="354" y="0" type="line" smooth="yes"/>
      <point x="591" y="0"/>
      <point x="744" y="138"/>
      <point x="744" y="351" type="curve" smooth="yes"/>
      <point x="744" y="564"/>
      <point x="594" y="701"/>
      <point x="363" y="701" type="curve" smooth="yes"/>
    </contour>
    <contour>
      <point x="448" y="521"/>
      <point x="507" y="453"/>
      <point x="507" y="349" type="curve" smooth="yes"/>
      <point x="507" y="246"/>
      <point x="453" y="180"/>
      <point x="369" y="180" type="curve" smooth="yes"/>
      <point x="282" y="180" type="line"/>
      <point x="282" y="521" type="line"/>
      <point x="358" y="521" type="line" smooth="yes"/>
    </contour>
    <contour>
      <point x="372" y="351" type="move" name="center"/>
    </contour>
    <contour>
      <point x="352" y="701" type="move" name="top"/>
    </contour>
  </outline>
</glyph>
<glyph name="E" format="1">
  <advance width="690"/>
  <unicode hex="0045"/>
  <outline>
    <contour>
      <point x="50" y="701" type="line"/>
      <point x="50" y="0" type="line"/>
      <point x="652" y="0" type="line"/>
      <point x="652" y="176" type="line"/>
      <point x="282" y="176" type="line"/>
      <point x="282" y="263" type="line"/>
      <point x="610" y="263" type="line"/>
      <point x="610" y="439" type="line"/>
      <point x="282" y="439" type="line"/>
      <point x="282" y="525" type="line"/>
      <point x="643" y="525" type="line"/>
      <point x="643" y="701" type="line"/>
    </contour>
    <contour>
      <point x="644" y="10" type="move" name="ogonek"/>
    </contour>
    <contour>
      <point x="351" y="0" type="move" name="bottom"/>
    </contour>
    <contour>
      <point x="348" y="701" type="move" name="top"/>
    </contour>
  </outline>
</glyph>
<glyph name="F" format="1">
  <advance width="631"/>
  <unicode hex="0046"/>
  <outline>
    <contour>
      <point x="50" y="701" type="line"/>
      <point x="50" y="0" type="line"/>
      <point x="282" y="0" type="line"/>
      <point x="282" y="228" type="line"/>
      <point x="593" y="228" type="line"/>
      <point x="593" y="404" type="line"/>
      <point x="282" y="404" type="line"/>
      <point x="282" y="525" type="line"/>
      <point x="614" y="525" type="line"/>
      <point x="614" y="701" type="line"/>
    </contour>
  </outline>
</glyph>
<glyph name="G" format="1">
  <advance width="738"/>
  <unicode hex="0047"/>
  <outline>
    <contour>
      <point x="181" y="708"/>
      <point x="15" y="557"/>
      <point x="15" y="350" type="curve" smooth="yes"/>
      <point x="15" y="142"/>
      <point x="175" y="-10"/>
      <point x="395" y="-10" type="curve" smooth="yes"/>
      <point x="495" y="-10"/>
      <point x="624" y="28"/>
      <point x="702" y="80" type="curve"/>
      <point x="571" y="243" type="line"/>
      <point x="520" y="208"/>
      <point x="452" y="183"/>
      <point x="411" y="183" type="curve" smooth="yes"/>
      <point x="320" y="183"/>
      <point x="253" y="253"/>
      <point x="253" y="350" type="curve" smooth="yes"/>
      <point x="253" y="445"/>
      <point x="319" y="515"/>
      <point x="409" y="515" type="curve" smooth="yes"/>
      <point x="467" y="515"/>
      <point x="535" y="486"/>
      <point x="582" y="441" type="curve"/>
      <point x="713" y="600" type="line"/>
      <point x="638" y="666"/>
      <point x="519" y="708"/>
      <point x="410" y="708" type="curve" smooth="yes"/>
    </contour>
    <contour>
      <point x="503" y="369" type="line"/>
      <point x="503" y="80" type="line"/>
      <point x="702" y="80" type="line"/>
      <point x="702" y="369" type="line"/>
    </contour>
    <contour>
      <point x="396" y="701" type="move" name="top"/>
    </contour>
    <contour>
      <point x="396" y="0" type="move" name="bottom"/>
    </contour>
  </outline>
</glyph>
<glyph name="H" format="1">
  <advance width="781"/>
  <unicode hex="0048"/>
  <outline>
    <contour>
      <point x="499" y="701" type="line"/>
      <point x="499" y="429" type="line"/>
      <point x="282" y="429" type="line"/>
      <point x="282" y="701" type="line"/>
      <point x="50" y="701" type="line"/>
      <point x="50" y="0" type="line"/>
      <point x="282" y="0" type="line"/>
      <point x="282" y="253" type="line"/>
      <point x="499" y="253" type="line"/>
      <point x="499" y="0" type="line"/>
      <point x="731" y="0" type="line"/>
      <point x="731" y="701" type="line"/>
    </contour>
    <contour>
      <point x="391" y="351" type="move" name="center"/>
    </contour>
    <contour>
      <point x="401" y="701" type="move" name="top"/>
    </contour>
  </outline>
</glyph>
<glyph name="I" format="1">
  <advance width="332"/>
  <unicode hex="0049"/>
  <outline>
    <contour>
      <point x="50" y="701" type="line"/>
      <point x="50" y="0" type="line"/>
      <point x="282" y="0" type="line"/>
      <point x="282" y="701" type="line"/>
    </contour>
    <contour>
      <point x="299" y="10" type="move" name="ogonek"/>
    </contour>
    <contour>
      <point x="166" y="701" type="move" name="top"/>
    </contour>
  </outline>
</glyph>
<glyph name="J" format="1">
  <advance width="569"/>
  <unicode hex="004A"/>
  <outline>
    <contour>
      <point x="58" y="701" type="line"/>
      <point x="58" y="518" type="line"/>
      <point x="296" y="518" type="line"/>
      <point x="296" y="242" type="line" smooth="yes"/>
      <point x="296" y="202"/>
      <point x="275" y="183"/>
      <point x="243" y="183" type="curve" smooth="yes"/>
      <point x="208" y="183"/>
      <point x="152" y="207"/>
      <point x="97" y="262" type="curve"/>
      <point x="-8" y="112" type="line"/>
      <point x="63" y="34"/>
      <point x="152" y="-10"/>
      <point x="265" y="-10" type="curve" smooth="yes"/>
      <point x="426" y="-10"/>
      <point x="529" y="80"/>
      <point x="529" y="237" type="curve" smooth="yes"/>
      <point x="529" y="701" type="line"/>
    </contour>
    <contour>
      <point x="291" y="701" type="move" name="top"/>
    </contour>
  </outline>
</glyph>
<glyph name="K" format="1">
  <advance width="773"/>
  <unicode hex="004B"/>
  <outline>
    <contour>
      <point x="491" y="701" type="line"/>
      <point x="282" y="458" type="line"/>
      <point x="282" y="701" type="line"/>
      <point x="50" y="701" type="line"/>
      <point x="50" y="0" type="line"/>
      <point x="282" y="0" type="line"/>
      <point x="282" y="165" type="line"/>
      <point x="758" y="701" type="line"/>
    </contour>
    <contour>
      <point x="337" y="262" type="line"/>
      <point x="496" y="0" type="line"/>
      <point x="773" y="0" type="line"/>
      <point x="492" y="444" type="line"/>
    </contour>
    <contour>
      <point x="373" y="701" type="move" name="top"/>
    </contour>
    <contour>
      <point x="373" y="0" type="move" name="bottom"/>
    </contour>
  </outline>
</glyph>
<glyph name="L" format="1">
  <advance width="584"/>
  <unicode hex="004C"/>
  <outline>
    <contour>
      <point x="50" y="701" type="line"/>
      <point x="50" y="0" type="line"/>
      <point x="574" y="0" type="line"/>
      <point x="574" y="193" type="line"/>
      <point x="282" y="193" type="line"/>
      <point x="282" y="701" type="line"/>
    </contour>
    <contour>
      <point x="159" y="701" type="move" name="top"/>
    </contour>
    <contour>
      <point x="292" y="0" type="move" name="bottom"/>
    </contour>
  </outline>
</glyph>
<glyph name="M" format="1">
  <advance width="896"/>
  <unicode hex="004D"/>
  <outline>
    <contour>
      <point x="601" y="701" type="line"/>
      <point x="448" y="335" type="line"/>
      <point x="295" y="701" type="line"/>
      <point x="50" y="701" type="line"/>
      <point x="50" y="0" type="line"/>
      <point x="252" y="0" type="line"/>
      <point x="252" y="384" type="line"/>
      <point x="372" y="68" type="line"/>
      <point x="524" y="68" type="line"/>
      <point x="644" y="384" type="line"/>
      <point x="644" y="0" type="line"/>
      <point x="846" y="0" type="line"/>
      <point x="846" y="701" type="line"/>
    </contour>
  </outline>
</glyph>
<glyph name="N" format="1">
  <advance width="781"/>
  <unicode hex="004E"/>
  <outline>
    <contour>
      <point x="521" y="701" type="line"/>
      <point x="521" y="341" type="line"/>
      <point x="244" y="701" type="line"/>
      <point x="50" y="701" type="line"/>
      <point x="50" y="0" type="line"/>
      <point x="261" y="0" type="line"/>
      <point x="261" y="358" type="line"/>
      <point x="537" y="0" type="line"/>
      <point x="731" y="0" type="line"/>
      <point x="731" y="701" type="line"/>
    </contour>
    <contour>
      <point x="391" y="701" type="move" name="top"/>
    </contour>
    <contour>
      <point x="391" y="0" type="move" name="bottom"/>
    </contour>
  </outline>
</glyph>
<glyph name="O" format="1">
  <advance width="800"/>
  <unicode hex="004F"/>
  <outline>
    <contour>
      <point x="177" y="708"/>
      <point x="15" y="559"/>
      <point x="15" y="351" type="curve" smooth="yes"/>
      <point x="15" y="142"/>
      <point x="177" y="-10"/>
      <point x="400" y="-10" type="curve" smooth="yes"/>
      <point x="623" y="-10"/>
      <point x="785" y="143"/>
      <point x="785" y="351" type="curve" smooth="yes"/>
      <point x="785" y="558"/>
      <point x="623" y="708"/>
      <point x="400" y="708" type="curve" smooth="yes"/>
    </contour>
    <contour>
      <point x="483" y="515"/>
      <point x="547" y="446"/>
      <point x="547" y="350" type="curve" smooth="yes"/>
      <point x="547" y="254"/>
      <point x="483" y="183"/>
      <point x="403" y="183" type="curve" smooth="yes"/>
      <point x="323" y="183"/>
      <point x="253" y="254"/>
      <point x="253" y="350" type="curve" smooth="yes"/>
      <point x="253" y="446"/>
      <point x="322" y="515"/>
      <point x="403" y="515" type="curve" smooth="yes"/>
    </contour>
    <contour>
      <point x="390" y="701" type="move" name="top"/>
    </contour>
  </outline>
</glyph>
<glyph name="P" format="1">
  <advance width="686"/>
  <unicode hex="0050"/>
  <outline>
    <contour>
      <point x="50" y="701" type="line"/>
      <point x="50" y="0" type="line"/>
      <point x="282" y="0" type="line"/>
      <point x="282" y="182" type="line"/>
      <point x="379" y="182" type="line" smooth="yes"/>
      <point x="561" y="182"/>
      <point x="666" y="280"/>
      <point x="666" y="450" type="curve" smooth="yes"/>
      <point x="666" y="610"/>
      <point x="561" y="701"/>
      <point x="379" y="701" type="curve" smooth="yes"/>
    </contour>
    <contour>
      <point x="417" y="525"/>
      <point x="446" y="495"/>
      <point x="446" y="443" type="curve" smooth="yes"/>
      <point x="446" y="389"/>
      <point x="417" y="358"/>
      <point x="367" y="358" type="curve" smooth="yes"/>
      <point x="282" y="358" type="line"/>
      <point x="282" y="525" type="line"/>
      <point x="367" y="525" type="line" smooth="yes"/>
    </contour>
  </outline>
</glyph>
<glyph name="Q" format="1">
  <advance width="797"/>
  <unicode hex="0051"/>
  <outline>
    <contour>
      <point x="370" y="-2" type="line"/>
      <point x="405" y="-108"/>
      <point x="493" y="-177"/>
      <point x="601" y="-177" type="curve" smooth="yes"/>
      <point x="674" y="-177"/>
      <point x="761" y="-146"/>
      <point x="815" y="-99" type="curve"/>
      <point x="738" y="38" type="line"/>
      <point x="698" y="9"/>
      <point x="654" y="-10"/>
      <point x="626" y="-10" type="curve" smooth="yes"/>
      <point x="592" y="-10"/>
      <point x="564" y="18"/>
      <point x="550" y="55" type="curve"/>
    </contour>
    <component base="O"/>
  </outline>
</glyph>
<glyph name="R" format="1">
  <advance width="725"/>
  <unicode hex="0052"/>
  <outline>
    <contour>
      <point x="50" y="701" type="line"/>
      <point x="50" y="0" type="line"/>
      <point x="282" y="0" type="line"/>
      <point x="282" y="182" type="line"/>
      <point x="389" y="182" type="line" smooth="yes"/>
      <point x="579" y="182"/>
      <point x="688" y="280"/>
      <point x="688" y="450" type="curve" smooth="yes"/>
      <point x="688" y="610"/>
      <point x="579" y="701"/>
      <point x="389" y="701" type="curve" smooth="yes"/>
    </contour>
    <contour>
      <point x="330" y="265" type="line"/>
      <point x="453" y="0" type="line"/>
      <point x="715" y="0" type="line"/>
      <point x="554" y="265" type="line"/>
    </contour>
    <contour>
      <point x="439" y="525"/>
      <point x="468" y="495"/>
      <point x="468" y="443" type="curve" smooth="yes"/>
      <point x="468" y="389"/>
      <point x="439" y="358"/>
      <point x="389" y="358" type="curve" smooth="yes"/>
      <point x="282" y="358" type="line"/>
      <point x="282" y="525" type="line"/>
      <point x="389" y="525" type="line" smooth="yes"/>
    </contour>
    <contour>
      <point x="372" y="701" type="move" name="top"/>
    </contour>
    <contour>
      <point x="359" y="0" type="move" name="bottom"/>
    </contour>
  </outline>
</glyph>
<glyph name="S" format="1">
  <advance width="664"/>
  <unicode hex="0053"/>
  <outline>
    <contour>
      <point x="172" y="711"/>
      <point x="54" y="623"/>
      <point x="54" y="483" type="curve" smooth="yes"/>
      <point x="54" y="237"/>
      <point x="417" y="297"/>
      <point x="417" y="206" type="curve" smooth="yes"/>
      <point x="417" y="181"/>
      <point x="395" y="170"/>
      <point x="361" y="170" type="curve" smooth="yes"/>
      <point x="290" y="170"/>
      <point x="166" y="219"/>
      <point x="94" y="279" type="curve"/>
      <point x="8" y="105" type="line"/>
      <point x="101" y="34"/>
      <point x="237" y="-7"/>
      <point x="359" y="-7" type="curve" smooth="yes"/>
      <point x="517" y="-7"/>
      <point x="654" y="62"/>
      <point x="654" y="218" type="curve" smooth="yes"/>
      <point x="654" y="472"/>
      <point x="291" y="417"/>
      <point x="291" y="505" type="curve" smooth="yes"/>
      <point x="291" y="526"/>
      <point x="308" y="534"/>
      <point x="334" y="534" type="curve" smooth="yes"/>
      <point x="395" y="534"/>
      <point x="504" y="491"/>
      <point x="575" y="452" type="curve"/>
      <point x="659" y="628" type="line"/>
      <point x="580" y="678"/>
      <point x="465" y="711"/>
      <point x="354" y="711" type="curve" smooth="yes"/>
    </contour>
    <contour>
      <point x="359" y="701" type="move" name="top"/>
    </contour>
    <contour>
      <point x="345" y="0" type="move" name="bottom"/>
    </contour>
  </outline>
</glyph>
<glyph name="T" format="1">
  <advance width="641"/>
  <unicode hex="0054"/>
  <outline>
    <contour>
      <point x="5" y="701" type="line"/>
      <point x="5" y="518" type="line"/>
      <point x="204" y="518" type="line"/>
      <point x="204" y="0" type="line"/>
      <point x="436" y="0" type="line"/>
      <point x="436" y="518" type="line"/>
      <point x="636" y="518" type="line"/>
      <point x="636" y="701" type="line"/>
    </contour>
    <contour>
      <point x="307" y="351" type="move" name="center"/>
    </contour>
    <contour>
      <point x="309" y="0" type="move" name="bottom"/>
    </contour>
    <contour>
      <point x="337" y="701" type="move" name="top"/>
    </contour>
  </outline>
</glyph>
<glyph name="U" format="1">
  <advance width="753"/>
  <unicode hex="0055"/>
  <outline>
    <contour>
      <point x="481" y="701" type="line"/>
      <point x="481" y="297" type="line" smooth="yes"/>
      <point x="481" y="227"/>
      <point x="437" y="183"/>
      <point x="380" y="183" type="curve" smooth="yes"/>
      <point x="322" y="183"/>
      <point x="272" y="228"/>
      <point x="272" y="297" type="curve" smooth="yes"/>
      <point x="272" y="701" type="line"/>
      <point x="40" y="701" type="line"/>
      <point x="40" y="297" type="line" smooth="yes"/>
      <point x="40" y="111"/>
      <point x="175" y="-10"/>
      <point x="379" y="-10" type="curve" smooth="yes"/>
      <point x="582" y="-10"/>
      <point x="713" y="111"/>
      <point x="713" y="297" type="curve" smooth="yes"/>
      <point x="713" y="701" type="line"/>
    </contour>
    <contour>
      <point x="582" y="10" type="move" name="ogonek"/>
    </contour>
    <contour>
      <point x="377" y="701" type="move" name="top"/>
    </contour>
  </outline>
</glyph>
<glyph name="V" format="1">
  <advance width="764"/>
  <unicode hex="0056"/>
  <outline>
    <contour>
      <point x="532" y="701" type="line"/>
      <point x="388" y="241" type="line"/>
      <point x="243" y="701" type="line"/>
      <point x="-5" y="701" type="line"/>
      <point x="261" y="0" type="line"/>
      <point x="501" y="0" type="line"/>
      <point x="769" y="701" type="line"/>
    </contour>
  </outline>
</glyph>
<glyph name="W" format="1">
  <advance width="1121"/>
  <unicode hex="0057"/>
  <outline>
    <contour>
      <point x="889" y="701" type="line"/>
      <point x="785" y="241" type="line"/>
      <point x="679" y="701" type="line"/>
      <point x="453" y="700" type="line"/>
      <point x="349" y="241" type="line"/>
      <point x="243" y="701" type="line"/>
      <point x="-5" y="701" type="line"/>
      <point x="222" y="0" type="line"/>
      <point x="461" y="0" type="line"/>
      <point x="561" y="419" type="line"/>
      <point x="658" y="0" type="line"/>
      <point x="897" y="0" type="line"/>
      <point x="1126" y="701" type="line"/>
    </contour>
    <contour>
      <point x="506" y="701" type="move" name="top"/>
    </contour>
  </outline>
</glyph>
<glyph name="X" format="1">
  <advance width="773"/>
  <unicode hex="0058"/>
  <outline>
    <contour>
      <point x="484" y="701" type="line"/>
      <point x="382" y="536" type="line"/>
      <point x="280" y="701" type="line"/>
      <point x="10" y="701" type="line"/>
      <point x="241" y="356" type="line"/>
      <point x="-5" y="0" type="line"/>
      <point x="266" y="0" type="line"/>
      <point x="382" y="181" type="line"/>
      <point x="500" y="0" type="line"/>
      <point x="778" y="0" type="line"/>
      <point x="530" y="367" type="line"/>
      <point x="757" y="701" type="line"/>
    </contour>
  </outline>
</glyph>
<glyph name="Y" format="1">
  <advance width="719"/>
  <unicode hex="0059"/>
  <outline>
    <contour>
      <point x="498" y="701" type="line"/>
      <point x="362" y="431" type="line"/>
      <point x="221" y="701" type="line"/>
      <point x="-10" y="701" type="line"/>
      <point x="347" y="20" type="line"/>
      <point x="375" y="20" type="line"/>
      <point x="729" y="701" type="line"/>
    </contour>
    <contour>
      <point x="246" y="317" type="line"/>
      <point x="246" y="0" type="line"/>
      <point x="478" y="0" type="line"/>
      <point x="478" y="317" type="line"/>
    </contour>
    <contour>
      <point x="360" y="701" type="move" name="top"/>
    </contour>
  </outline>
</glyph>
<glyph name="Z" format="1">
  <advance width="683"/>
  <unicode hex="005A"/>
  <outline>
    <contour>
      <point x="32" y="701" type="line"/>
      <point x="32" y="523" type="line"/>
      <point x="347" y="523" type="line"/>
      <point x="20" y="145" type="line"/>
      <point x="20" y="0" type="line"/>
      <point x="663" y="0" type="line"/>
      <point x="663" y="178" type="line"/>
      <point x="329" y="178" type="line"/>
      <point x="656" y="556" type="line"/>
      <point x="656" y="701" type="line"/>
    </contour>
    <contour>
      <point x="362" y="701" type="move" name="top"/>
    </contour>
  </outline>
</glyph>
<glyph name="grave" format="1">
  <advance width="350"/>
  <unicode hex="0060"/>
  <outline>
    <contour>
      <point x="27" y="720" type="line"/>
      <point x="164" y="591" type="line"/>
      <point x="324" y="591" type="line"/>
      <point x="217" y="780" type="line"/>
    </contour>
    <contour>
      <point x="212" y="547" type="move" name="_top"/>
    </contour>
  </outline>
</glyph>
<glyph name="a" format="1">
  <advance width="613"/>
  <unicode hex="0061"/>
  <outline>
    <contour>
      <point x="240" y="557"/>
      <point x="144" y="538"/>
      <point x="51" y="504" type="curve"/>
      <point x="101" y="354" type="line"/>
      <point x="163" y="377"/>
      <point x="226" y="389"/>
      <point x="267" y="389" type="curve" smooth="yes"/>
      <point x="323" y="389"/>
      <point x="352" y="366"/>
      <point x="352" y="327" type="curve"/>
      <point x="352" y="0" type="line"/>
      <point x="573" y="0" type="line"/>
      <point x="573" y="354" type="line" smooth="yes"/>
      <point x="573" y="483"/>
      <point x="479" y="557"/>
      <point x="321" y="557" type="curve" smooth="yes"/>
    </contour>
    <contour>
      <point x="227" y="329" type="line" smooth="yes"/>
      <point x="88" y="327"/>
      <point x="15" y="270"/>
      <point x="15" y="162" type="curve" smooth="yes"/>
      <point x="15" y="58"/>
      <point x="82" y="-10"/>
      <point x="198" y="-10" type="curve" smooth="yes"/>
      <point x="291" y="-10"/>
      <point x="352" y="34"/>
      <point x="378" y="109" type="curve"/>
      <point x="352" y="175" type="line"/>
      <point x="334" y="148"/>
      <point x="305" y="133"/>
      <point x="276" y="133" type="curve" smooth="yes"/>
      <point x="244" y="133"/>
      <point x="226" y="151"/>
      <point x="226" y="181" type="curve" smooth="yes"/>
      <point x="226" y="210"/>
      <point x="243" y="225"/>
      <point x="274" y="225" type="curve" smooth="yes"/>
      <point x="371" y="225" type="line"/>
      <point x="371" y="329" type="line"/>
    </contour>
    <contour>
      <point x="594" y="10" type="move" name="ogonek"/>
    </contour>
    <contour>
      <point x="308" y="547" type="move" name="top"/>
    </contour>
  </outline>
</glyph>
<glyph name="c" format="1">
  <advance width="561"/>
  <unicode hex="0063"/>
  <outline>
    <contour>
      <point x="129" y="555"/>
      <point x="15" y="443"/>
      <point x="15" y="271" type="curve" smooth="yes"/>
      <point x="15" y="102"/>
      <point x="128" y="-8"/>
      <point x="302" y="-8" type="curve" smooth="yes"/>
      <point x="427" y="-8"/>
      <point x="523" y="48"/>
      <point x="563" y="145" type="curve"/>
      <point x="381" y="229" type="line"/>
      <point x="369" y="188"/>
      <point x="346" y="170"/>
      <point x="314" y="170" type="curve" smooth="yes"/>
      <point x="270" y="170"/>
      <point x="242" y="210"/>
      <point x="242" y="272" type="curve" smooth="yes"/>
      <point x="242" y="333"/>
      <point x="270" y="373"/>
      <point x="314" y="373" type="curve" smooth="yes"/>
      <point x="346" y="373"/>
      <point x="370" y="354"/>
      <point x="384" y="321" type="curve"/>
      <point x="563" y="397" type="line"/>
      <point x="518" y="497"/>
      <point x="423" y="555"/>
      <point x="304" y="555" type="curve" smooth="yes"/>
    </contour>
    <contour>
      <point x="298" y="547" type="move" name="top"/>
    </contour>
    <contour>
      <point x="290" y="0" type="move" name="bottom"/>
    </contour>
  </outline>
</glyph>
<glyph name="f" format="1">
  <advance width="426"/>
  <unicode hex="0066"/>
  <outline>
    <contour>
      <point x="184" y="753"/>
      <point x="95" y="680"/>
      <point x="95" y="566" type="curve" smooth="yes"/>
      <point x="95" y="0" type="line"/>
      <point x="319" y="0" type="line"/>
      <point x="319" y="532" type="line"/>
      <point x="319" y="561"/>
      <point x="339" y="579"/>
      <point x="371" y="578" type="curve"/>
      <point x="387" y="578"/>
      <point x="409" y="571"/>
      <point x="426" y="559" type="curve"/>
      <point x="501" y="713" type="line"/>
      <point x="455" y="737"/>
      <point x="384" y="752"/>
      <point x="322" y="752" type="curve"/>
    </contour>
    <contour>
      <point x="20" y="517" type="line"/>
      <point x="20" y="375" type="line"/>
      <point x="425" y="375" type="line"/>
      <point x="425" y="517" type="line"/>
    </contour>
  </outline>
</glyph>
<glyph name="h" format="1">
  <advance width="687"/>
  <unicode hex="0068"/>
  <outline>
    <contour>
      <point x="60" y="742" type="line"/>
      <point x="60" y="0" type="line"/>
      <point x="285" y="0" type="line"/>
      <point x="285" y="742" type="line"/>
    </contour>
    <contour>
      <point x="316" y="557"/>
      <point x="235" y="445"/>
      <point x="235" y="271" type="curve"/>
      <point x="285" y="271" type="line"/>
      <point x="285" y="324"/>
      <point x="313" y="359"/>
      <point x="357" y="359" type="curve" smooth="yes"/>
      <point x="396" y="359"/>
      <point x="422" y="330"/>
      <point x="422" y="284" type="curve" smooth="yes"/>
      <point x="422" y="0" type="line"/>
      <point x="647" y="0" type="line"/>
      <point x="647" y="349" type="line" smooth="yes"/>
      <point x="647" y="475"/>
      <point x="566" y="557"/>
      <point x="451" y="557" type="curve" smooth="yes"/>
    </contour>
    <contour>
      <point x="339" y="274" type="move" name="center"/>
    </contour>
    <contour>
      <point x="339" y="547" type="move" name="top"/>
    </contour>
    <contour>
      <point x="315" y="547" type="move" name="topright"/>
    </contour>
    <contour>
      <point x="680" y="0" type="move" name="bottom"/>
    </contour>
  </outline>
</glyph>
<glyph name="j" format="1">
  <advance width="348"/>
  <unicode hex="006A"/>
  <outline>
    <contour>
      <point x="60" y="547" type="line"/>
      <point x="60" y="17" type="line"/>
      <point x="60" y="-14"/>
      <point x="44" y="-30"/>
      <point x="16" y="-29" type="curve"/>
      <point x="-2" y="-29"/>
      <point x="-20" y="-24"/>
      <point x="-39" y="-15" type="curve"/>
      <point x="-89" y="-169" type="line"/>
      <point x="-46" y="-191"/>
      <point x="8" y="-203"/>
      <point x="68" y="-203" type="curve"/>
      <point x="200" y="-204"/>
      <point x="285" y="-132"/>
      <point x="285" y="-17" type="curve"/>
      <point x="285" y="547" type="line"/>
    </contour>
    <contour>
      <point x="100" y="817"/>
      <point x="49" y="770"/>
      <point x="49" y="703" type="curve" smooth="yes"/>
      <point x="49" y="636"/>
      <point x="100" y="589"/>
      <point x="172" y="589" type="curve" smooth="yes"/>
      <point x="245" y="589"/>
      <point x="295" y="636"/>
      <point x="295" y="703" type="curve" smooth="yes"/>
      <point x="295" y="770"/>
      <point x="245" y="817"/>
      <point x="172" y="817" type="curve" smooth="yes"/>
    </contour>
  </outline>
</glyph>
<glyph name="k" format="1">
  <advance width="662"/>
  <unicode hex="006B"/>
  <outline>
    <contour>
      <point x="230" y="111" type="move"/>
    </contour>
    <contour>
      <point x="60" y="742" type="line"/>
      <point x="60" y="0" type="line"/>
      <point x="285" y="0" type="line"/>
      <point x="285" y="742" type="line"/>
    </contour>
    <contour>
      <point x="412" y="547" type="line"/>
      <point x="275" y="394" type="line"/>
      <point x="275" y="133" type="line"/>
      <point x="666" y="547" type="line"/>
    </contour>
    <contour>
      <point x="287" y="224" type="line"/>
      <point x="396" y="0" type="line"/>
      <point x="663" y="0" type="line"/>
      <point x="453" y="360" type="line"/>
    </contour>
    <contour>
      <point x="173" y="742" type="move" name="top"/>
    </contour>
    <contour>
      <point x="143" y="0" type="move" name="bottom"/>
    </contour>
    <contour>
      <point x="315" y="547" type="move" name="topright"/>
    </contour>
  </outline>
</glyph>
<glyph name="l" format="1">
  <advance width="345"/>
  <unicode hex="006C"/>
  <outline>
    <contour>
      <point x="60" y="742" type="line"/>
      <point x="60" y="0" type="line"/>
      <point x="285" y="0" type="line"/>
      <point x="285" y="742" type="line"/>
    </contour>
    <contour>
      <point x="173" y="742" type="move" name="top"/>
    </contour>
    <contour>
      <point x="173" y="0" type="move" name="bottom"/>
    </contour>
    <contour>
      <point x="315" y="547" type="move" name="topright"/>
    </contour>
  </outline>
</glyph>
<glyph name="o" format="1">
  <advance width="648"/>
  <unicode hex="006F"/>
  <outline>
    <contour>
      <point x="136" y="555"/>
      <point x="15" y="445"/>
      <point x="15" y="274" type="curve" smooth="yes"/>
      <point x="15" y="103"/>
      <point x="136" y="-8"/>
      <point x="324" y="-8" type="curve" smooth="yes"/>
      <point x="512" y="-8"/>
      <point x="633" y="103"/>
      <point x="633" y="274" type="curve" smooth="yes"/>
      <point x="633" y="445"/>
      <point x="512" y="555"/>
      <point x="324" y="555" type="curve" smooth="yes"/>
    </contour>
    <contour>
      <point x="374" y="377"/>
      <point x="406" y="335"/>
      <point x="406" y="271" type="curve" smooth="yes"/>
      <point x="406" y="207"/>
      <point x="374" y="165"/>
      <point x="324" y="165" type="curve" smooth="yes"/>
      <point x="274" y="165"/>
      <point x="242" y="207"/>
      <point x="242" y="271" type="curve" smooth="yes"/>
      <point x="242" y="335"/>
      <point x="274" y="377"/>
      <point x="324" y="377" type="curve" smooth="yes"/>
    </contour>
    <contour>
      <point x="324" y="547" type="move" name="top"/>
    </contour>
  </outline>
</glyph>
<glyph name="r" format="1">
  <advance width="457"/>
  <unicode hex="0072"/>
  <outline>
    <contour>
      <point x="55" y="547" type="line"/>
      <point x="55" y="0" type="line"/>
      <point x="280" y="0" type="line"/>
      <point x="280" y="547" type="line"/>
    </contour>
    <contour>
      <point x="315" y="557"/>
      <point x="230" y="445"/>
      <point x="230" y="271" type="curve"/>
      <point x="280" y="261" type="line"/>
      <point x="280" y="333"/>
      <point x="346" y="369"/>
      <point x="447" y="354" type="curve"/>
      <point x="447" y="557" type="line"/>
    </contour>
    <contour>
      <point x="245" y="547" type="move" name="top"/>
    </contour>
    <contour>
      <point x="161" y="0" type="move" name="bottom"/>
    </contour>
  </outline>
</glyph>
<glyph name="t" format="1">
  <advance width="460"/>
  <unicode hex="0074"/>
  <outline>
    <contour>
      <point x="83" y="670" type="line"/>
      <point x="83" y="176" type="line"/>
      <point x="83" y="62"/>
      <point x="164" y="-11"/>
      <point x="289" y="-10" type="curve"/>
      <point x="347" y="-10"/>
      <point x="409" y="3"/>
      <point x="445" y="24" type="curve"/>
      <point x="407" y="178" type="line"/>
      <point x="386" y="170"/>
      <point x="364" y="164"/>
      <point x="351" y="164" type="curve"/>
      <point x="324" y="163"/>
      <point x="307" y="181"/>
      <point x="307" y="210" type="curve"/>
      <point x="307" y="670" type="line"/>
    </contour>
    <contour>
      <point x="8" y="517" type="line"/>
      <point x="8" y="375" type="line"/>
      <point x="435" y="375" type="line"/>
      <point x="435" y="517" type="line"/>
    </contour>
    <contour>
      <point x="230" y="274" type="move" name="center"/>
    </contour>
    <contour>
      <point x="272" y="0" type="move" name="bottom"/>
    </contour>
  </outline>
</glyph>
<glyph name="u" format="1">
  <advance width="672"/>
  <unicode hex="0075"/>
  <outline>
    <contour>
      <point x="617" y="0" type="line"/>
      <point x="617" y="547" type="line"/>
      <point x="392" y="547" type="line"/>
      <point x="392" y="0" type="line"/>
    </contour>
    <contour>
      <point x="363" y="-10"/>
      <point x="442" y="102"/>
      <point x="442" y="276" type="curve"/>
      <point x="392" y="276" type="line"/>
      <point x="392" y="223"/>
      <point x="366" y="188"/>
      <point x="325" y="188" type="curve" smooth="yes"/>
      <point x="289" y="188"/>
      <point x="265" y="217"/>
      <point x="265" y="263" type="curve" smooth="yes"/>
      <point x="265" y="547" type="line"/>
      <point x="40" y="547" type="line"/>
      <point x="40" y="198" type="line" smooth="yes"/>
      <point x="40" y="72"/>
      <point x="119" y="-10"/>
      <point x="231" y="-10" type="curve" smooth="yes"/>
    </contour>
    <contour>
      <point x="626" y="10" type="move" name="ogonek"/>
    </contour>
    <contour>
      <point x="330" y="547" type="move" name="top"/>
    </contour>
  </outline>
</glyph>
<glyph name="v" format="1">
  <advance width="612"/>
  <unicode hex="0076"/>
  <outline>
    <contour>
      <point x="397" y="547" type="line"/>
      <point x="308" y="204" type="line"/>
      <point x="221" y="547" type="line"/>
      <point x="-10" y="547" type="line"/>
      <point x="190" y="0" type="line"/>
      <point x="420" y="0" type="line"/>
      <point x="622" y="547" type="line"/>
    </contour>
  </outline>
</glyph>
<glyph name="w" format="1">
  <advance width="977"/>
  <unicode hex="0077"/>
  <outline>
    <contour>
      <point x="770" y="547" type="line"/>
      <point x="684" y="221" type="line"/>
      <point x="597" y="547" type="line"/>
      <point x="389" y="547" type="line"/>
      <point x="305" y="221" type="line"/>
      <point x="218" y="547" type="line"/>
      <point x="-10" y="547" type="line"/>
      <point x="188" y="0" type="line"/>
      <point x="408" y="0" type="line"/>
      <point x="489" y="288" type="line"/>
      <point x="567" y="0" type="line"/>
      <point x="787" y="0" type="line"/>
      <point x="987" y="547" type="line"/>
    </contour>
    <contour>
      <point x="489" y="547" type="move" name="top"/>
    </contour>
  </outline>
</glyph>
<glyph name="x" format="1">
  <advance width="654"/>
  <unicode hex="0078"/>
  <outline>
    <contour>
      <point x="6" y="547" type="line"/>
      <point x="176" y="280" type="line"/>
      <point x="-5" y="0" type="line"/>
      <point x="242" y="0" type="line"/>
      <point x="327" y="142" type="line"/>
      <point x="400" y="0" type="line"/>
      <point x="659" y="0" type="line"/>
      <point x="477" y="281" type="line"/>
      <point x="647" y="547" type="line"/>
      <point x="401" y="547" type="line"/>
      <point x="327" y="419" type="line"/>
      <point x="264" y="547" type="line"/>
    </contour>
  </outline>
</glyph>
<glyph name="z" format="1">
  <advance width="568"/>
  <unicode hex="007A"/>
  <outline>
    <contour>
      <point x="35" y="547" type="line"/>
      <point x="35" y="379" type="line"/>
      <point x="253" y="379" type="line"/>
      <point x="25" y="131" type="line"/>
      <point x="25" y="0" type="line"/>
      <point x="547" y="0" type="line"/>
      <point x="547" y="168" type="line"/>
      <point x="309" y="168" type="line"/>
      <point x="537" y="416" type="line"/>
      <point x="537" y="547" type="line"/>
    </contour>
    <contour>
      <point x="284" y="547" type="move" name="top"/>
    </contour>
  </outline>
</glyph>
<glyph name="braceleft" format="1">
  <advance width="381"/>
  <unicode hex="007B"/>
  <outline>
    <contour>
      <point x="283" y="744" type="line" smooth="yes"/>
      <point x="138" y="744"/>
      <point x="90" y="706"/>
      <point x="90" y="591" type="curve" smooth="yes"/>
      <point x="90" y="428" type="line" smooth="yes"/>
      <point x="90" y="402"/>
      <point x="82" y="394"/>
      <point x="59" y="394" type="curve" smooth="yes"/>
      <point x="14" y="394" type="line"/>
      <point x="14" y="224" type="line"/>
      <point x="59" y="224" type="line"/>
      <point x="140" y="301" type="line"/>
      <point x="253" y="311"/>
      <point x="290" y="346"/>
      <point x="290" y="443" type="curve" smooth="yes"/>
      <point x="290" y="520" type="line" smooth="yes"/>
      <point x="290" y="564"/>
      <point x="304" y="579"/>
      <point x="371" y="579" type="curve"/>
      <point x="371" y="744" type="line"/>
    </contour>
    <contour>
      <point x="14" y="394" type="line"/>
      <point x="14" y="224" type="line"/>
      <point x="59" y="224" type="line" smooth="yes"/>
      <point x="82" y="224"/>
      <point x="90" y="216"/>
      <point x="90" y="190" type="curve" smooth="yes"/>
      <point x="90" y="27" type="line" smooth="yes"/>
      <point x="90" y="-88"/>
      <point x="138" y="-126"/>
      <point x="283" y="-126" type="curve" smooth="yes"/>
      <point x="371" y="-126" type="line"/>
      <point x="371" y="39" type="line"/>
      <point x="304" y="39"/>
      <point x="290" y="54"/>
      <point x="290" y="98" type="curve" smooth="yes"/>
      <point x="290" y="175" type="line" smooth="yes"/>
      <point x="290" y="272"/>
      <point x="253" y="307"/>
      <point x="140" y="317" type="curve"/>
      <point x="59" y="394" type="line"/>
    </contour>
  </outline>
</glyph>
<glyph name="asciitilde" format="1">
  <advance width="520"/>
  <unicode hex="007E"/>
  <outline>
    <contour>
      <point x="88" y="430"/>
      <point x="47" y="366"/>
      <point x="47" y="229" type="curve"/>
      <point x="196" y="229" type="line"/>
      <point x="196" y="257"/>
      <point x="204" y="270"/>
      <point x="222" y="270" type="curve"/>
      <point x="248" y="270"/>
      <point x="277" y="226"/>
      <point x="346" y="226" type="curve"/>
      <point x="433" y="226"/>
      <point x="473" y="290"/>
      <point x="473" y="427" type="curve"/>
      <point x="325" y="427" type="line"/>
      <point x="325" y="399"/>
      <point x="317" y="386"/>
      <point x="299" y="386" type="curve"/>
      <point x="273" y="386"/>
      <point x="244" y="430"/>
      <point x="175" y="430" type="curve"/>
    </contour>
  </outline>
</glyph>
<glyph name="cent" format="1">
  <advance width="561"/>
  <unicode hex="00A2"/>
  <outline>
    <contour>
      <point x="230" y="118" type="line"/>
      <point x="230" y="-165" type="line"/>
      <point x="396" y="-165" type="line"/>
      <point x="396" y="118" type="line"/>
    </contour>
    <contour>
      <point x="230" y="714" type="line"/>
      <point x="230" y="479" type="line"/>
      <point x="396" y="479" type="line"/>
      <point x="396" y="714" type="line"/>
    </contour>
    <component base="c"/>
  </outline>
</glyph>
<glyph name="sterling" format="1">
  <advance width="566"/>
  <unicode hex="00A3"/>
  <outline>
    <contour>
      <point x="561" y="0" type="line"/>
      <point x="561" y="173" type="line"/>
      <point x="323" y="173" type="line"/>
      <point x="323" y="459" type="line" smooth="yes"/>
      <point x="323" y="499"/>
      <point x="341" y="518"/>
      <point x="376" y="518" type="curve" smooth="yes"/>
      <point x="410" y="518"/>
      <point x="449" y="498"/>
      <point x="492" y="459" type="curve"/>
      <point x="576" y="629" type="line"/>
      <point x="518" y="682"/>
      <point x="436" y="711"/>
      <point x="351" y="711" type="curve" smooth="yes"/>
      <point x="185" y="711"/>
      <point x="90" y="621"/>
      <point x="90" y="464" type="curve" smooth="yes"/>
      <point x="90" y="0" type="line"/>
    </contour>
    <contour>
      <point x="20" y="0" type="line"/>
      <point x="202" y="0" type="line"/>
      <point x="202" y="173" type="line"/>
      <point x="20" y="173" type="line"/>
    </contour>
    <contour>
      <point x="20" y="264" type="line"/>
      <point x="482" y="264" type="line"/>
      <point x="482" y="416" type="line"/>
      <point x="20" y="416" type="line"/>
    </contour>
  </outline>
</glyph>
<glyph name="yen" format="1">
  <advance width="699"/>
  <unicode hex="00A5"/>
  <outline>
    <contour>
      <point x="64" y="357" type="line"/>
      <point x="64" y="276" type="line"/>
      <point x="635" y="276" type="line"/>
      <point x="635" y="357" type="line"/>
    </contour>
    <contour>
      <point x="64" y="230" type="line"/>
      <point x="64" y="148" type="line"/>
      <point x="635" y="148" type="line"/>
      <point x="635" y="230" type="line"/>
    </contour>
    <contour>
      <point x="498" y="701" type="line"/>
      <point x="362" y="431" type="line"/>
      <point x="221" y="701" type="line"/>
      <point x="-10" y="701" type="line"/>
      <point x="347" y="20" type="line"/>
      <point x="375" y="20" type="line"/>
      <point x="729" y="701" type="line"/>
    </contour>
    <contour>
      <point x="246" y="317" type="line"/>
      <point x="246" y="0" type="line"/>
      <point x="478" y="0" type="line"/>
      <point x="478" y="317" type="line"/>
    </contour>
  </outline>
</glyph>
<glyph name="brokenbar" format="1">
  <advance width="326"/>
  <unicode hex="00A6"/>
  <outline>
    <contour>
      <point x="80" y="236" type="line"/>
      <point x="80" y="-103" type="line"/>
      <point x="246" y="-103" type="line"/>
      <point x="246" y="236" type="line"/>
    </contour>
    <contour>
      <point x="80" y="796" type="line"/>
      <point x="80" y="457" type="line"/>
      <point x="246" y="457" type="line"/>
      <point x="246" y="796" type="line"/>
    </contour>
  </outline>
</glyph>
<glyph name="dieresis" format="1">
  <advance width="350"/>
  <unicode hex="00A8"/>
  <outline>
    <component base="dotaccent" xOffset="139" yOffset="136" xScale="0.80" yScale="0.80"/>
    <component base="dotaccent" xOffset="-69" yOffset="136" xScale="0.80" yScale="0.80"/>
    <contour>
      <point x="175" y="547" type="move" name="_top"/>
    </contour>
  </outline>
</glyph>
<glyph name="logicalnot" format="1">
  <advance width="593"/>
  <unicode hex="00AC"/>
  <outline>
    <contour>
      <point x="30" y="449" type="line"/>
      <point x="30" y="309" type="line"/>
      <point x="540" y="309" type="line"/>
      <point x="540" y="449" type="line"/>
    </contour>
    <contour>
      <point x="540" y="449" type="line"/>
      <point x="380" y="449" type="line"/>
      <point x="380" y="129" type="line"/>
      <point x="540" y="129" type="line"/>
    </contour>
  </outline>
</glyph>
<glyph name="macron" format="1">
  <advance width="350"/>
  <unicode hex="00AF"/>
  <outline>
    <contour>
      <point x="25" y="772" type="line"/>
      <point x="25" y="624" type="line"/>
      <point x="325" y="624" type="line"/>
      <point x="325" y="772" type="line"/>
    </contour>
    <contour>
      <point x="175" y="547" type="move" name="_top"/>
    </contour>
  </outline>
</glyph>
<glyph name="threesuperior" format="1">
  <advance width="374"/>
  <unicode hex="00B3"/>
  <outline>
    <contour>
      <point x="249" y="536" type="line"/>
      <point x="340" y="615" type="line"/>
      <point x="340" y="699" type="line"/>
      <point x="22" y="699" type="line"/>
      <point x="22" y="591" type="line"/>
      <point x="164" y="591" type="line"/>
      <point x="86" y="523" type="line"/>
      <point x="86" y="445" type="line"/>
      <point x="168" y="445" type="line" smooth="yes"/>
      <point x="194" y="445"/>
      <point x="207" y="435"/>
      <point x="207" y="414" type="curve" smooth="yes"/>
      <point x="207" y="393"/>
      <point x="194" y="384"/>
      <point x="168" y="384" type="curve" smooth="yes"/>
      <point x="130" y="384"/>
      <point x="94" y="404"/>
      <point x="61" y="445" type="curve"/>
      <point x="-1" y="331" type="line"/>
      <point x="42" y="296"/>
      <point x="113" y="273"/>
      <point x="181" y="273" type="curve" smooth="yes"/>
      <point x="290" y="273"/>
      <point x="360" y="332"/>
      <point x="360" y="414" type="curve" smooth="yes"/>
      <point x="360" y="477"/>
      <point x="320" y="518"/>
      <point x="268" y="531" type="curve" smooth="yes"/>
    </contour>
  </outline>
</glyph>
<glyph name="acute" format="1">
  <advance width="350"/>
  <unicode hex="00B4"/>
  <outline>
    <contour>
      <point x="27" y="591" type="line"/>
      <point x="187" y="591" type="line"/>
      <point x="324" y="720" type="line"/>
      <point x="134" y="780" type="line"/>
    </contour>
    <contour>
      <point x="132" y="547" type="move" name="_top"/>
    </contour>
  </outline>
</glyph>
<glyph name="mu" format="1">
  <advance width="692"/>
  <unicode hex="00B5"/>
  <outline>
    <contour>
      <point x="60" y="547" type="line"/>
      <point x="60" y="-194" type="line"/>
      <point x="285" y="-194" type="line"/>
      <point x="285" y="547" type="line"/>
    </contour>
    <contour>
      <point x="366" y="20" type="move"/>
    </contour>
    <component base="u" xOffset="20"/>
  </outline>
</glyph>
<glyph name="cedilla" format="1">
  <advance width="350"/>
  <unicode hex="00B8"/>
  <outline>
    <contour>
      <point x="267" y="18" type="line"/>
      <point x="144" y="18" type="line"/>
      <point x="93" y="-81" type="line"/>
      <point x="106" y="-78"/>
      <point x="121" y="-76"/>
      <point x="130" y="-76" type="curve" smooth="yes"/>
      <point x="156" y="-76"/>
      <point x="173" y="-89"/>
      <point x="173" y="-110" type="curve" smooth="yes"/>
      <point x="173" y="-130"/>
      <point x="158" y="-143"/>
      <point x="135" y="-143" type="curve" smooth="yes"/>
      <point x="120" y="-143"/>
      <point x="104" y="-135"/>
      <point x="94" y="-123" type="curve"/>
      <point x="54" y="-213" type="line"/>
      <point x="85" y="-234"/>
      <point x="125" y="-247"/>
      <point x="155" y="-247" type="curve" smooth="yes"/>
      <point x="241" y="-247"/>
      <point x="296" y="-203"/>
      <point x="296" y="-134" type="curve" smooth="yes"/>
      <point x="296" y="-98"/>
      <point x="270" y="-65"/>
      <point x="230" y="-51" type="curve"/>
    </contour>
    <contour>
      <point x="175" y="0" type="move" name="_bottom"/>
    </contour>
  </outline>
</glyph>
<glyph name="Aring" format="1">
  <advance width="799"/>
  <unicode hex="00C5"/>
  <outline>
    <contour>
      <point x="329" y="895"/>
      <point x="270" y="836"/>
      <point x="270" y="761" type="curve" smooth="yes"/>
      <point x="270" y="686"/>
      <point x="329" y="627"/>
      <point x="404" y="627" type="curve" smooth="yes"/>
      <point x="479" y="627"/>
      <point x="538" y="686"/>
      <point x="538" y="761" type="curve" smooth="yes"/>
      <point x="538" y="836"/>
      <point x="479" y="895"/>
      <point x="404" y="895" type="curve" smooth="yes"/>
    </contour>
    <contour>
      <point x="428" y="803"/>
      <point x="446" y="785"/>
      <point x="446" y="761" type="curve" smooth="yes"/>
      <point x="446" y="737"/>
      <point x="428" y="719"/>
      <point x="404" y="719" type="curve" smooth="yes"/>
      <point x="380" y="719"/>
      <point x="362" y="737"/>
      <point x="362" y="761" type="curve" smooth="yes"/>
      <point x="362" y="785"/>
      <point x="380" y="803"/>
      <point x="404" y="803" type="curve" smooth="yes"/>
    </contour>
    <component base="A"/>
  </outline>
</glyph>
<glyph name="AE" format="1">
  <advance width="1147"/>
  <unicode hex="00C6"/>
  <outline>
    <contour>
      <point x="380" y="701" type="line"/>
      <point x="-10" y="0" type="line"/>
      <point x="230" y="0" type="line"/>
      <point x="490" y="525" type="line"/>
      <point x="784" y="525" type="line"/>
      <point x="776" y="701" type="line"/>
    </contour>
    <contour>
      <point x="225" y="288" type="line"/>
      <point x="220" y="122" type="line"/>
      <point x="623" y="122" type="line"/>
      <point x="628" y="288" type="line"/>
    </contour>
    <component base="E" xOffset="457"/>
    <contour>
      <point x="658" y="701" type="move" name="top"/>
    </contour>
  </outline>
</glyph>
<glyph name="Eth" format="1">
  <advance width="802"/>
  <unicode hex="00D0"/>
  <outline>
    <contour>
      <point x="0" y="410" type="line"/>
      <point x="0" y="291" type="line"/>
      <point x="448" y="291" type="line"/>
      <point x="448" y="410" type="line"/>
    </contour>
    <component base="D" xOffset="43"/>
  </outline>
</glyph>
<glyph name="multiply" format="1">
  <advance width="520"/>
  <unicode hex="00D7"/>
  <outline>
    <contour>
      <point x="147" y="541" type="line"/>
      <point x="48" y="442" type="line"/>
      <point x="373" y="117" type="line"/>
      <point x="472" y="216" type="line"/>
    </contour>
    <contour>
      <point x="373" y="541" type="line"/>
      <point x="48" y="216" type="line"/>
      <point x="147" y="117" type="line"/>
      <point x="472" y="442" type="line"/>
    </contour>
  </outline>
</glyph>
<glyph name="Oslash" format="1">
  <advance width="800"/>
  <unicode hex="00D8"/>
  <outline>
    <contour>
      <point x="482" y="806" type="line"/>
      <point x="153" y="-104" type="line"/>
      <point x="280" y="-104" type="line"/>
      <point x="609" y="806" type="line"/>
    </contour>
    <component base="O"/>
    <contour>
      <point x="382" y="701" type="move" name="top"/>
    </contour>
  </outline>
</glyph>
<glyph name="Thorn" format="1">
  <advance width="698"/>
  <unicode hex="00DE"/>
  <outline>
    <contour>
      <point x="238" y="615" type="line"/>
      <point x="270" y="439" type="line"/>
      <point x="372" y="439" type="line" smooth="yes"/>
      <point x="413" y="439"/>
      <point x="440" y="408"/>
      <point x="440" y="360" type="curve" smooth="yes"/>
      <point x="440" y="310"/>
      <point x="413" y="278"/>
      <point x="372" y="278" type="curve" smooth="yes"/>
      <point x="270" y="278" type="line"/>
      <point x="270" y="102" type="line"/>
      <point x="382" y="102" type="line" smooth="yes"/>
      <point x="562" y="102"/>
      <point x="678" y="206"/>
      <point x="678" y="367" type="curve" smooth="yes"/>
      <point x="678" y="518"/>
      <point x="562" y="615"/>
      <point x="382" y="615" type="curve" smooth="yes"/>
    </contour>
    <contour>
      <point x="50" y="701" type="line"/>
      <point x="50" y="0" type="line"/>
      <point x="282" y="0" type="line"/>
      <point x="282" y="701" type="line"/>
    </contour>
  </outline>
</glyph>
<glyph name="ae" format="1">
  <advance width="958"/>
  <unicode hex="00E6"/>
  <outline>
    <contour>
      <point x="555" y="124" type="move"/>
    </contour>
    <contour>
      <point x="241" y="557"/>
      <point x="145" y="538"/>
      <point x="51" y="504" type="curve"/>
      <point x="101" y="354" type="line"/>
      <point x="163" y="377"/>
      <point x="227" y="389"/>
      <point x="269" y="389" type="curve" smooth="yes"/>
      <point x="325" y="389"/>
      <point x="355" y="366"/>
      <point x="355" y="327" type="curve"/>
      <point x="355" y="140" type="line"/>
      <point x="576" y="87" type="line"/>
      <point x="576" y="354" type="line" smooth="yes"/>
      <point x="576" y="483"/>
      <point x="481" y="557"/>
      <point x="322" y="557" type="curve" smooth="yes"/>
    </contour>
    <contour>
      <point x="228" y="329" type="line" smooth="yes"/>
      <point x="89" y="327"/>
      <point x="15" y="270"/>
      <point x="15" y="162" type="curve" smooth="yes"/>
      <point x="15" y="58"/>
      <point x="91" y="-11"/>
      <point x="220" y="-11" type="curve" smooth="yes"/>
      <point x="339" y="-11"/>
      <point x="418" y="41"/>
      <point x="454" y="127" type="curve"/>
      <point x="355" y="175" type="line"/>
      <point x="336" y="148"/>
      <point x="306" y="133"/>
      <point x="277" y="133" type="curve" smooth="yes"/>
      <point x="245" y="133"/>
      <point x="226" y="151"/>
      <point x="226" y="181" type="curve" smooth="yes"/>
      <point x="226" y="210"/>
      <point x="244" y="225"/>
      <point x="275" y="225" type="curve" smooth="yes"/>
      <point x="374" y="225" type="line"/>
      <point x="374" y="329" type="line"/>
    </contour>
    <contour>
      <point x="547" y="223" type="line"/>
      <point x="942" y="223" type="line"/>
      <point x="954" y="425"/>
      <point x="842" y="555"/>
      <point x="650" y="555" type="curve" smooth="yes"/>
      <point x="485" y="555"/>
      <point x="388" y="444"/>
      <point x="388" y="271" type="curve" smooth="yes"/>
      <point x="388" y="102"/>
      <point x="480" y="-8"/>
      <point x="656" y="-8" type="curve" smooth="yes"/>
      <point x="763" y="-8"/>
      <point x="847" y="28"/>
      <point x="905" y="92" type="curve"/>
      <point x="788" y="207" type="line"/>
      <point x="754" y="175"/>
      <point x="715" y="158"/>
      <point x="676" y="158" type="curve" smooth="yes"/>
      <point x="615" y="158"/>
      <point x="576" y="202"/>
      <point x="576" y="284" type="curve" smooth="yes"/>
      <point x="576" y="352"/>
      <point x="602" y="405"/>
      <point x="652" y="405" type="curve" smooth="yes"/>
      <point x="692" y="405"/>
      <point x="720" y="372"/>
      <point x="717" y="327" type="curve"/>
      <point x="547" y="327" type="line"/>
    </contour>
    <contour>
      <point x="481" y="547" type="move" name="top"/>
    </contour>
  </outline>
</glyph>
<glyph name="eth" format="1">
  <advance width="617"/>
  <unicode hex="00F0"/>
  <outline>
    <contour>
      <point x="84" y="663" type="line"/>
      <point x="228" y="602"/>
      <point x="345" y="502"/>
      <point x="381" y="409" type="curve"/>
      <point x="349" y="433"/>
      <point x="292" y="448"/>
      <point x="236" y="448" type="curve" smooth="yes"/>
      <point x="98" y="448"/>
      <point x="9" y="361"/>
      <point x="9" y="227" type="curve" smooth="yes"/>
      <point x="9" y="83"/>
      <point x="117" y="-10"/>
      <point x="284" y="-10" type="curve" smooth="yes"/>
      <point x="477" y="-10"/>
      <point x="602" y="113"/>
      <point x="602" y="303" type="curve" smooth="yes"/>
      <point x="602" y="501"/>
      <point x="458" y="677"/>
      <point x="235" y="752" type="curve"/>
    </contour>
    <contour>
      <point x="334" y="300"/>
      <point x="361" y="275"/>
      <point x="361" y="237" type="curve" smooth="yes"/>
      <point x="361" y="199"/>
      <point x="334" y="174"/>
      <point x="292" y="174" type="curve" smooth="yes"/>
      <point x="251" y="174"/>
      <point x="224" y="199"/>
      <point x="224" y="238" type="curve" smooth="yes"/>
      <point x="224" y="276"/>
      <point x="250" y="300"/>
      <point x="291" y="300" type="curve" smooth="yes"/>
    </contour>
    <contour>
      <point x="98" y="556" type="line"/>
      <point x="132" y="456" type="line"/>
      <point x="592" y="614" type="line"/>
      <point x="558" y="715" type="line"/>
    </contour>
  </outline>
</glyph>
<glyph name="divide" format="1">
  <advance width="520"/>
  <unicode hex="00F7"/>
  <outline>
    <contour>
      <point x="30" y="399" type="line"/>
      <point x="30" y="259" type="line"/>
      <point x="490" y="259" type="line"/>
      <point x="490" y="399" type="line"/>
    </contour>
    <component base="dotaccent" xOffset="111" yOffset="-54" xScale="0.80" yScale="0.80"/>
    <component base="dotaccent" xOffset="111" yOffset="-414" xScale="0.80" yScale="0.80"/>
  </outline>
</glyph>
<glyph name="oslash" format="1">
  <advance width="648"/>
  <unicode hex="00F8"/>
  <outline>
    <contour>
      <point x="413" y="677" type="line"/>
      <point x="146" y="-139" type="line"/>
      <point x="234" y="-139" type="line"/>
      <point x="501" y="677" type="line"/>
    </contour>
    <contour>
      <point x="136" y="555"/>
      <point x="15" y="445"/>
      <point x="15" y="274" type="curve" smooth="yes"/>
      <point x="15" y="103"/>
      <point x="136" y="-8"/>
      <point x="324" y="-8" type="curve" smooth="yes"/>
      <point x="512" y="-8"/>
      <point x="633" y="103"/>
      <point x="633" y="274" type="curve" smooth="yes"/>
      <point x="633" y="445"/>
      <point x="512" y="555"/>
      <point x="324" y="555" type="curve" smooth="yes"/>
    </contour>
    <contour>
      <point x="383" y="396"/>
      <point x="421" y="347"/>
      <point x="421" y="271" type="curve" smooth="yes"/>
      <point x="421" y="195"/>
      <point x="383" y="146"/>
      <point x="324" y="146" type="curve" smooth="yes"/>
      <point x="265" y="146"/>
      <point x="227" y="195"/>
      <point x="227" y="271" type="curve" smooth="yes"/>
      <point x="227" y="347"/>
      <point x="265" y="396"/>
      <point x="324" y="396" type="curve" smooth="yes"/>
    </contour>
    <contour>
      <point x="324" y="547" type="move" name="top"/>
    </contour>
  </outline>
</glyph>
<glyph name="Aogonek" format="1">
  <advance width="799"/>
  <unicode hex="0104"/>
  <outline>
    <contour>
      <point x="286" y="701" type="line"/>
      <point x="-10" y="0" type="line"/>
      <point x="228" y="0" type="line"/>
      <point x="264" y="99" type="line"/>
      <point x="527" y="99" type="line"/>
      <point x="562" y="0" type="line"/>
      <point x="636" y="0" type="line"/>
      <point x="612" y="-36"/>
      <point x="593" y="-75"/>
      <point x="593" y="-116" type="curve" smooth="yes"/>
      <point x="593" y="-185"/>
      <point x="647" y="-204"/>
      <point x="689" y="-204" type="curve" smooth="yes"/>
      <point x="738" y="-204"/>
      <point x="781" y="-179"/>
      <point x="809" y="-128" type="curve"/>
      <point x="754" y="-64" type="line"/>
      <point x="743" y="-83"/>
      <point x="730" y="-94"/>
      <point x="717" y="-94" type="curve" smooth="yes"/>
      <point x="709" y="-94"/>
      <point x="703" y="-89"/>
      <point x="703" y="-79" type="curve" smooth="yes"/>
      <point x="703" y="-63"/>
      <point x="719" y="-33"/>
      <point x="741" y="0" type="curve"/>
      <point x="809" y="0" type="line"/>
      <point x="524" y="701" type="line"/>
    </contour>
    <contour>
      <point x="470" y="265" type="line"/>
      <point x="324" y="265" type="line"/>
      <point x="398" y="470" type="line"/>
    </contour>
  </outline>
</glyph>
<glyph name="aogonek" format="1">
  <advance width="618"/>
  <unicode hex="0105"/>
  <outline>
    <contour>
      <point x="242" y="557"/>
      <point x="145" y="538"/>
      <point x="50.9999" y="504" type="curve"/>
      <point x="101" y="354" type="line"/>
      <point x="164" y="377"/>
      <point x="228" y="389"/>
      <point x="270" y="389" type="curve" smooth="yes"/>
      <point x="325" y="389"/>
      <point x="355" y="367"/>
      <point x="357" y="330" type="curve"/>
      <point x="357" y="329" type="line"/>
      <point x="229" y="329" type="line" smooth="yes"/>
      <point x="88.9999" y="327"/>
      <point x="14.9999" y="270"/>
      <point x="14.9999" y="162" type="curve" smooth="yes"/>
      <point x="14.9999" y="58"/>
      <point x="82.9999" y="-11"/>
      <point x="200" y="-11" type="curve" smooth="yes"/>
      <point x="271" y="-11"/>
      <point x="324" y="15"/>
      <point x="357" y="60" type="curve"/>
      <point x="357" y="0" type="line"/>
      <point x="426" y="0" type="line"/>
      <point x="402" y="-36"/>
      <point x="383" y="-75"/>
      <point x="383" y="-116" type="curve" smooth="yes"/>
      <point x="383" y="-185"/>
      <point x="437" y="-204"/>
      <point x="479" y="-204" type="curve" smooth="yes"/>
      <point x="528" y="-204"/>
      <point x="571" y="-179"/>
      <point x="599" y="-128" type="curve"/>
      <point x="544" y="-64" type="line"/>
      <point x="533" y="-83"/>
      <point x="520" y="-94"/>
      <point x="507" y="-94" type="curve" smooth="yes"/>
      <point x="499" y="-94"/>
      <point x="493" y="-89"/>
      <point x="493" y="-79" type="curve" smooth="yes"/>
      <point x="493" y="-63"/>
      <point x="509" y="-33"/>
      <point x="531" y="0" type="curve"/>
      <point x="578" y="0" type="line"/>
      <point x="578" y="354" type="line" smooth="yes"/>
      <point x="578" y="483"/>
      <point x="483" y="557"/>
      <point x="323" y="557" type="curve" smooth="yes"/>
    </contour>
    <contour>
      <point x="357" y="175" type="line"/>
      <point x="338" y="148"/>
      <point x="308" y="133"/>
      <point x="278" y="133" type="curve" smooth="yes"/>
      <point x="245" y="133"/>
      <point x="226" y="151"/>
      <point x="226" y="181" type="curve" smooth="yes"/>
      <point x="226" y="210"/>
      <point x="244" y="225"/>
      <point x="276" y="225" type="curve" smooth="yes"/>
      <point x="357" y="225" type="line"/>
    </contour>
  </outline>
</glyph>
<glyph name="Eogonek" format="1">
  <advance width="690"/>
  <unicode hex="0118"/>
  <outline>
    <contour>
      <point x="50" y="701" type="line"/>
      <point x="50" y="0" type="line"/>
      <point x="471" y="0" type="line"/>
      <point x="447" y="-36"/>
      <point x="428" y="-75"/>
      <point x="428" y="-116" type="curve" smooth="yes"/>
      <point x="428" y="-185"/>
      <point x="482" y="-204"/>
      <point x="524" y="-204" type="curve" smooth="yes"/>
      <point x="573" y="-204"/>
      <point x="616" y="-179"/>
      <point x="644" y="-128" type="curve"/>
      <point x="589" y="-64" type="line"/>
      <point x="578" y="-83"/>
      <point x="565" y="-94"/>
      <point x="552" y="-94" type="curve" smooth="yes"/>
      <point x="544" y="-94"/>
      <point x="538" y="-89"/>
      <point x="538" y="-79" type="curve" smooth="yes"/>
      <point x="538" y="-63"/>
      <point x="554" y="-33"/>
      <point x="576" y="0" type="curve"/>
      <point x="652" y="0" type="line"/>
      <point x="652" y="176" type="line"/>
      <point x="282" y="176" type="line"/>
      <point x="282" y="263" type="line"/>
      <point x="610" y="263" type="line"/>
      <point x="610" y="439" type="line"/>
      <point x="282" y="439" type="line"/>
      <point x="282" y="525" type="line"/>
      <point x="643" y="525" type="line"/>
      <point x="643" y="701" type="line"/>
    </contour>
  </outline>
</glyph>
<glyph name="eogonek" format="1">
  <advance width="614"/>
  <unicode hex="0119"/>
  <outline>
    <contour>
      <point x="131" y="555"/>
      <point x="15" y="444"/>
      <point x="15" y="271" type="curve" smooth="yes"/>
      <point x="15" y="102"/>
      <point x="126" y="-8"/>
      <point x="313" y="-8" type="curve" smooth="yes"/>
      <point x="337" y="-8"/>
      <point x="362" y="-3"/>
      <point x="385" y="5" type="curve"/>
      <point x="358" y="-32"/>
      <point x="337" y="-74"/>
      <point x="337" y="-116" type="curve" smooth="yes"/>
      <point x="337" y="-185"/>
      <point x="391" y="-204"/>
      <point x="433" y="-204" type="curve" smooth="yes"/>
      <point x="482" y="-204"/>
      <point x="524" y="-179"/>
      <point x="552" y="-128" type="curve"/>
      <point x="497" y="-64" type="line"/>
      <point x="486" y="-83"/>
      <point x="474" y="-94"/>
      <point x="461" y="-94" type="curve" smooth="yes"/>
      <point x="453" y="-94"/>
      <point x="447" y="-89"/>
      <point x="447" y="-79" type="curve" smooth="yes"/>
      <point x="447" y="-32"/>
      <point x="527" y="55"/>
      <point x="561" y="92" type="curve"/>
      <point x="444" y="207" type="line"/>
      <point x="410" y="175"/>
      <point x="371" y="158"/>
      <point x="333" y="158" type="curve" smooth="yes"/>
      <point x="290" y="158"/>
      <point x="258" y="180"/>
      <point x="242" y="223" type="curve"/>
      <point x="598" y="223" type="line"/>
      <point x="610" y="425"/>
      <point x="498" y="555"/>
      <point x="307" y="555" type="curve" smooth="yes"/>
    </contour>
    <contour>
      <point x="348" y="405"/>
      <point x="376" y="372"/>
      <point x="373" y="327" type="curve"/>
      <point x="237" y="327" type="line"/>
      <point x="246" y="373"/>
      <point x="271" y="405"/>
      <point x="309" y="405" type="curve" smooth="yes"/>
    </contour>
  </outline>
</glyph>
<glyph name="hbar" format="1">
  <advance width="677"/>
  <unicode hex="0127"/>
  <outline>
    <contour>
      <point x="-16" y="682" type="line"/>
      <point x="-16" y="563" type="line"/>
      <point x="382" y="563" type="line"/>
      <point x="382" y="682" type="line"/>
    </contour>
    <component base="h"/>
  </outline>
</glyph>
<glyph name="Iogonek" format="1">
  <advance width="332"/>
  <unicode hex="012E"/>
  <outline>
    <contour>
      <point x="244" y="-64" type="line"/>
      <point x="233" y="-83"/>
      <point x="220" y="-94"/>
      <point x="207" y="-94" type="curve" smooth="yes"/>
      <point x="199" y="-94"/>
      <point x="193" y="-89"/>
      <point x="193" y="-79" type="curve" smooth="yes"/>
      <point x="193" y="-63"/>
      <point x="209" y="-33"/>
      <point x="231" y="0" type="curve"/>
      <point x="282" y="0" type="line"/>
      <point x="282" y="701" type="line"/>
      <point x="50" y="701" type="line"/>
      <point x="50" y="0" type="line"/>
      <point x="126" y="0" type="line"/>
      <point x="102" y="-36"/>
      <point x="83" y="-75"/>
      <point x="83" y="-116" type="curve" smooth="yes"/>
      <point x="83" y="-185"/>
      <point x="137" y="-204"/>
      <point x="179" y="-204" type="curve" smooth="yes"/>
      <point x="228" y="-204"/>
      <point x="271" y="-179"/>
      <point x="299" y="-128" type="curve"/>
    </contour>
  </outline>
</glyph>
<glyph name="iogonek" format="1">
  <advance width="311"/>
  <unicode hex="012F"/>
  <outline>
    <contour>
      <point x="43" y="547" type="line"/>
      <point x="43" y="0" type="line"/>
      <point x="107" y="0" type="line"/>
      <point x="83" y="-36"/>
      <point x="64" y="-75"/>
      <point x="64" y="-116" type="curve" smooth="yes"/>
      <point x="64" y="-185"/>
      <point x="118" y="-204"/>
      <point x="160" y="-204" type="curve" smooth="yes"/>
      <point x="209" y="-204"/>
      <point x="252" y="-179"/>
      <point x="280" y="-128" type="curve"/>
      <point x="225" y="-64" type="line"/>
      <point x="214" y="-83"/>
      <point x="201" y="-94"/>
      <point x="188" y="-94" type="curve" smooth="yes"/>
      <point x="180" y="-94"/>
      <point x="174" y="-89"/>
      <point x="174" y="-79" type="curve" smooth="yes"/>
      <point x="174" y="-63"/>
      <point x="190" y="-33"/>
      <point x="212" y="0" type="curve"/>
      <point x="268" y="0" type="line"/>
      <point x="268" y="547" type="line"/>
    </contour>
    <contour>
      <point x="89" y="817"/>
      <point x="42" y="770"/>
      <point x="42" y="703" type="curve" smooth="yes"/>
      <point x="42" y="636"/>
      <point x="89" y="589"/>
      <point x="156" y="589" type="curve" smooth="yes"/>
      <point x="223" y="589"/>
      <point x="270" y="636"/>
      <point x="270" y="703" type="curve" smooth="yes"/>
      <point x="270" y="770"/>
      <point x="223" y="817"/>
      <point x="156" y="817" type="curve" smooth="yes"/>
    </contour>
  </outline>
</glyph>
<glyph name="kcedilla" format="1">
  <advance width="662"/>
  <unicode hex="0137"/>
  <outline>
    <contour>
      <point x="235" y="18" type="line"/>
      <point x="112" y="18" type="line"/>
      <point x="61" y="-81" type="line"/>
      <point x="74" y="-78"/>
      <point x="89" y="-76"/>
      <point x="98" y="-76" type="curve" smooth="yes"/>
      <point x="124" y="-76"/>
      <point x="141" y="-89"/>
      <point x="141" y="-110" type="curve" smooth="yes"/>
      <point x="141" y="-130"/>
      <point x="126" y="-143"/>
      <point x="103" y="-143" type="curve" smooth="yes"/>
      <point x="88" y="-143"/>
      <point x="72" y="-135"/>
      <point x="62" y="-123" type="curve"/>
      <point x="22" y="-213" type="line"/>
      <point x="53" y="-234"/>
      <point x="93" y="-247"/>
      <point x="123" y="-247" type="curve" smooth="yes"/>
      <point x="209" y="-247"/>
      <point x="264" y="-203"/>
      <point x="264" y="-134" type="curve" smooth="yes"/>
      <point x="264" y="-98"/>
      <point x="238" y="-65"/>
      <point x="198" y="-51" type="curve"/>
    </contour>
    <component base="k"/>
  </outline>
</glyph>
<glyph name="kgreenlandic" format="1">
  <advance width="655"/>
  <unicode hex="0138"/>
  <outline>
    <contour>
      <point x="230" y="111" type="move"/>
    </contour>
    <contour>
      <point x="55" y="547" type="line"/>
      <point x="55" y="0" type="line"/>
      <point x="280" y="0" type="line"/>
      <point x="280" y="547" type="line"/>
    </contour>
    <contour>
      <point x="405" y="547" type="line"/>
      <point x="268" y="394" type="line"/>
      <point x="268" y="133" type="line"/>
      <point x="659" y="547" type="line"/>
    </contour>
    <contour>
      <point x="280" y="224" type="line"/>
      <point x="389" y="0" type="line"/>
      <point x="656" y="0" type="line"/>
      <point x="446" y="360" type="line"/>
    </contour>
    <contour>
      <point x="291" y="10" type="move" name="ogonek"/>
    </contour>
    <contour>
      <point x="324" y="0" type="move" name="bottom"/>
    </contour>
    <contour>
      <point x="168" y="547" type="move" name="top"/>
    </contour>
  </outline>
</glyph>
<glyph name="ldot" format="1">
  <advance width="447"/>
  <unicode hex="0140"/>
  <outline>
    <contour>
      <point x="325" y="417"/>
      <point x="283" y="375"/>
      <point x="283" y="314" type="curve" smooth="yes"/>
      <point x="283" y="254"/>
      <point x="325" y="212"/>
      <point x="386" y="212" type="curve" smooth="yes"/>
      <point x="446" y="212"/>
      <point x="488" y="254"/>
      <point x="488" y="314" type="curve" smooth="yes"/>
      <point x="488" y="375"/>
      <point x="446" y="417"/>
      <point x="386" y="417" type="curve" smooth="yes"/>
    </contour>
    <component base="l"/>
  </outline>
</glyph>
<glyph name="Lslash" format="1">
  <advance width="606"/>
  <unicode hex="0141"/>
  <outline>
    <contour>
      <point x="-30" y="412" type="line"/>
      <point x="8" y="278" type="line"/>
      <point x="472" y="412" type="line"/>
      <point x="434" y="547" type="line"/>
    </contour>
    <component base="L" xOffset="22"/>
  </outline>
</glyph>
<glyph name="lslash" format="1">
  <advance width="373"/>
  <unicode hex="0142"/>
  <outline>
    <contour>
      <point x="-45" y="424" type="line"/>
      <point x="-7" y="290" type="line"/>
      <point x="418" y="412" type="line"/>
      <point x="380" y="547" type="line"/>
    </contour>
    <component base="l" xOffset="24"/>
  </outline>
</glyph>
<glyph name="OE" format="1">
  <advance width="1127"/>
  <unicode hex="0152"/>
  <outline>
    <contour>
      <point x="399" y="701" type="line"/>
      <point x="176" y="701"/>
      <point x="15" y="551"/>
      <point x="15" y="349" type="curve" smooth="yes"/>
      <point x="15" y="146"/>
      <point x="178" y="0"/>
      <point x="399" y="0" type="curve"/>
      <point x="556" y="0" type="line"/>
      <point x="559" y="185" type="line"/>
      <point x="399" y="183" type="line"/>
      <point x="314" y="183"/>
      <point x="253" y="253"/>
      <point x="253" y="348" type="curve" smooth="yes"/>
      <point x="253" y="444"/>
      <point x="314" y="514"/>
      <point x="399" y="514" type="curve"/>
      <point x="537" y="514" type="line"/>
      <point x="537" y="701" type="line"/>
    </contour>
    <contour>
      <point x="487" y="701" type="line"/>
      <point x="487" y="0" type="line"/>
      <point x="1089" y="0" type="line"/>
      <point x="1089" y="176" type="line"/>
      <point x="719" y="176" type="line"/>
      <point x="719" y="263" type="line"/>
      <point x="1047" y="263" type="line"/>
      <point x="1047" y="439" type="line"/>
      <point x="719" y="439" type="line"/>
      <point x="719" y="525" type="line"/>
      <point x="1080" y="525" type="line"/>
      <point x="1080" y="701" type="line"/>
    </contour>
    <contour>
      <point x="1081" y="10" type="move" name="ogonek"/>
    </contour>
    <contour>
      <point x="788" y="0" type="move" name="bottom"/>
    </contour>
    <contour>
      <point x="557" y="701" type="move" name="top"/>
    </contour>
  </outline>
</glyph>
<glyph name="tcaron" format="1">
  <advance width="470"/>
  <unicode hex="0165"/>
  <outline>
    <contour>
      <point x="160" y="-93" type="move"/>
    </contour>
    <component base="t"/>
    <component base="quoteright" xOffset="315" yOffset="178"/>
  </outline>
</glyph>
<glyph name="Uogonek" format="1">
  <advance width="753"/>
  <unicode hex="0172"/>
  <outline>
    <contour>
      <point x="481" y="701" type="line"/>
      <point x="481" y="297" type="line" smooth="yes"/>
      <point x="481" y="227"/>
      <point x="437" y="183"/>
      <point x="380" y="183" type="curve" smooth="yes"/>
      <point x="322" y="183"/>
      <point x="272" y="228"/>
      <point x="272" y="297" type="curve" smooth="yes"/>
      <point x="272" y="701" type="line"/>
      <point x="40" y="701" type="line"/>
      <point x="40" y="297" type="line" smooth="yes"/>
      <point x="40" y="111"/>
      <point x="175" y="-10"/>
      <point x="379" y="-10" type="curve" smooth="yes"/>
      <point x="582" y="-10"/>
      <point x="713" y="111"/>
      <point x="713" y="297" type="curve" smooth="yes"/>
      <point x="713" y="701" type="line"/>
    </contour>
    <contour>
      <point x="426" y="24" type="line"/>
      <point x="395" y="-17"/>
      <point x="366" y="-66"/>
      <point x="366" y="-116" type="curve" smooth="yes"/>
      <point x="366" y="-185"/>
      <point x="420" y="-204"/>
      <point x="462" y="-204" type="curve" smooth="yes"/>
      <point x="511" y="-204"/>
      <point x="554" y="-179"/>
      <point x="582" y="-128" type="curve"/>
      <point x="527" y="-64" type="line"/>
      <point x="516" y="-83"/>
      <point x="503" y="-94"/>
      <point x="490" y="-94" type="curve" smooth="yes"/>
      <point x="482" y="-94"/>
      <point x="476" y="-89"/>
      <point x="476" y="-79" type="curve" smooth="yes"/>
      <point x="476" y="-59"/>
      <point x="500" y="-19"/>
      <point x="531" y="24" type="curve"/>
    </contour>
  </outline>
</glyph>
<glyph name="uogonek" format="1">
  <advance width="670"/>
  <unicode hex="0173"/>
  <outline>
    <contour>
      <point x="402" y="547" type="line"/>
      <point x="402" y="276" type="line" smooth="yes"/>
      <point x="402" y="223"/>
      <point x="374" y="188"/>
      <point x="330" y="188" type="curve" smooth="yes"/>
      <point x="291" y="188"/>
      <point x="265" y="217"/>
      <point x="265" y="263" type="curve" smooth="yes"/>
      <point x="265" y="547" type="line"/>
      <point x="39.9999" y="547" type="line"/>
      <point x="39.9999" y="198" type="line" smooth="yes"/>
      <point x="39.9999" y="72"/>
      <point x="121" y="-10"/>
      <point x="236" y="-10" type="curve" smooth="yes"/>
      <point x="308" y="-10"/>
      <point x="365" y="22"/>
      <point x="402" y="78" type="curve"/>
      <point x="402" y="0" type="line"/>
      <point x="464" y="0" type="line"/>
      <point x="440" y="-36"/>
      <point x="421" y="-75"/>
      <point x="421" y="-116" type="curve" smooth="yes"/>
      <point x="421" y="-185"/>
      <point x="475" y="-204"/>
      <point x="517" y="-204" type="curve" smooth="yes"/>
      <point x="566" y="-204"/>
      <point x="609" y="-179"/>
      <point x="637" y="-128" type="curve"/>
      <point x="582" y="-64" type="line"/>
      <point x="571" y="-83"/>
      <point x="558" y="-94"/>
      <point x="545" y="-94" type="curve" smooth="yes"/>
      <point x="537" y="-94"/>
      <point x="531" y="-89"/>
      <point x="531" y="-79" type="curve" smooth="yes"/>
      <point x="531" y="-63"/>
      <point x="547" y="-33"/>
      <point x="569" y="0" type="curve"/>
      <point x="627" y="0" type="line"/>
      <point x="627" y="547" type="line"/>
    </contour>
  </outline>
</glyph>
<glyph name="circumflex" format="1">
  <advance width="350"/>
  <unicode hex="02C6"/>
  <outline>
    <contour>
      <point x="91" y="769" type="line"/>
      <point x="-30" y="607" type="line"/>
      <point x="120" y="607" type="line"/>
      <point x="175" y="689" type="line"/>
      <point x="230" y="607" type="line"/>
      <point x="380" y="607" type="line"/>
      <point x="259" y="769" type="line"/>
    </contour>
    <contour>
      <point x="175" y="547" type="move" name="_top"/>
    </contour>
  </outline>
</glyph>
<glyph name="caron" format="1">
  <advance width="350"/>
  <unicode hex="02C7"/>
  <outline>
    <contour>
      <point x="267" y="591" type="line"/>
      <point x="400" y="769" type="line"/>
      <point x="235" y="769" type="line"/>
      <point x="175" y="679" type="line"/>
      <point x="115" y="769" type="line"/>
      <point x="-50" y="769" type="line"/>
      <point x="83" y="591" type="line"/>
    </contour>
    <contour>
      <point x="181" y="547" type="move" name="_top"/>
    </contour>
  </outline>
</glyph>
<glyph name="breve" format="1">
  <advance width="350"/>
  <unicode hex="02D8"/>
  <outline>
    <contour>
      <point x="224" y="769" type="line"/>
      <point x="221" y="739"/>
      <point x="202" y="719"/>
      <point x="175" y="719" type="curve" smooth="yes"/>
      <point x="148" y="719"/>
      <point x="129" y="739"/>
      <point x="126" y="769" type="curve"/>
      <point x="-9" y="769" type="line"/>
      <point x="-4" y="663"/>
      <point x="68" y="595"/>
      <point x="175" y="595" type="curve" smooth="yes"/>
      <point x="282" y="595"/>
      <point x="354" y="663"/>
      <point x="359" y="769" type="curve"/>
    </contour>
    <contour>
      <point x="175" y="547" type="move" name="_top"/>
    </contour>
  </outline>
</glyph>
<glyph name="dotaccent" format="1">
  <advance width="350"/>
  <unicode hex="02D9"/>
  <outline>
    <contour>
      <point x="108" y="817"/>
      <point x="61" y="770"/>
      <point x="61" y="703" type="curve" smooth="yes"/>
      <point x="61" y="636"/>
      <point x="108" y="589"/>
      <point x="175" y="589" type="curve" smooth="yes"/>
      <point x="242" y="589"/>
      <point x="289" y="636"/>
      <point x="289" y="703" type="curve" smooth="yes"/>
      <point x="289" y="770"/>
      <point x="242" y="817"/>
      <point x="175" y="817" type="curve" smooth="yes"/>
    </contour>
    <contour>
      <point x="175" y="547" type="move" name="_top"/>
    </contour>
  </outline>
</glyph>
<glyph name="ring" format="1">
  <advance width="350"/>
  <unicode hex="02DA"/>
  <outline>
    <contour>
      <point x="106" y="827"/>
      <point x="51" y="772"/>
      <point x="51" y="703" type="curve" smooth="yes"/>
      <point x="51" y="634"/>
      <point x="106" y="579"/>
      <point x="175" y="579" type="curve" smooth="yes"/>
      <point x="244" y="579"/>
      <point x="299" y="634"/>
      <point x="299" y="703" type="curve" smooth="yes"/>
      <point x="299" y="772"/>
      <point x="244" y="827"/>
      <point x="175" y="827" type="curve" smooth="yes"/>
    </contour>
    <contour>
      <point x="197" y="742"/>
      <point x="214" y="725"/>
      <point x="214" y="703" type="curve" smooth="yes"/>
      <point x="214" y="681"/>
      <point x="197" y="664"/>
      <point x="175" y="664" type="curve" smooth="yes"/>
      <point x="153" y="664"/>
      <point x="136" y="681"/>
      <point x="136" y="703" type="curve" smooth="yes"/>
      <point x="136" y="725"/>
      <point x="153" y="742"/>
      <point x="175" y="742" type="curve" smooth="yes"/>
    </contour>
    <contour>
      <point x="175" y="547" type="move" name="_top"/>
    </contour>
  </outline>
</glyph>
<glyph name="ogonek" format="1">
  <advance width="350"/>
  <unicode hex="02DB"/>
  <outline>
    <contour>
      <point x="129" y="24" type="line"/>
      <point x="98" y="-17"/>
      <point x="69" y="-66"/>
      <point x="69" y="-116" type="curve" smooth="yes"/>
      <point x="69" y="-185"/>
      <point x="123" y="-204"/>
      <point x="165" y="-204" type="curve" smooth="yes"/>
      <point x="214" y="-204"/>
      <point x="257" y="-179"/>
      <point x="285" y="-128" type="curve"/>
      <point x="230" y="-64" type="line"/>
      <point x="219" y="-83"/>
      <point x="206" y="-94"/>
      <point x="193" y="-94" type="curve" smooth="yes"/>
      <point x="185" y="-94"/>
      <point x="179" y="-89"/>
      <point x="179" y="-79" type="curve" smooth="yes"/>
      <point x="179" y="-59"/>
      <point x="203" y="-19"/>
      <point x="234" y="24" type="curve"/>
    </contour>
    <contour>
      <point x="285" y="10" type="move" name="_ogonek"/>
    </contour>
  </outline>
</glyph>
<glyph name="tilde" format="1">
  <advance width="350"/>
  <unicode hex="02DC"/>
  <outline>
    <contour>
      <point x="19" y="797"/>
      <point x="-19" y="739"/>
      <point x="-19" y="614" type="curve"/>
      <point x="117" y="614" type="line"/>
      <point x="117" y="640"/>
      <point x="124" y="652"/>
      <point x="140" y="652" type="curve"/>
      <point x="164" y="652"/>
      <point x="190" y="612"/>
      <point x="253" y="612" type="curve"/>
      <point x="332" y="612"/>
      <point x="369" y="670"/>
      <point x="369" y="794" type="curve"/>
      <point x="234" y="794" type="line"/>
      <point x="234" y="769"/>
      <point x="227" y="757"/>
      <point x="210" y="757" type="curve"/>
      <point x="187" y="757"/>
      <point x="160" y="797"/>
      <point x="98" y="797" type="curve"/>
    </contour>
    <contour>
      <point x="175" y="547" type="move" name="_top"/>
    </contour>
  </outline>
</glyph>
<glyph name="hungarumlaut" format="1">
  <advance width="350"/>
  <unicode hex="02DD"/>
  <outline>
    <contour>
      <point x="161" y="591" type="line"/>
      <point x="321" y="591" type="line"/>
      <point x="410" y="727" type="line"/>
      <point x="248" y="780" type="line"/>
    </contour>
    <contour>
      <point x="-60" y="591" type="line"/>
      <point x="100" y="591" type="line"/>
      <point x="189" y="727" type="line"/>
      <point x="27" y="780" type="line"/>
    </contour>
    <contour>
      <point x="140" y="547" type="move" name="_top"/>
    </contour>
  </outline>
</glyph>
<glyph name="commaaccentcomb" format="1">
  <advance width="265"/>
  <unicode hex="0326"/>
  <outline>
    <contour>
      <point x="18" y="-340" type="line"/>
      <point x="122" y="-340" type="line"/>
      <point x="209" y="-214" type="line" smooth="yes"/>
      <point x="225" y="-191"/>
      <point x="236" y="-165"/>
      <point x="236" y="-134" type="curve" smooth="yes"/>
      <point x="236" y="-68"/>
      <point x="188" y="-33"/>
      <point x="134" y="-33" type="curve" smooth="yes"/>
      <point x="74" y="-33"/>
      <point x="31" y="-75"/>
      <point x="31" y="-135" type="curve" smooth="yes"/>
      <point x="31" y="-192"/>
      <point x="72" y="-240"/>
      <point x="166" y="-236" type="curve"/>
      <point x="102" y="-134" type="line"/>
    </contour>
    <contour>
      <point x="127" y="0" type="move" name="_bottom"/>
    </contour>
  </outline>
</glyph>
<glyph name="Delta" format="1">
  <advance width="799"/>
  <unicode hex="0394"/>
  <outline>
    <contour>
      <point x="286" y="701" type="line"/>
      <point x="-10" y="0" type="line"/>
      <point x="228" y="0" type="line"/>
      <point x="398" y="470" type="line"/>
      <point x="562" y="0" type="line"/>
      <point x="809" y="0" type="line"/>
      <point x="524" y="701" type="line"/>
    </contour>
    <contour>
      <point x="190" y="166" type="line"/>
      <point x="190" y="0" type="line" smooth="yes"/>
      <point x="592" y="0" type="line"/>
      <point x="592" y="166" type="line"/>
    </contour>
  </outline>
</glyph>
<glyph name="pi" format="1">
  <advance width="733"/>
  <unicode hex="03C0"/>
  <outline>
    <contour>
      <point x="164" y="547" type="line"/>
      <point x="55" y="547"/>
      <point x="-23" y="480"/>
      <point x="-22" y="388" type="curve"/>
      <point x="-22" y="342"/>
      <point x="-6" y="282"/>
      <point x="16" y="236" type="curve"/>
      <point x="170" y="288" type="line"/>
      <point x="160" y="309"/>
      <point x="152" y="335"/>
      <point x="152" y="350" type="curve"/>
      <point x="151" y="374"/>
      <point x="169" y="391"/>
      <point x="194" y="391" type="curve"/>
      <point x="720" y="391" type="line"/>
      <point x="719" y="547" type="line"/>
    </contour>
    <contour>
      <point x="429" y="407" type="line"/>
      <point x="429" y="0" type="line"/>
      <point x="614" y="0" type="line"/>
      <point x="614" y="407" type="line"/>
    </contour>
    <contour>
      <point x="209" y="407" type="line"/>
      <point x="167" y="0" type="line"/>
      <point x="352" y="0" type="line"/>
      <point x="394" y="407" type="line"/>
    </contour>
  </outline>
</glyph>
<glyph name="emdash" format="1">
  <advance width="610"/>
  <unicode hex="2014"/>
  <outline>
    <contour>
      <point x="0" y="349" type="line"/>
      <point x="0" y="209" type="line"/>
      <point x="610" y="209" type="line"/>
      <point x="610" y="349" type="line"/>
    </contour>
  </outline>
</glyph>
<glyph name="daggerdbl" format="1">
  <advance width="608"/>
  <unicode hex="2021"/>
  <outline>
    <contour>
      <point x="188" y="699" type="line"/>
      <point x="188" y="503" type="line"/>
      <point x="20" y="503" type="line"/>
      <point x="20" y="327" type="line"/>
      <point x="188" y="327" type="line"/>
      <point x="188" y="-185" type="line"/>
      <point x="413" y="-185" type="line"/>
      <point x="413" y="327" type="line"/>
      <point x="588" y="327" type="line"/>
      <point x="588" y="503" type="line"/>
      <point x="413" y="503" type="line"/>
      <point x="413" y="699" type="line"/>
    </contour>
    <contour>
      <point x="20" y="193" type="line"/>
      <point x="20" y="17" type="line"/>
      <point x="588" y="17" type="line"/>
      <point x="588" y="193" type="line"/>
    </contour>
  </outline>
</glyph>
<glyph name="bullet" format="1">
  <advance width="368"/>
  <unicode hex="2022"/>
  <outline>
    <contour>
      <point x="93" y="437"/>
      <point x="30" y="374"/>
      <point x="30" y="284" type="curve" smooth="yes"/>
      <point x="30" y="192"/>
      <point x="93" y="129"/>
      <point x="183" y="129" type="curve" smooth="yes"/>
      <point x="275" y="129"/>
      <point x="338" y="192"/>
      <point x="338" y="284" type="curve" smooth="yes"/>
      <point x="338" y="374"/>
      <point x="275" y="437"/>
      <point x="183" y="437" type="curve" smooth="yes"/>
    </contour>
  </outline>
</glyph>
<glyph name="guilsinglleft" format="1">
  <advance width="285"/>
  <unicode hex="2039"/>
  <outline>
    <contour>
      <point x="107" y="466" type="line"/>
      <point x="-17" y="273" type="line"/>
      <point x="107" y="78" type="line"/>
      <point x="287" y="78" type="line"/>
      <point x="181" y="273" type="line"/>
      <point x="287" y="466" type="line"/>
    </contour>
  </outline>
</glyph>
<glyph name="Euro" format="1">
  <advance width="774"/>
  <unicode hex="20AC"/>
  <outline>
    <contour>
      <point x="261" y="708"/>
      <point x="101" y="558"/>
      <point x="101" y="352" type="curve" smooth="yes"/>
      <point x="101" y="143"/>
      <point x="257" y="-10"/>
      <point x="472" y="-10" type="curve" smooth="yes"/>
      <point x="580" y="-10"/>
      <point x="699" y="45"/>
      <point x="777" y="130" type="curve"/>
      <point x="643" y="273" type="line"/>
      <point x="597" y="224"/>
      <point x="534" y="193"/>
      <point x="484" y="193" type="curve" smooth="yes"/>
      <point x="400" y="193"/>
      <point x="339" y="261"/>
      <point x="339" y="355" type="curve" smooth="yes"/>
      <point x="339" y="448"/>
      <point x="400" y="515"/>
      <point x="484" y="515" type="curve" smooth="yes"/>
      <point x="538" y="515"/>
      <point x="601" y="478"/>
      <point x="643" y="421" type="curve"/>
      <point x="777" y="580" type="line"/>
      <point x="705" y="658"/>
      <point x="588" y="708"/>
      <point x="481" y="708" type="curve" smooth="yes"/>
    </contour>
    <component base="equal" xOffset="-16" yOffset="163" xScale="1.20" yScale="0.58"/>
  </outline>
</glyph>
<glyph name="trademark" format="1">
  <advance width="921"/>
  <unicode hex="2122"/>
  <outline>
    <contour>
      <point x="82" y="-151" type="move"/>
    </contour>
    <contour>
      <point x="716" y="701" type="line"/>
      <point x="636" y="509" type="line"/>
      <point x="557" y="701" type="line"/>
      <point x="383" y="701" type="line"/>
      <point x="383" y="280" type="line"/>
      <point x="527" y="280" type="line"/>
      <point x="527" y="472" type="line"/>
      <point x="581" y="320" type="line"/>
      <point x="692" y="320" type="line"/>
      <point x="746" y="472" type="line"/>
      <point x="746" y="280" type="line"/>
      <point x="890" y="280" type="line"/>
      <point x="890" y="701" type="line"/>
    </contour>
    <contour>
      <point x="-11" y="701" type="line"/>
      <point x="-11" y="573" type="line"/>
      <point x="90" y="573" type="line"/>
      <point x="90" y="280" type="line"/>
      <point x="251" y="280" type="line"/>
      <point x="251" y="573" type="line"/>
      <point x="353" y="573" type="line"/>
      <point x="353" y="701" type="line"/>
    </contour>
  </outline>
</glyph>
<glyph name="Omega" format="1">
  <advance width="833"/>
  <unicode hex="2126"/>
  <outline>
    <contour>
      <point x="208" y="713"/>
      <point x="56" y="577"/>
      <point x="56" y="391" type="curve" smooth="yes"/>
      <point x="56" y="320"/>
      <point x="96" y="231"/>
      <point x="150" y="180" type="curve"/>
      <point x="5" y="180" type="line"/>
      <point x="5" y="0" type="line"/>
      <point x="370" y="0" type="line"/>
      <point x="370" y="166" type="line"/>
      <point x="307" y="214"/>
      <point x="261" y="301"/>
      <point x="261" y="371" type="curve" smooth="yes"/>
      <point x="261" y="460"/>
      <point x="327" y="524"/>
      <point x="416" y="524" type="curve" smooth="yes"/>
      <point x="506" y="524"/>
      <point x="572" y="460"/>
      <point x="572" y="371" type="curve" smooth="yes"/>
      <point x="572" y="301"/>
      <point x="526" y="214"/>
      <point x="463" y="166" type="curve"/>
      <point x="463" y="0" type="line"/>
      <point x="828" y="0" type="line"/>
      <point x="828" y="180" type="line"/>
      <point x="684" y="180" type="line"/>
      <point x="738" y="232"/>
      <point x="777" y="321"/>
      <point x="777" y="391" type="curve" smooth="yes"/>
      <point x="777" y="577"/>
      <point x="625" y="713"/>
      <point x="416" y="713" type="curve" smooth="yes"/>
    </contour>
    <contour>
      <point x="20" y="701" type="move" name="topleft"/>
    </contour>
  </outline>
</glyph>
<glyph name="product" format="1">
  <advance width="734"/>
  <unicode hex="220F"/>
  <outline>
    <contour>
      <point x="50" y="742" type="line"/>
      <point x="50" y="-194" type="line"/>
      <point x="275" y="-194" type="line"/>
      <point x="275" y="566" type="line"/>
      <point x="459" y="566" type="line"/>
      <point x="459" y="-194" type="line"/>
      <point x="684" y="-194" type="line"/>
      <point x="684" y="742" type="line"/>
    </contour>
  </outline>
</glyph>
<glyph name="summation" format="1">
  <advance width="621"/>
  <unicode hex="2211"/>
  <outline>
    <contour>
      <point x="36" y="745" type="line"/>
      <point x="36" y="583" type="line"/>
      <point x="259" y="299" type="line"/>
      <point x="23" y="20" type="line"/>
      <point x="23" y="-138" type="line"/>
      <point x="613" y="-138" type="line"/>
      <point x="613" y="55" type="line"/>
      <point x="304" y="55" type="line"/>
      <point x="504" y="300" type="line"/>
      <point x="304" y="552" type="line"/>
      <point x="603" y="552" type="line"/>
      <point x="603" y="745" type="line"/>
    </contour>
  </outline>
</glyph>
<glyph name="radical" format="1">
  <advance width="725"/>
  <unicode hex="221A"/>
  <outline>
    <contour>
      <point x="-6" y="242" type="line"/>
      <point x="123" y="242" type="line"/>
      <point x="247" y="-161" type="line"/>
      <point x="487" y="-161" type="line"/>
      <point x="750" y="742" type="line"/>
      <point x="536" y="742" type="line"/>
      <point x="368" y="62" type="line"/>
      <point x="277" y="418" type="line"/>
      <point x="-6" y="418" type="line"/>
    </contour>
  </outline>
</glyph>
<glyph name="infinity" format="1">
  <advance width="835"/>
  <unicode hex="221E"/>
  <outline>
    <contour>
      <point x="228" y="524" type="line"/>
      <point x="105" y="524"/>
      <point x="15" y="428"/>
      <point x="15" y="296" type="curve"/>
      <point x="15" y="165"/>
      <point x="105" y="69"/>
      <point x="228" y="69" type="curve"/>
      <point x="461" y="69"/>
      <point x="446" y="374"/>
      <point x="606" y="374" type="curve"/>
      <point x="643" y="374"/>
      <point x="670" y="342"/>
      <point x="670" y="297" type="curve"/>
      <point x="670" y="252"/>
      <point x="643" y="219"/>
      <point x="606" y="219" type="curve"/>
      <point x="446" y="219"/>
      <point x="451" y="524"/>
      <point x="228" y="524" type="curve"/>
      <point x="228" y="374" type="line"/>
      <point x="388" y="374"/>
      <point x="383" y="69"/>
      <point x="606" y="69" type="curve"/>
      <point x="730" y="69"/>
      <point x="820" y="165"/>
      <point x="820" y="297" type="curve"/>
      <point x="820" y="428"/>
      <point x="730" y="524"/>
      <point x="606" y="524" type="curve"/>
      <point x="373" y="524"/>
      <point x="388" y="219"/>
      <point x="228" y="219" type="curve"/>
      <point x="192" y="219"/>
      <point x="165" y="251"/>
      <point x="165" y="296" type="curve"/>
      <point x="165" y="341"/>
      <point x="192" y="374"/>
      <point x="228" y="374" type="curve"/>
    </contour>
  </outline>
</glyph>
<glyph name="notequal" format="1">
  <advance width="520"/>
  <unicode hex="2260"/>
  <outline>
    <contour>
      <point x="30" y="509" type="line"/>
      <point x="30" y="369" type="line"/>
      <point x="490" y="369" type="line"/>
      <point x="490" y="509" type="line"/>
    </contour>
    <contour>
      <point x="30" y="289" type="line"/>
      <point x="30" y="149" type="line"/>
      <point x="490" y="149" type="line"/>
      <point x="490" y="289" type="line"/>
    </contour>
    <contour>
      <point x="270" y="640" type="line"/>
      <point x="73" y="13" type="line"/>
      <point x="241" y="13" type="line"/>
      <point x="438" y="640" type="line"/>
    </contour>
  </outline>
</glyph>
<glyph name="lozenge" format="1">
  <advance width="482"/>
  <unicode hex="25CA"/>
  <outline>
    <contour>
      <point x="15" y="330" type="line"/>
      <point x="240" y="-9" type="line"/>
      <point x="467" y="330" type="line"/>
      <point x="242" y="666" type="line"/>
    </contour>
    <contour>
      <point x="324" y="330" type="line"/>
      <point x="241" y="205" type="line"/>
      <point x="158" y="330" type="line"/>
      <point x="241" y="453" type="line"/>
    </contour>
  </outline>
</glyph>
<glyph name="fi" format="1">
  <advance width="761"/>
  <unicode hex="FB01"/>
  <outline>
    <contour>
      <point x="184" y="753"/>
      <point x="95" y="680"/>
      <point x="95" y="566" type="curve"/>
      <point x="95" y="0" type="line"/>
      <point x="319" y="0" type="line"/>
      <point x="319" y="532" type="line"/>
      <point x="319" y="561"/>
      <point x="339" y="579"/>
      <point x="371" y="578" type="curve"/>
      <point x="387" y="578"/>
      <point x="409" y="571"/>
      <point x="426" y="559" type="curve"/>
      <point x="433" y="736" type="line"/>
      <point x="405" y="746"/>
      <point x="361" y="752"/>
      <point x="322" y="752" type="curve"/>
    </contour>
    <contour>
      <point x="20" y="527" type="line"/>
      <point x="20" y="385" type="line"/>
      <point x="425" y="385" type="line"/>
      <point x="425" y="527" type="line"/>
    </contour>
    <component base="i" xOffset="426"/>
  </outline>
</glyph>
<glyph name="A.ss01" format="1">
  <advance width="759"/>
  <outline>
    <contour>
      <point x="172" y="710"/>
      <point x="40" y="588"/>
      <point x="40" y="402" type="curve" smooth="yes"/>
      <point x="40" y="0" type="line"/>
      <point x="272" y="0" type="line"/>
      <point x="272" y="149" type="line"/>
      <point x="487" y="149" type="line"/>
      <point x="487" y="0" type="line"/>
      <point x="719" y="0" type="line"/>
      <point x="719" y="402" type="line" smooth="yes"/>
      <point x="719" y="588"/>
      <point x="585" y="710"/>
      <point x="377" y="710" type="curve" smooth="yes"/>
    </contour>
    <contour>
      <point x="444" y="517"/>
      <point x="487" y="471"/>
      <point x="487" y="402" type="curve" smooth="yes"/>
      <point x="487" y="315" type="line"/>
      <point x="272" y="315" type="line"/>
      <point x="272" y="402" type="line" smooth="yes"/>
      <point x="272" y="471"/>
      <point x="314" y="517"/>
      <point x="379" y="517" type="curve" smooth="yes"/>
    </contour>
    <contour>
      <point x="723" y="10" type="move" name="ogonek"/>
    </contour>
    <contour>
      <point x="380" y="701" type="move" name="top"/>
    </contour>
  </outline>
</glyph>
<glyph name="Aogonek.ss01" format="1">
  <advance width="759"/>
  <outline>
    <contour>
      <point x="172" y="710"/>
      <point x="39.9999" y="588"/>
      <point x="39.9999" y="402" type="curve" smooth="yes"/>
      <point x="39.9999" y="0" type="line"/>
      <point x="272" y="0" type="line"/>
      <point x="272" y="149" type="line"/>
      <point x="487" y="149" type="line"/>
      <point x="487" y="0" type="line"/>
      <point x="550" y="0" type="line"/>
      <point x="526" y="-36"/>
      <point x="507" y="-75"/>
      <point x="507" y="-116" type="curve" smooth="yes"/>
      <point x="507" y="-185"/>
      <point x="561" y="-204"/>
      <point x="603" y="-204" type="curve" smooth="yes"/>
      <point x="652" y="-204"/>
      <point x="695" y="-179"/>
      <point x="723" y="-128" type="curve"/>
      <point x="668" y="-64" type="line"/>
      <point x="657" y="-83"/>
      <point x="644" y="-94"/>
      <point x="631" y="-94" type="curve" smooth="yes"/>
      <point x="623" y="-94"/>
      <point x="617" y="-89"/>
      <point x="617" y="-79" type="curve" smooth="yes"/>
      <point x="617" y="-63"/>
      <point x="633" y="-33"/>
      <point x="655" y="0" type="curve"/>
      <point x="719" y="0" type="line"/>
      <point x="719" y="402" type="line" smooth="yes"/>
      <point x="719" y="588"/>
      <point x="585" y="710"/>
      <point x="377" y="710" type="curve" smooth="yes"/>
    </contour>
    <contour>
      <point x="444" y="517"/>
      <point x="487" y="471"/>
      <point x="487" y="402" type="curve" smooth="yes"/>
      <point x="487" y="315" type="line"/>
      <point x="272" y="315" type="line"/>
      <point x="272" y="402" type="line" smooth="yes"/>
      <point x="272" y="471"/>
      <point x="314" y="517"/>
      <point x="379" y="517" type="curve" smooth="yes"/>
    </contour>
  </outline>
</glyph>
<glyph name="E.ss01" format="1">
  <advance width="635"/>
  <outline>
    <contour>
      <point x="177" y="711"/>
      <point x="65" y="637"/>
      <point x="65" y="520" type="curve" smooth="yes"/>
      <point x="65" y="457"/>
      <point x="97" y="396"/>
      <point x="147" y="369" type="curve"/>
      <point x="73" y="340"/>
      <point x="25" y="270"/>
      <point x="25" y="193" type="curve" smooth="yes"/>
      <point x="25" y="69"/>
      <point x="149" y="-10"/>
      <point x="324" y="-10" type="curve" smooth="yes"/>
      <point x="437" y="-10"/>
      <point x="556" y="23"/>
      <point x="625" y="67" type="curve"/>
      <point x="538" y="234" type="line"/>
      <point x="506" y="211"/>
      <point x="425" y="176"/>
      <point x="358" y="176" type="curve" smooth="yes"/>
      <point x="306" y="176"/>
      <point x="265" y="197"/>
      <point x="265" y="230" type="curve" smooth="yes"/>
      <point x="265" y="255"/>
      <point x="289" y="271"/>
      <point x="325" y="271" type="curve" smooth="yes"/>
      <point x="507" y="271" type="line"/>
      <point x="507" y="438" type="line"/>
      <point x="325" y="438" type="line" smooth="yes"/>
      <point x="300" y="438"/>
      <point x="284" y="456"/>
      <point x="284" y="476" type="curve" smooth="yes"/>
      <point x="284" y="508"/>
      <point x="323" y="525"/>
      <point x="376" y="525" type="curve" smooth="yes"/>
      <point x="423" y="525"/>
      <point x="476" y="511"/>
      <point x="529" y="487" type="curve"/>
      <point x="602" y="656" type="line"/>
      <point x="545" y="688"/>
      <point x="440" y="711"/>
      <point x="346" y="711" type="curve" smooth="yes"/>
    </contour>
    <contour>
      <point x="571" y="10" type="move" name="ogonek"/>
    </contour>
    <contour>
      <point x="318" y="0" type="move" name="bottom"/>
    </contour>
    <contour>
      <point x="318" y="701" type="move" name="top"/>
    </contour>
  </outline>
</glyph>
<glyph name="Eogonek.ss01" format="1">
  <advance width="635"/>
  <outline>
    <contour>
      <point x="177" y="711"/>
      <point x="65" y="637"/>
      <point x="65" y="520" type="curve" smooth="yes"/>
      <point x="65" y="457"/>
      <point x="97" y="396"/>
      <point x="147" y="369" type="curve"/>
      <point x="73" y="340"/>
      <point x="25" y="270"/>
      <point x="25" y="193" type="curve" smooth="yes"/>
      <point x="25" y="69"/>
      <point x="149" y="-10"/>
      <point x="324" y="-10" type="curve" smooth="yes"/>
      <point x="437" y="-10"/>
      <point x="556" y="23"/>
      <point x="625" y="67" type="curve"/>
      <point x="538" y="234" type="line"/>
      <point x="506" y="211"/>
      <point x="425" y="176"/>
      <point x="358" y="176" type="curve" smooth="yes"/>
      <point x="306" y="176"/>
      <point x="265" y="197"/>
      <point x="265" y="230" type="curve" smooth="yes"/>
      <point x="265" y="255"/>
      <point x="289" y="271"/>
      <point x="325" y="271" type="curve" smooth="yes"/>
      <point x="507" y="271" type="line"/>
      <point x="507" y="438" type="line"/>
      <point x="325" y="438" type="line" smooth="yes"/>
      <point x="300" y="438"/>
      <point x="284" y="456"/>
      <point x="284" y="476" type="curve" smooth="yes"/>
      <point x="284" y="508"/>
      <point x="323" y="525"/>
      <point x="376" y="525" type="curve" smooth="yes"/>
      <point x="423" y="525"/>
      <point x="476" y="511"/>
      <point x="529" y="487" type="curve"/>
      <point x="602" y="656" type="line"/>
      <point x="545" y="688"/>
      <point x="440" y="711"/>
      <point x="346" y="711" type="curve" smooth="yes"/>
    </contour>
    <contour>
      <point x="415" y="24" type="line"/>
      <point x="384" y="-17"/>
      <point x="355" y="-66"/>
      <point x="355" y="-116" type="curve" smooth="yes"/>
      <point x="355" y="-185"/>
      <point x="409" y="-204"/>
      <point x="451" y="-204" type="curve" smooth="yes"/>
      <point x="500" y="-204"/>
      <point x="543" y="-179"/>
      <point x="571" y="-128" type="curve"/>
      <point x="516" y="-64" type="line"/>
      <point x="505" y="-83"/>
      <point x="492" y="-94"/>
      <point x="479" y="-94" type="curve" smooth="yes"/>
      <point x="471" y="-94"/>
      <point x="465" y="-89"/>
      <point x="465" y="-79" type="curve" smooth="yes"/>
      <point x="465" y="-59"/>
      <point x="489" y="-19"/>
      <point x="520" y="24" type="curve"/>
    </contour>
  </outline>
</glyph>
<glyph name="F.ss01" format="1">
  <advance width="580"/>
  <outline>
    <contour>
      <point x="273" y="0" type="line"/>
      <point x="273" y="449" type="line" smooth="yes"/>
      <point x="273" y="491"/>
      <point x="301" y="518"/>
      <point x="343" y="518" type="curve" smooth="yes"/>
      <point x="398" y="518"/>
      <point x="477" y="498"/>
      <point x="538" y="473" type="curve"/>
      <point x="590" y="663" type="line"/>
      <point x="527" y="692"/>
      <point x="421" y="711"/>
      <point x="321" y="711" type="curve" smooth="yes"/>
      <point x="150" y="711"/>
      <point x="40" y="610"/>
      <point x="40" y="454" type="curve" smooth="yes"/>
      <point x="40" y="0" type="line"/>
    </contour>
    <contour>
      <point x="85" y="405" type="line"/>
      <point x="85" y="229" type="line" smooth="yes"/>
      <point x="524" y="229" type="line"/>
      <point x="524" y="405" type="line"/>
    </contour>
  </outline>
</glyph>
<glyph name="G.ss01" format="1">
  <advance width="738"/>
  <outline>
    <contour>
      <point x="180" y="708"/>
      <point x="15" y="557"/>
      <point x="15" y="350" type="curve" smooth="yes"/>
      <point x="15" y="142"/>
      <point x="164" y="-10"/>
      <point x="369" y="-10" type="curve" smooth="yes"/>
      <point x="477" y="-10"/>
      <point x="592" y="62"/>
      <point x="643" y="160" type="curve"/>
      <point x="534" y="283" type="line"/>
      <point x="515" y="225"/>
      <point x="457" y="183"/>
      <point x="396" y="183" type="curve" smooth="yes"/>
      <point x="313" y="183"/>
      <point x="253" y="253"/>
      <point x="253" y="350" type="curve" smooth="yes"/>
      <point x="253" y="445"/>
      <point x="319" y="515"/>
      <point x="409" y="515" type="curve" smooth="yes"/>
      <point x="467" y="515"/>
      <point x="535" y="486"/>
      <point x="582" y="441" type="curve"/>
      <point x="713" y="600" type="line"/>
      <point x="637" y="666"/>
      <point x="516" y="708"/>
      <point x="406" y="708" type="curve" smooth="yes"/>
    </contour>
    <contour>
      <point x="503" y="369" type="line"/>
      <point x="503" y="123" type="line"/>
      <point x="533" y="98" type="line"/>
      <point x="533" y="0" type="line"/>
      <point x="702" y="0" type="line"/>
      <point x="702" y="369" type="line"/>
    </contour>
    <contour>
      <point x="372" y="701" type="move" name="top"/>
    </contour>
    <contour>
      <point x="372" y="0" type="move" name="bottom"/>
    </contour>
  </outline>
</glyph>
<glyph name="I.ss01" format="1">
  <advance width="524"/>
  <outline>
    <contour>
      <point x="40" y="525" type="line"/>
      <point x="484" y="525" type="line"/>
      <point x="484" y="701" type="line"/>
      <point x="40" y="701" type="line"/>
    </contour>
    <contour>
      <point x="40" y="0" type="line"/>
      <point x="484" y="0" type="line"/>
      <point x="484" y="176" type="line"/>
      <point x="40" y="176" type="line"/>
    </contour>
    <contour>
      <point x="146" y="701" type="line"/>
      <point x="146" y="0" type="line"/>
      <point x="378" y="0" type="line"/>
      <point x="378" y="701" type="line"/>
    </contour>
    <contour>
      <point x="472" y="10" type="move" name="ogonek"/>
    </contour>
    <contour>
      <point x="262" y="701" type="move" name="top"/>
    </contour>
  </outline>
</glyph>
<glyph name="J.ss01" format="1">
  <advance width="569"/>
  <outline>
    <contour>
      <point x="58" y="701" type="line"/>
      <point x="58" y="518" type="line"/>
      <point x="297" y="518" type="line"/>
      <point x="297" y="142" type="line" smooth="yes"/>
      <point x="297" y="102"/>
      <point x="275" y="83"/>
      <point x="243" y="83" type="curve" smooth="yes"/>
      <point x="208" y="83"/>
      <point x="152" y="107"/>
      <point x="97" y="162" type="curve"/>
      <point x="-8" y="12" type="line"/>
      <point x="63" y="-66"/>
      <point x="152" y="-110"/>
      <point x="265" y="-110" type="curve" smooth="yes"/>
      <point x="426" y="-110"/>
      <point x="529" y="-20"/>
      <point x="529" y="137" type="curve" smooth="yes"/>
      <point x="529" y="701" type="line"/>
    </contour>
    <contour>
      <point x="285" y="701" type="move" name="top"/>
    </contour>
  </outline>
</glyph>
<glyph name="M.ss01" format="1">
  <advance width="1160"/>
  <outline>
    <contour>
      <point x="327" y="701"/>
      <point x="232" y="577"/>
      <point x="232" y="385" type="curve"/>
      <point x="282" y="380" type="line"/>
      <point x="282" y="448"/>
      <point x="321" y="493"/>
      <point x="379" y="493" type="curve" smooth="yes"/>
      <point x="435" y="493"/>
      <point x="466" y="452"/>
      <point x="466" y="387" type="curve" smooth="yes"/>
      <point x="466" y="0" type="line"/>
      <point x="701" y="0" type="line"/>
      <point x="701" y="443" type="line" smooth="yes"/>
      <point x="701" y="600"/>
      <point x="612" y="701"/>
      <point x="477" y="701" type="curve" smooth="yes"/>
    </contour>
    <contour>
      <point x="746" y="701"/>
      <point x="651" y="577"/>
      <point x="651" y="385" type="curve"/>
      <point x="701" y="380" type="line"/>
      <point x="701" y="448"/>
      <point x="740" y="493"/>
      <point x="798" y="493" type="curve" smooth="yes"/>
      <point x="854" y="493"/>
      <point x="885" y="452"/>
      <point x="885" y="387" type="curve" smooth="yes"/>
      <point x="885" y="0" type="line"/>
      <point x="1120" y="0" type="line"/>
      <point x="1120" y="443" type="line" smooth="yes"/>
      <point x="1120" y="600"/>
      <point x="1031" y="701"/>
      <point x="896" y="701" type="curve" smooth="yes"/>
    </contour>
    <contour>
      <point x="50" y="701" type="line"/>
      <point x="50" y="0" type="line"/>
      <point x="282" y="0" type="line"/>
      <point x="282" y="701" type="line"/>
    </contour>
    <contour>
      <point x="299" y="10" type="move" name="ogonek"/>
    </contour>
    <contour>
      <point x="166" y="701" type="move" name="top"/>
    </contour>
  </outline>
</glyph>
<glyph name="N.ss01" format="1">
  <advance width="761"/>
  <outline>
    <contour>
      <point x="332" y="701"/>
      <point x="232" y="577"/>
      <point x="232" y="385" type="curve"/>
      <point x="282" y="380" type="line"/>
      <point x="282" y="449"/>
      <point x="325" y="493"/>
      <point x="393" y="493" type="curve" smooth="yes"/>
      <point x="450" y="493"/>
      <point x="486" y="451"/>
      <point x="486" y="387" type="curve" smooth="yes"/>
      <point x="486" y="0" type="line"/>
      <point x="721" y="0" type="line"/>
      <point x="721" y="443" type="line" smooth="yes"/>
      <point x="721" y="600"/>
      <point x="629" y="701"/>
      <point x="486" y="701" type="curve" smooth="yes"/>
    </contour>
    <contour>
      <point x="50" y="701" type="line"/>
      <point x="50" y="0" type="line"/>
      <point x="282" y="0" type="line"/>
      <point x="282" y="701" type="line"/>
    </contour>
    <contour>
      <point x="299" y="10" type="move" name="ogonek"/>
    </contour>
    <contour>
      <point x="381" y="0" type="move" name="bottom"/>
    </contour>
    <contour>
      <point x="401" y="701" type="move" name="top"/>
    </contour>
  </outline>
</glyph>
<glyph name="T.ss01" format="1">
  <advance width="712"/>
  <outline>
    <contour>
      <point x="227" y="711"/>
      <point x="108" y="681"/>
      <point x="10" y="627" type="curve"/>
      <point x="68" y="456" type="line"/>
      <point x="148" y="496"/>
      <point x="245" y="521"/>
      <point x="350" y="521" type="curve" smooth="yes"/>
      <point x="454" y="521"/>
      <point x="550" y="497"/>
      <point x="634" y="456" type="curve"/>
      <point x="692" y="626" type="line"/>
      <point x="592" y="681"/>
      <point x="473" y="711"/>
      <point x="350" y="711" type="curve" smooth="yes"/>
    </contour>
    <contour>
      <point x="235" y="601" type="line"/>
      <point x="235" y="0" type="line"/>
      <point x="467" y="0" type="line"/>
      <point x="467" y="601" type="line"/>
    </contour>
    <contour>
      <point x="356" y="351" type="move" name="center"/>
    </contour>
    <contour>
      <point x="336" y="0" type="move" name="bottom"/>
    </contour>
    <contour>
      <point x="356" y="701" type="move" name="top"/>
    </contour>
  </outline>
</glyph>
<glyph name="W.ss01" format="1">
  <advance width="1154"/>
  <outline>
    <contour>
      <point x="882" y="701" type="line"/>
      <point x="882" y="287" type="line" smooth="yes"/>
      <point x="882" y="227"/>
      <point x="845" y="183"/>
      <point x="791" y="183" type="curve" smooth="yes"/>
      <point x="737" y="183"/>
      <point x="693" y="227"/>
      <point x="693" y="287" type="curve" smooth="yes"/>
      <point x="693" y="701" type="line"/>
      <point x="461" y="701" type="line"/>
      <point x="461" y="287" type="line" smooth="yes"/>
      <point x="460" y="227"/>
      <point x="421" y="183"/>
      <point x="368" y="183" type="curve" smooth="yes"/>
      <point x="314" y="183"/>
      <point x="272" y="227"/>
      <point x="272" y="287" type="curve" smooth="yes"/>
      <point x="272" y="701" type="line"/>
      <point x="40" y="701" type="line"/>
      <point x="40" y="287" type="line" smooth="yes"/>
      <point x="40" y="115"/>
      <point x="163" y="-10"/>
      <point x="330" y="-10" type="curve" smooth="yes"/>
      <point x="435" y="-10"/>
      <point x="529" y="40"/>
      <point x="578" y="108" type="curve"/>
      <point x="628" y="40"/>
      <point x="724" y="-10"/>
      <point x="828" y="-10" type="curve" smooth="yes"/>
      <point x="993" y="-10"/>
      <point x="1114" y="115"/>
      <point x="1114" y="287" type="curve" smooth="yes"/>
      <point x="1114" y="701" type="line"/>
    </contour>
    <contour>
      <point x="577" y="701" type="move" name="top"/>
    </contour>
  </outline>
</glyph>
<glyph name="Y.ss01" format="1">
  <advance width="746"/>
  <outline>
    <contour>
      <point x="430" y="152"/>
      <point x="524" y="267"/>
      <point x="524" y="448" type="curve"/>
      <point x="474" y="448" type="line"/>
      <point x="474" y="388"/>
      <point x="433" y="350"/>
      <point x="371" y="350" type="curve" smooth="yes"/>
      <point x="310" y="350"/>
      <point x="272" y="387"/>
      <point x="272" y="445" type="curve" smooth="yes"/>
      <point x="272" y="701" type="line"/>
      <point x="40" y="701" type="line"/>
      <point x="40" y="423" type="line" smooth="yes"/>
      <point x="40" y="259"/>
      <point x="136" y="152"/>
      <point x="280" y="152" type="curve" smooth="yes"/>
    </contour>
    <contour>
      <point x="474" y="701" type="line"/>
      <point x="474" y="202" type="line" smooth="yes"/>
      <point x="474" y="130"/>
      <point x="417" y="83"/>
      <point x="330" y="83" type="curve"/>
      <point x="269" y="83"/>
      <point x="193" y="105"/>
      <point x="136" y="139" type="curve"/>
      <point x="50" y="-17" type="line"/>
      <point x="126" y="-73"/>
      <point x="246" y="-110"/>
      <point x="361" y="-110" type="curve" smooth="yes"/>
      <point x="569" y="-110"/>
      <point x="706" y="11"/>
      <point x="706" y="197" type="curve" smooth="yes"/>
      <point x="706" y="701" type="line"/>
    </contour>
    <contour>
      <point x="373" y="701" type="move" name="top"/>
    </contour>
  </outline>
</glyph>
<glyph name="Z.ss01" format="1">
  <advance width="683"/>
  <outline>
    <contour>
      <point x="68" y="436" type="line"/>
      <point x="68" y="297" type="line"/>
      <point x="360" y="297" type="line"/>
      <point x="360" y="436" type="line"/>
    </contour>
    <contour>
      <point x="330" y="416" type="line"/>
      <point x="330" y="277" type="line"/>
      <point x="605" y="277" type="line"/>
      <point x="605" y="416" type="line"/>
    </contour>
    <contour>
      <point x="32" y="701" type="line"/>
      <point x="32" y="523" type="line"/>
      <point x="347" y="523" type="line"/>
      <point x="20" y="145" type="line"/>
      <point x="20" y="0" type="line"/>
      <point x="663" y="0" type="line"/>
      <point x="663" y="178" type="line"/>
      <point x="329" y="178" type="line"/>
      <point x="656" y="556" type="line"/>
      <point x="656" y="701" type="line"/>
    </contour>
    <contour>
      <point x="342" y="701" type="move" name="top"/>
    </contour>
  </outline>
</glyph>
<glyph name="a.ss01" format="1">
  <advance width="685"/>
  <outline>
    <contour>
      <point x="405" y="547" type="line"/>
      <point x="405" y="0" type="line"/>
      <point x="630" y="0" type="line"/>
      <point x="630" y="547" type="line"/>
    </contour>
    <contour>
      <point x="111" y="555"/>
      <point x="15" y="446"/>
      <point x="15" y="277" type="curve" smooth="yes"/>
      <point x="15" y="104"/>
      <point x="114" y="-8"/>
      <point x="266" y="-8" type="curve" smooth="yes"/>
      <point x="392" y="-8"/>
      <point x="473" y="104"/>
      <point x="473" y="276" type="curve"/>
      <point x="473" y="445"/>
      <point x="389" y="555"/>
      <point x="260" y="555" type="curve" smooth="yes"/>
    </contour>
    <contour>
      <point x="373" y="377"/>
      <point x="405" y="335"/>
      <point x="405" y="271" type="curve" smooth="yes"/>
      <point x="405" y="207"/>
      <point x="373" y="165"/>
      <point x="324" y="165" type="curve" smooth="yes"/>
      <point x="274" y="165"/>
      <point x="242" y="207"/>
      <point x="242" y="271" type="curve" smooth="yes"/>
      <point x="242" y="335"/>
      <point x="274" y="377"/>
      <point x="324" y="377" type="curve" smooth="yes"/>
    </contour>
    <contour>
      <point x="642" y="10" type="move" name="ogonek"/>
    </contour>
    <contour>
      <point x="337" y="547" type="move" name="top"/>
    </contour>
  </outline>
</glyph>
<glyph name="ae.ss01" format="1">
  <advance width="951"/>
  <outline>
    <contour>
      <point x="558" y="124" type="move"/>
    </contour>
    <contour>
      <point x="229" y="329" type="line" smooth="yes"/>
      <point x="89" y="327"/>
      <point x="15" y="269"/>
      <point x="15" y="164" type="curve" smooth="yes"/>
      <point x="15" y="58"/>
      <point x="89" y="-11"/>
      <point x="223" y="-11" type="curve" smooth="yes"/>
      <point x="340" y="-11"/>
      <point x="420" y="41"/>
      <point x="456" y="127" type="curve"/>
      <point x="357" y="175" type="line"/>
      <point x="338" y="148"/>
      <point x="308" y="133"/>
      <point x="278" y="133" type="curve" smooth="yes"/>
      <point x="245" y="133"/>
      <point x="226" y="151"/>
      <point x="226" y="181" type="curve" smooth="yes"/>
      <point x="226" y="210"/>
      <point x="244" y="225"/>
      <point x="276" y="225" type="curve" smooth="yes"/>
      <point x="376" y="225" type="line"/>
      <point x="376" y="329" type="line"/>
    </contour>
    <contour>
      <point x="101" y="354" type="line"/>
      <point x="164" y="377"/>
      <point x="228" y="389"/>
      <point x="270" y="389" type="curve" smooth="yes"/>
      <point x="327" y="389"/>
      <point x="357" y="366"/>
      <point x="357" y="327" type="curve"/>
      <point x="357" y="140" type="line"/>
      <point x="578" y="87" type="line"/>
      <point x="578" y="354" type="line" smooth="yes"/>
      <point x="578" y="483"/>
      <point x="483" y="557"/>
      <point x="323" y="557" type="curve" smooth="yes"/>
      <point x="242" y="557"/>
      <point x="145" y="538"/>
      <point x="51" y="504" type="curve"/>
    </contour>
    <contour>
      <point x="756" y="179"/>
      <point x="714" y="158"/>
      <point x="675" y="158" type="curve" smooth="yes"/>
      <point x="616" y="158"/>
      <point x="579" y="204"/>
      <point x="579" y="287" type="curve" smooth="yes"/>
      <point x="579" y="359"/>
      <point x="607" y="405"/>
      <point x="656" y="405" type="curve" smooth="yes"/>
      <point x="688" y="405"/>
      <point x="717" y="386"/>
      <point x="722" y="339" type="curve"/>
      <point x="542" y="307" type="line"/>
      <point x="542" y="197" type="line"/>
      <point x="936" y="273" type="line"/>
      <point x="936" y="444"/>
      <point x="834" y="555"/>
      <point x="661" y="555" type="curve" smooth="yes"/>
      <point x="487" y="555"/>
      <point x="390" y="443"/>
      <point x="390" y="275" type="curve" smooth="yes"/>
      <point x="390" y="102"/>
      <point x="492" y="-8"/>
      <point x="662" y="-8" type="curve" smooth="yes"/>
      <point x="758" y="-8"/>
      <point x="852" y="27"/>
      <point x="919" y="104" type="curve"/>
      <point x="794" y="216" type="line"/>
    </contour>
    <contour>
      <point x="476" y="547" type="move" name="top"/>
    </contour>
  </outline>
</glyph>
<glyph name="bp.util" format="1">
  <advance width="495"/>
  <outline>
    <contour>
      <point x="103" y="555"/>
      <point x="22" y="443"/>
      <point x="22" y="271" type="curve"/>
      <point x="22" y="102"/>
      <point x="106" y="-8"/>
      <point x="235" y="-8" type="curve" smooth="yes"/>
      <point x="384" y="-8"/>
      <point x="480" y="101"/>
      <point x="480" y="270" type="curve" smooth="yes"/>
      <point x="480" y="443"/>
      <point x="381" y="555"/>
      <point x="229" y="555" type="curve" smooth="yes"/>
    </contour>
    <contour>
      <point x="221" y="382"/>
      <point x="253" y="340"/>
      <point x="253" y="276" type="curve" smooth="yes"/>
      <point x="253" y="212"/>
      <point x="221" y="170"/>
      <point x="171" y="170" type="curve" smooth="yes"/>
      <point x="122" y="170"/>
      <point x="90" y="212"/>
      <point x="90" y="276" type="curve" smooth="yes"/>
      <point x="90" y="340"/>
      <point x="122" y="382"/>
      <point x="171" y="382" type="curve" smooth="yes"/>
    </contour>
  </outline>
</glyph>
<glyph name="dq.util" format="1">
  <advance width="495"/>
  <outline>
    <contour>
      <point x="111" y="555"/>
      <point x="15" y="446"/>
      <point x="15" y="277" type="curve" smooth="yes"/>
      <point x="15" y="104"/>
      <point x="114" y="-8"/>
      <point x="266" y="-8" type="curve" smooth="yes"/>
      <point x="392" y="-8"/>
      <point x="473" y="104"/>
      <point x="473" y="276" type="curve"/>
      <point x="473" y="445"/>
      <point x="389" y="555"/>
      <point x="260" y="555" type="curve" smooth="yes"/>
    </contour>
    <contour>
      <point x="373" y="377"/>
      <point x="405" y="335"/>
      <point x="405" y="271" type="curve" smooth="yes"/>
      <point x="405" y="207"/>
      <point x="373" y="165"/>
      <point x="324" y="165" type="curve" smooth="yes"/>
      <point x="274" y="165"/>
      <point x="242" y="207"/>
      <point x="242" y="271" type="curve" smooth="yes"/>
      <point x="242" y="335"/>
      <point x="274" y="377"/>
      <point x="324" y="377" type="curve" smooth="yes"/>
    </contour>
  </outline>
</glyph>
<glyph name="e.ss01" format="1">
  <advance width="618"/>
  <outline>
    <contour>
      <point x="204" y="203" type="line"/>
      <point x="598" y="278" type="line"/>
      <point x="598" y="449"/>
      <point x="484" y="555"/>
      <point x="309" y="555" type="curve" smooth="yes"/>
      <point x="130" y="555"/>
      <point x="15" y="443"/>
      <point x="15" y="270" type="curve" smooth="yes"/>
      <point x="15" y="102"/>
      <point x="135" y="-8"/>
      <point x="319" y="-8" type="curve" smooth="yes"/>
      <point x="428" y="-8"/>
      <point x="516" y="30"/>
      <point x="581" y="104" type="curve"/>
      <point x="456" y="216" type="line"/>
      <point x="418" y="179"/>
      <point x="376" y="158"/>
      <point x="337" y="158" type="curve" smooth="yes"/>
      <point x="278" y="158"/>
      <point x="241" y="206"/>
      <point x="241" y="284" type="curve" smooth="yes"/>
      <point x="241" y="360"/>
      <point x="269" y="405"/>
      <point x="317" y="405" type="curve" smooth="yes"/>
      <point x="348" y="405"/>
      <point x="371" y="383"/>
      <point x="375" y="344" type="curve"/>
      <point x="204" y="313" type="line"/>
    </contour>
    <contour>
      <point x="556" y="10" type="move" name="ogonek"/>
    </contour>
    <contour>
      <point x="309" y="0" type="move" name="bottom"/>
    </contour>
    <contour>
      <point x="309" y="547" type="move" name="top"/>
    </contour>
  </outline>
</glyph>
<glyph name="eight.dnom" format="1">
  <advance width="424"/>
  <outline>
    <contour>
      <point x="109" y="427"/>
      <point x="42" y="382"/>
      <point x="42" y="313" type="curve" smooth="yes"/>
      <point x="42" y="282"/>
      <point x="63" y="247"/>
      <point x="94" y="225" type="curve"/>
      <point x="48" y="204"/>
      <point x="18" y="161"/>
      <point x="18" y="117" type="curve" smooth="yes"/>
      <point x="18" y="43"/>
      <point x="94" y="-7"/>
      <point x="212" y="-7" type="curve" smooth="yes"/>
      <point x="330" y="-7"/>
      <point x="406" y="43"/>
      <point x="406" y="120" type="curve" smooth="yes"/>
      <point x="406" y="162"/>
      <point x="379" y="204"/>
      <point x="338" y="225" type="curve"/>
      <point x="364" y="245"/>
      <point x="382" y="278"/>
      <point x="382" y="308" type="curve" smooth="yes"/>
      <point x="382" y="380"/>
      <point x="315" y="427"/>
      <point x="211" y="427" type="curve" smooth="yes"/>
    </contour>
    <contour>
      <point x="243" y="166"/>
      <point x="259" y="155"/>
      <point x="259" y="133" type="curve" smooth="yes"/>
      <point x="259" y="111"/>
      <point x="243" y="101"/>
      <point x="212" y="101" type="curve" smooth="yes"/>
      <point x="181" y="101"/>
      <point x="166" y="111"/>
      <point x="166" y="133" type="curve" smooth="yes"/>
      <point x="166" y="155"/>
      <point x="181" y="166"/>
      <point x="212" y="166" type="curve" smooth="yes"/>
    </contour>
    <contour>
      <point x="238" y="330"/>
      <point x="251" y="320"/>
      <point x="251" y="300" type="curve" smooth="yes"/>
      <point x="251" y="282"/>
      <point x="238" y="273"/>
      <point x="212" y="273" type="curve" smooth="yes"/>
      <point x="186" y="273"/>
      <point x="173" y="282"/>
      <point x="173" y="300" type="curve" smooth="yes"/>
      <point x="173" y="320"/>
      <point x="186" y="330"/>
      <point x="212" y="330" type="curve" smooth="yes"/>
    </contour>
  </outline>
</glyph>
<glyph name="eight.numr" format="1">
  <advance width="424"/>
  <outline>
    <contour>
      <point x="109" y="707"/>
      <point x="42" y="662"/>
      <point x="42" y="593" type="curve" smooth="yes"/>
      <point x="42" y="562"/>
      <point x="63" y="527"/>
      <point x="94" y="505" type="curve"/>
      <point x="48" y="484"/>
      <point x="18" y="441"/>
      <point x="18" y="397" type="curve" smooth="yes"/>
      <point x="18" y="323"/>
      <point x="94" y="273"/>
      <point x="212" y="273" type="curve" smooth="yes"/>
      <point x="330" y="273"/>
      <point x="406" y="323"/>
      <point x="406" y="400" type="curve" smooth="yes"/>
      <point x="406" y="442"/>
      <point x="379" y="484"/>
      <point x="338" y="505" type="curve"/>
      <point x="364" y="525"/>
      <point x="382" y="558"/>
      <point x="382" y="588" type="curve" smooth="yes"/>
      <point x="382" y="660"/>
      <point x="315" y="707"/>
      <point x="211" y="707" type="curve" smooth="yes"/>
    </contour>
    <contour>
      <point x="243" y="446"/>
      <point x="259" y="435"/>
      <point x="259" y="413" type="curve" smooth="yes"/>
      <point x="259" y="391"/>
      <point x="243" y="381"/>
      <point x="212" y="381" type="curve" smooth="yes"/>
      <point x="181" y="381"/>
      <point x="166" y="391"/>
      <point x="166" y="413" type="curve" smooth="yes"/>
      <point x="166" y="435"/>
      <point x="181" y="446"/>
      <point x="212" y="446" type="curve" smooth="yes"/>
    </contour>
    <contour>
      <point x="238" y="610"/>
      <point x="251" y="600"/>
      <point x="251" y="580" type="curve" smooth="yes"/>
      <point x="251" y="562"/>
      <point x="238" y="553"/>
      <point x="212" y="553" type="curve" smooth="yes"/>
      <point x="186" y="553"/>
      <point x="173" y="562"/>
      <point x="173" y="580" type="curve" smooth="yes"/>
      <point x="173" y="600"/>
      <point x="186" y="610"/>
      <point x="212" y="610" type="curve" smooth="yes"/>
    </contour>
  </outline>
</glyph>
<glyph name="eight.ss01" format="1">
  <advance width="656"/>
  <outline>
    <contour>
      <point x="167" y="711"/>
      <point x="63" y="637"/>
      <point x="63" y="522" type="curve" smooth="yes"/>
      <point x="63" y="469"/>
      <point x="97" y="411"/>
      <point x="149" y="375" type="curve"/>
      <point x="74" y="341"/>
      <point x="25" y="270"/>
      <point x="25" y="195" type="curve" smooth="yes"/>
      <point x="25" y="71"/>
      <point x="144" y="-10"/>
      <point x="328" y="-10" type="curve" smooth="yes"/>
      <point x="512" y="-10"/>
      <point x="631" y="72"/>
      <point x="631" y="199" type="curve" smooth="yes"/>
      <point x="631" y="272"/>
      <point x="587" y="341"/>
      <point x="519" y="375" type="curve"/>
      <point x="564" y="407"/>
      <point x="593" y="462"/>
      <point x="593" y="515" type="curve" smooth="yes"/>
      <point x="593" y="634"/>
      <point x="489" y="711"/>
      <point x="327" y="711" type="curve" smooth="yes"/>
    </contour>
    <contour>
      <point x="384" y="284"/>
      <point x="413" y="262"/>
      <point x="413" y="219" type="curve" smooth="yes"/>
      <point x="413" y="177"/>
      <point x="384" y="156"/>
      <point x="328" y="156" type="curve" smooth="yes"/>
      <point x="272" y="156"/>
      <point x="244" y="177"/>
      <point x="244" y="219" type="curve" smooth="yes"/>
      <point x="244" y="262"/>
      <point x="272" y="284"/>
      <point x="328" y="284" type="curve" smooth="yes"/>
    </contour>
    <contour>
      <point x="375" y="560"/>
      <point x="399" y="541"/>
      <point x="399" y="503" type="curve" smooth="yes"/>
      <point x="399" y="467"/>
      <point x="375" y="449"/>
      <point x="328" y="449" type="curve" smooth="yes"/>
      <point x="281" y="449"/>
      <point x="257" y="467"/>
      <point x="257" y="503" type="curve" smooth="yes"/>
      <point x="257" y="541"/>
      <point x="281" y="560"/>
      <point x="328" y="560" type="curve" smooth="yes"/>
    </contour>
  </outline>
</glyph>
<glyph name="eogonek.ss01" format="1">
  <advance width="618"/>
  <outline>
    <contour>
      <point x="278" y="158"/>
      <point x="241" y="206"/>
      <point x="241" y="284" type="curve" smooth="yes"/>
      <point x="241" y="360"/>
      <point x="269" y="405"/>
      <point x="317" y="405" type="curve" smooth="yes"/>
      <point x="348" y="405"/>
      <point x="371" y="383"/>
      <point x="375" y="344" type="curve"/>
      <point x="204" y="313" type="line"/>
      <point x="204" y="203" type="line"/>
      <point x="598" y="278" type="line"/>
      <point x="598" y="449"/>
      <point x="484" y="555"/>
      <point x="309" y="555" type="curve" smooth="yes"/>
      <point x="130" y="555"/>
      <point x="15" y="443"/>
      <point x="15" y="270" type="curve" smooth="yes"/>
      <point x="15" y="102"/>
      <point x="135" y="-8"/>
      <point x="319" y="-8" type="curve"/>
      <point x="343" y="-8"/>
      <point x="368" y="-3"/>
      <point x="391" y="5" type="curve"/>
      <point x="364" y="-32"/>
      <point x="343" y="-74"/>
      <point x="343" y="-116" type="curve" smooth="yes"/>
      <point x="343" y="-185"/>
      <point x="397" y="-204"/>
      <point x="439" y="-204" type="curve" smooth="yes"/>
      <point x="488" y="-204"/>
      <point x="530" y="-179"/>
      <point x="558" y="-128" type="curve"/>
      <point x="503" y="-64" type="line"/>
      <point x="492" y="-83"/>
      <point x="480" y="-94"/>
      <point x="467" y="-94" type="curve" smooth="yes"/>
      <point x="459" y="-94"/>
      <point x="453" y="-89"/>
      <point x="453" y="-79" type="curve" smooth="yes"/>
      <point x="453" y="-32"/>
      <point x="533" y="55"/>
      <point x="567" y="92" type="curve"/>
      <point x="450" y="207" type="line"/>
      <point x="416" y="175"/>
      <point x="375" y="158"/>
      <point x="337" y="158" type="curve"/>
    </contour>
  </outline>
</glyph>
<glyph name="fi.ss01" format="1">
  <advance width="711"/>
  <outline>
    <contour>
      <point x="134" y="753"/>
      <point x="45" y="680"/>
      <point x="45" y="566" type="curve"/>
      <point x="45" y="0" type="line"/>
      <point x="269" y="0" type="line"/>
      <point x="269" y="532" type="line"/>
      <point x="269" y="561"/>
      <point x="289" y="579"/>
      <point x="321" y="578" type="curve"/>
      <point x="337" y="578"/>
      <point x="359" y="571"/>
      <point x="376" y="559" type="curve"/>
      <point x="383" y="736" type="line"/>
      <point x="355" y="746"/>
      <point x="311" y="752"/>
      <point x="272" y="752" type="curve"/>
    </contour>
    <contour>
      <point x="70" y="517" type="line"/>
      <point x="70" y="375" type="line"/>
      <point x="375" y="375" type="line"/>
      <point x="375" y="517" type="line"/>
    </contour>
    <component base="i" xOffset="376"/>
  </outline>
</glyph>
<glyph name="five.dnom" format="1">
  <advance width="396"/>
  <outline>
    <contour>
      <point x="359" y="421" type="line"/>
      <point x="45" y="421" type="line"/>
      <point x="45" y="164" type="line"/>
      <point x="70" y="163"/>
      <point x="152" y="162"/>
      <point x="170" y="162" type="curve"/>
      <point x="198" y="162"/>
      <point x="211" y="153"/>
      <point x="211" y="134" type="curve"/>
      <point x="211" y="113"/>
      <point x="198" y="104"/>
      <point x="171" y="104" type="curve"/>
      <point x="132" y="104"/>
      <point x="97" y="124"/>
      <point x="66" y="165" type="curve"/>
      <point x="4" y="50" type="line"/>
      <point x="53" y="16"/>
      <point x="126" y="-7"/>
      <point x="190" y="-7" type="curve"/>
      <point x="305" y="-7"/>
      <point x="380" y="53"/>
      <point x="380" y="144" type="curve"/>
      <point x="380" y="222"/>
      <point x="310" y="271"/>
      <point x="202" y="271" type="curve"/>
      <point x="201" y="271"/>
      <point x="189" y="272"/>
      <point x="188" y="273" type="curve"/>
      <point x="188" y="306" type="line"/>
      <point x="359" y="306" type="line"/>
    </contour>
  </outline>
</glyph>
<glyph name="five.numr" format="1">
  <advance width="396"/>
  <outline>
    <contour>
      <point x="359" y="701" type="line"/>
      <point x="45" y="701" type="line"/>
      <point x="45" y="444" type="line"/>
      <point x="70" y="443"/>
      <point x="152" y="442"/>
      <point x="170" y="442" type="curve"/>
      <point x="198" y="442"/>
      <point x="211" y="433"/>
      <point x="211" y="414" type="curve"/>
      <point x="211" y="393"/>
      <point x="198" y="384"/>
      <point x="171" y="384" type="curve"/>
      <point x="132" y="384"/>
      <point x="97" y="404"/>
      <point x="66" y="445" type="curve"/>
      <point x="4" y="330" type="line"/>
      <point x="53" y="296"/>
      <point x="126" y="273"/>
      <point x="190" y="273" type="curve"/>
      <point x="305" y="273"/>
      <point x="380" y="333"/>
      <point x="380" y="424" type="curve"/>
      <point x="380" y="502"/>
      <point x="310" y="551"/>
      <point x="202" y="551" type="curve"/>
      <point x="201" y="551"/>
      <point x="189" y="552"/>
      <point x="188" y="553" type="curve"/>
      <point x="188" y="586" type="line"/>
      <point x="359" y="586" type="line"/>
    </contour>
  </outline>
</glyph>
<glyph name="five.ss01" format="1">
  <advance width="611"/>
  <outline>
    <contour>
      <point x="67" y="601" type="line"/>
      <point x="67" y="180" type="line"/>
      <point x="107" y="180"/>
      <point x="233" y="180"/>
      <point x="264" y="180" type="curve" smooth="yes"/>
      <point x="314" y="180"/>
      <point x="339" y="161"/>
      <point x="339" y="123" type="curve" smooth="yes"/>
      <point x="339" y="82"/>
      <point x="314" y="61"/>
      <point x="264" y="61" type="curve" smooth="yes"/>
      <point x="202" y="61"/>
      <point x="145" y="94"/>
      <point x="95" y="159" type="curve"/>
      <point x="3" y="-17" type="line"/>
      <point x="80" y="-73"/>
      <point x="193" y="-110"/>
      <point x="292" y="-110" type="curve" smooth="yes"/>
      <point x="472" y="-110"/>
      <point x="589" y="-12"/>
      <point x="589" y="139" type="curve" smooth="yes"/>
      <point x="589" y="267"/>
      <point x="479" y="349"/>
      <point x="310" y="349" type="curve" smooth="yes"/>
      <point x="306" y="349"/>
      <point x="283" y="349"/>
      <point x="279" y="349" type="curve"/>
      <point x="279" y="423" type="line"/>
      <point x="556" y="423" type="line"/>
      <point x="556" y="601" type="line"/>
    </contour>
  </outline>
</glyph>
<glyph name="fl.ss01" format="1">
  <advance width="800"/>
  <outline>
    <contour>
      <point x="792" y="95" type="line"/>
      <point x="775" y="87"/>
      <point x="758" y="82"/>
      <point x="742" y="82" type="curve" smooth="yes"/>
      <point x="716" y="82"/>
      <point x="696" y="96"/>
      <point x="696" y="132" type="curve" smooth="yes"/>
      <point x="696" y="523" type="line" smooth="yes"/>
      <point x="696" y="662"/>
      <point x="580" y="752"/>
      <point x="401" y="752" type="curve" smooth="yes"/>
      <point x="215" y="752"/>
      <point x="95" y="675"/>
      <point x="95" y="556" type="curve" smooth="yes"/>
      <point x="95" y="477" type="line"/>
      <point x="20" y="477" type="line"/>
      <point x="20" y="335" type="line"/>
      <point x="95" y="335" type="line"/>
      <point x="95" y="0" type="line"/>
      <point x="319" y="0" type="line"/>
      <point x="319" y="335" type="line"/>
      <point x="405" y="335" type="line"/>
      <point x="405" y="477" type="line"/>
      <point x="319" y="477" type="line"/>
      <point x="319" y="522" type="line" smooth="yes"/>
      <point x="319" y="557"/>
      <point x="348" y="579"/>
      <point x="392" y="578" type="curve" smooth="yes"/>
      <point x="439" y="578"/>
      <point x="471" y="556"/>
      <point x="471" y="523" type="curve" smooth="yes"/>
      <point x="471" y="127" type="line" smooth="yes"/>
      <point x="471" y="-38"/>
      <point x="580" y="-111"/>
      <point x="699" y="-111" type="curve" smooth="yes"/>
      <point x="734" y="-111"/>
      <point x="771" y="-104"/>
      <point x="805" y="-92" type="curve"/>
    </contour>
    <contour>
      <point x="613" y="447" type="move" name="top"/>
    </contour>
    <contour>
      <point x="613" y="-100" type="move" name="bottom"/>
    </contour>
    <contour>
      <point x="780" y="447" type="move" name="topright"/>
    </contour>
  </outline>
</glyph>
<glyph name="four.dnom" format="1">
  <advance width="432"/>
  <outline>
    <contour>
      <point x="294" y="421" type="line"/>
      <point x="145" y="421" type="line"/>
      <point x="19" y="175" type="line"/>
      <point x="19" y="77" type="line"/>
      <point x="227" y="77" type="line"/>
      <point x="227" y="0" type="line"/>
      <point x="372" y="0" type="line"/>
      <point x="372" y="77" type="line"/>
      <point x="427" y="77" type="line"/>
      <point x="427" y="184" type="line"/>
      <point x="372" y="184" type="line"/>
      <point x="372" y="260" type="line"/>
      <point x="227" y="260" type="line"/>
      <point x="227" y="184" type="line"/>
      <point x="178" y="184" type="line"/>
    </contour>
  </outline>
</glyph>
<glyph name="four.numr" format="1">
  <advance width="432"/>
  <outline>
    <contour>
      <point x="294" y="701" type="line"/>
      <point x="145" y="701" type="line"/>
      <point x="19" y="455" type="line"/>
      <point x="19" y="357" type="line"/>
      <point x="227" y="357" type="line"/>
      <point x="227" y="280" type="line"/>
      <point x="372" y="280" type="line"/>
      <point x="372" y="357" type="line"/>
      <point x="427" y="357" type="line"/>
      <point x="427" y="464" type="line"/>
      <point x="372" y="464" type="line"/>
      <point x="372" y="540" type="line"/>
      <point x="227" y="540" type="line"/>
      <point x="227" y="464" type="line"/>
      <point x="178" y="464" type="line"/>
    </contour>
  </outline>
</glyph>
<glyph name="four.ss01" format="1">
  <advance width="664"/>
  <outline>
    <contour>
      <point x="230" y="601" type="line"/>
      <point x="25" y="187" type="line"/>
      <point x="25" y="35" type="line"/>
      <point x="355" y="35" type="line"/>
      <point x="355" y="-100" type="line"/>
      <point x="570" y="-100" type="line"/>
      <point x="570" y="35" type="line"/>
      <point x="659" y="35" type="line"/>
      <point x="659" y="201" type="line"/>
      <point x="570" y="201" type="line"/>
      <point x="570" y="335" type="line"/>
      <point x="355" y="335" type="line"/>
      <point x="355" y="201" type="line"/>
      <point x="260" y="201" type="line"/>
      <point x="451" y="601" type="line"/>
    </contour>
  </outline>
</glyph>
<glyph name="g.ss01" format="1">
  <advance width="653"/>
  <outline>
    <contour>
      <point x="376" y="547" type="line"/>
      <point x="376" y="39" type="line" smooth="yes"/>
      <point x="376" y="-3"/>
      <point x="338" y="-30"/>
      <point x="279" y="-30" type="curve" smooth="yes"/>
      <point x="220" y="-30"/>
      <point x="162" y="-6"/>
      <point x="118" y="33" type="curve"/>
      <point x="23" y="-86" type="line"/>
      <point x="83" y="-162"/>
      <point x="190" y="-204"/>
      <point x="289" y="-204" type="curve" smooth="yes"/>
      <point x="478" y="-204"/>
      <point x="600" y="-107"/>
      <point x="600" y="45" type="curve" smooth="yes"/>
      <point x="600" y="547" type="line"/>
    </contour>
    <contour>
      <point x="104" y="554"/>
      <point x="15" y="453"/>
      <point x="15" y="297" type="curve" smooth="yes"/>
      <point x="15" y="136"/>
      <point x="107" y="33"/>
      <point x="248" y="33" type="curve" smooth="yes"/>
      <point x="364" y="33"/>
      <point x="439" y="136"/>
      <point x="439" y="296" type="curve"/>
      <point x="439" y="453"/>
      <point x="362" y="554"/>
      <point x="242" y="554" type="curve" smooth="yes"/>
    </contour>
    <contour>
      <point x="347" y="389"/>
      <point x="376" y="351"/>
      <point x="376" y="291" type="curve" smooth="yes"/>
      <point x="376" y="232"/>
      <point x="347" y="193"/>
      <point x="301" y="193" type="curve" smooth="yes"/>
      <point x="255" y="193"/>
      <point x="225" y="232"/>
      <point x="225" y="291" type="curve" smooth="yes"/>
      <point x="225" y="351"/>
      <point x="255" y="389"/>
      <point x="301" y="389" type="curve" smooth="yes"/>
    </contour>
    <contour>
      <point x="320" y="547" type="move" name="top"/>
    </contour>
  </outline>
</glyph>
<glyph name="k.util" format="1">
  <advance width="662"/>
  <outline>
    <contour>
      <point x="412" y="547" type="line"/>
      <point x="275" y="394" type="line"/>
      <point x="275" y="133" type="line"/>
      <point x="666" y="547" type="line"/>
    </contour>
    <contour>
      <point x="287" y="224" type="line"/>
      <point x="396" y="0" type="line"/>
      <point x="663" y="0" type="line"/>
      <point x="453" y="360" type="line"/>
    </contour>
    <contour>
      <point x="331" y="0" type="move" name="bottom"/>
    </contour>
  </outline>
</glyph>
<glyph name="l.ss01" format="1">
  <advance width="374"/>
  <outline>
    <contour>
      <point x="45" y="227" type="line" smooth="yes"/>
      <point x="45" y="62"/>
      <point x="154" y="-11"/>
      <point x="273" y="-11" type="curve" smooth="yes"/>
      <point x="308" y="-11"/>
      <point x="345" y="-4"/>
      <point x="379" y="8" type="curve"/>
      <point x="366" y="195" type="line"/>
      <point x="349" y="187"/>
      <point x="332" y="182"/>
      <point x="316" y="182" type="curve" smooth="yes"/>
      <point x="290" y="182"/>
      <point x="270" y="196"/>
      <point x="270" y="232" type="curve" smooth="yes"/>
      <point x="270" y="742" type="line"/>
      <point x="45" y="742" type="line"/>
    </contour>
    <contour>
      <point x="187" y="547" type="move" name="top"/>
    </contour>
    <contour>
      <point x="187" y="0" type="move" name="bottom"/>
    </contour>
    <contour>
      <point x="354" y="547" type="move" name="topright"/>
    </contour>
  </outline>
</glyph>
<glyph name="n.util" format="1">
  <advance width="670"/>
  <outline>
    <contour>
      <point x="299" y="557"/>
      <point x="218" y="445"/>
      <point x="218" y="271" type="curve"/>
      <point x="268" y="271" type="line"/>
      <point x="268" y="324"/>
      <point x="296" y="359"/>
      <point x="340" y="359" type="curve" smooth="yes"/>
      <point x="379" y="359"/>
      <point x="405" y="330"/>
      <point x="405" y="284" type="curve" smooth="yes"/>
      <point x="405" y="0" type="line"/>
      <point x="630" y="0" type="line"/>
      <point x="630" y="349" type="line" smooth="yes"/>
      <point x="630" y="475"/>
      <point x="549" y="557"/>
      <point x="434" y="557" type="curve" smooth="yes"/>
    </contour>
    <contour>
      <point x="335" y="0" type="move" name="bottom"/>
    </contour>
    <contour>
      <point x="335" y="547" type="move" name="top"/>
    </contour>
  </outline>
</glyph>
<glyph name="nine.dnom" format="1">
  <advance width="419"/>
  <outline>
    <contour>
      <point x="307" y="-7"/>
      <point x="394" y="80"/>
      <point x="394" y="214" type="curve" smooth="yes"/>
      <point x="394" y="343"/>
      <point x="317" y="427"/>
      <point x="191" y="427" type="curve" smooth="yes"/>
      <point x="85" y="427"/>
      <point x="15" y="369"/>
      <point x="15" y="278" type="curve" smooth="yes"/>
      <point x="15" y="195"/>
      <point x="72" y="138"/>
      <point x="158" y="138" type="curve" smooth="yes"/>
      <point x="198" y="138"/>
      <point x="226" y="150"/>
      <point x="245" y="162" type="curve"/>
      <point x="244" y="125"/>
      <point x="217" y="109"/>
      <point x="165" y="109" type="curve" smooth="yes"/>
      <point x="130" y="109"/>
      <point x="101" y="118"/>
      <point x="78" y="136" type="curve"/>
      <point x="19" y="32" type="line"/>
      <point x="57" y="8"/>
      <point x="118" y="-7"/>
      <point x="174" y="-7" type="curve" smooth="yes"/>
    </contour>
    <contour>
      <point x="171" y="247"/>
      <point x="160" y="257"/>
      <point x="160" y="277" type="curve" smooth="yes"/>
      <point x="160" y="299"/>
      <point x="171" y="308"/>
      <point x="196" y="308" type="curve" smooth="yes"/>
      <point x="220" y="308"/>
      <point x="232" y="301"/>
      <point x="232" y="277" type="curve"/>
      <point x="232" y="255"/>
      <point x="220" y="247"/>
      <point x="196" y="247" type="curve" smooth="yes"/>
    </contour>
  </outline>
</glyph>
<glyph name="nine.numr" format="1">
  <advance width="419"/>
  <outline>
    <contour>
      <point x="307" y="273"/>
      <point x="394" y="360"/>
      <point x="394" y="494" type="curve" smooth="yes"/>
      <point x="394" y="623"/>
      <point x="317" y="707"/>
      <point x="191" y="707" type="curve" smooth="yes"/>
      <point x="85" y="707"/>
      <point x="15" y="649"/>
      <point x="15" y="558" type="curve" smooth="yes"/>
      <point x="15" y="475"/>
      <point x="72" y="418"/>
      <point x="158" y="418" type="curve" smooth="yes"/>
      <point x="198" y="418"/>
      <point x="226" y="430"/>
      <point x="245" y="442" type="curve"/>
      <point x="244" y="405"/>
      <point x="217" y="389"/>
      <point x="165" y="389" type="curve" smooth="yes"/>
      <point x="130" y="389"/>
      <point x="101" y="398"/>
      <point x="78" y="416" type="curve"/>
      <point x="19" y="312" type="line"/>
      <point x="57" y="288"/>
      <point x="118" y="273"/>
      <point x="174" y="273" type="curve" smooth="yes"/>
    </contour>
    <contour>
      <point x="171" y="527"/>
      <point x="160" y="537"/>
      <point x="160" y="557" type="curve" smooth="yes"/>
      <point x="160" y="579"/>
      <point x="171" y="588"/>
      <point x="196" y="588" type="curve" smooth="yes"/>
      <point x="220" y="588"/>
      <point x="232" y="581"/>
      <point x="232" y="557" type="curve"/>
      <point x="232" y="535"/>
      <point x="220" y="527"/>
      <point x="196" y="527" type="curve" smooth="yes"/>
    </contour>
  </outline>
</glyph>
<glyph name="one.dnom" format="1">
  <advance width="286"/>
  <outline>
    <contour>
      <point x="236" y="421" type="line"/>
      <point x="4" y="421" type="line"/>
      <point x="4" y="302" type="line"/>
      <point x="80" y="302" type="line"/>
      <point x="80" y="0" type="line"/>
      <point x="236" y="0" type="line"/>
    </contour>
  </outline>
</glyph>
<glyph name="one.numr" format="1">
  <advance width="286"/>
  <outline>
    <contour>
      <point x="236" y="701" type="line"/>
      <point x="4" y="701" type="line"/>
      <point x="4" y="582" type="line"/>
      <point x="80" y="582" type="line"/>
      <point x="80" y="280" type="line"/>
      <point x="236" y="280" type="line"/>
    </contour>
  </outline>
</glyph>
<glyph name="one.ss01" format="1">
  <advance width="435"/>
  <outline>
    <contour>
      <point x="2" y="601" type="line"/>
      <point x="2" y="418" type="line"/>
      <point x="124" y="418" type="line"/>
      <point x="124" y="0" type="line"/>
      <point x="356" y="0" type="line"/>
      <point x="356" y="601" type="line"/>
    </contour>
  </outline>
</glyph>
<glyph name="seven.dnom" format="1">
  <advance width="401"/>
  <outline>
    <contour>
      <point x="393" y="421" type="line"/>
      <point x="22" y="421" type="line"/>
      <point x="22" y="248" type="line"/>
      <point x="159" y="248" type="line"/>
      <point x="159" y="306" type="line"/>
      <point x="220" y="306" type="line"/>
      <point x="79" y="0" type="line"/>
      <point x="244" y="0" type="line"/>
      <point x="393" y="321" type="line"/>
    </contour>
  </outline>
</glyph>
<glyph name="seven.numr" format="1">
  <advance width="401"/>
  <outline>
    <contour>
      <point x="393" y="701" type="line"/>
      <point x="22" y="701" type="line"/>
      <point x="22" y="528" type="line"/>
      <point x="159" y="528" type="line"/>
      <point x="159" y="586" type="line"/>
      <point x="220" y="586" type="line"/>
      <point x="79" y="280" type="line"/>
      <point x="244" y="280" type="line"/>
      <point x="393" y="601" type="line"/>
    </contour>
  </outline>
</glyph>
<glyph name="seven.ss01" format="1">
  <advance width="617"/>
  <outline>
    <contour>
      <point x="29" y="601" type="line"/>
      <point x="29" y="325" type="line"/>
      <point x="233" y="325" type="line"/>
      <point x="233" y="423" type="line"/>
      <point x="353" y="423" type="line"/>
      <point x="122" y="-100" type="line"/>
      <point x="367" y="-100" type="line"/>
      <point x="608" y="446" type="line"/>
      <point x="608" y="601" type="line"/>
    </contour>
  </outline>
</glyph>
<glyph name="six.dnom" format="1">
  <advance width="419"/>
  <outline>
    <contour>
      <point x="112" y="427"/>
      <point x="25" y="340"/>
      <point x="25" y="206" type="curve" smooth="yes"/>
      <point x="25" y="77"/>
      <point x="102" y="-7"/>
      <point x="228" y="-7" type="curve" smooth="yes"/>
      <point x="334" y="-7"/>
      <point x="404" y="52"/>
      <point x="404" y="143" type="curve" smooth="yes"/>
      <point x="404" y="225"/>
      <point x="347" y="282"/>
      <point x="261" y="282" type="curve" smooth="yes"/>
      <point x="221" y="282"/>
      <point x="193" y="271"/>
      <point x="174" y="258" type="curve"/>
      <point x="175" y="295"/>
      <point x="202" y="312"/>
      <point x="254" y="312" type="curve" smooth="yes"/>
      <point x="289" y="312"/>
      <point x="318" y="303"/>
      <point x="341" y="284" type="curve"/>
      <point x="400" y="389" type="line"/>
      <point x="362" y="412"/>
      <point x="300" y="427"/>
      <point x="245" y="427" type="curve" smooth="yes"/>
    </contour>
    <contour>
      <point x="248" y="174"/>
      <point x="259" y="164"/>
      <point x="259" y="144" type="curve" smooth="yes"/>
      <point x="259" y="122"/>
      <point x="248" y="113"/>
      <point x="223" y="113" type="curve" smooth="yes"/>
      <point x="199" y="113"/>
      <point x="187" y="120"/>
      <point x="187" y="143" type="curve"/>
      <point x="187" y="165"/>
      <point x="199" y="174"/>
      <point x="223" y="174" type="curve" smooth="yes"/>
    </contour>
  </outline>
</glyph>
<glyph name="six.numr" format="1">
  <advance width="419"/>
  <outline>
    <contour>
      <point x="112" y="707"/>
      <point x="25" y="620"/>
      <point x="25" y="486" type="curve" smooth="yes"/>
      <point x="25" y="357"/>
      <point x="102" y="273"/>
      <point x="228" y="273" type="curve" smooth="yes"/>
      <point x="334" y="273"/>
      <point x="404" y="332"/>
      <point x="404" y="423" type="curve" smooth="yes"/>
      <point x="404" y="505"/>
      <point x="347" y="562"/>
      <point x="261" y="562" type="curve" smooth="yes"/>
      <point x="221" y="562"/>
      <point x="193" y="551"/>
      <point x="174" y="538" type="curve"/>
      <point x="175" y="575"/>
      <point x="202" y="592"/>
      <point x="254" y="592" type="curve" smooth="yes"/>
      <point x="289" y="592"/>
      <point x="318" y="583"/>
      <point x="341" y="564" type="curve"/>
      <point x="400" y="669" type="line"/>
      <point x="362" y="692"/>
      <point x="300" y="707"/>
      <point x="245" y="707" type="curve" smooth="yes"/>
    </contour>
    <contour>
      <point x="248" y="454"/>
      <point x="259" y="444"/>
      <point x="259" y="424" type="curve" smooth="yes"/>
      <point x="259" y="402"/>
      <point x="248" y="393"/>
      <point x="223" y="393" type="curve" smooth="yes"/>
      <point x="199" y="393"/>
      <point x="187" y="400"/>
      <point x="187" y="423" type="curve"/>
      <point x="187" y="445"/>
      <point x="199" y="454"/>
      <point x="223" y="454" type="curve" smooth="yes"/>
    </contour>
  </outline>
</glyph>
<glyph name="t.ss01" format="1">
  <advance width="422"/>
  <outline>
    <contour>
      <point x="45" y="670" type="line"/>
      <point x="45" y="176" type="line"/>
      <point x="45" y="62"/>
      <point x="126" y="-11"/>
      <point x="251" y="-10" type="curve"/>
      <point x="309" y="-10"/>
      <point x="371" y="3"/>
      <point x="407" y="24" type="curve"/>
      <point x="369" y="178" type="line"/>
      <point x="348" y="170"/>
      <point x="326" y="164"/>
      <point x="313" y="164" type="curve"/>
      <point x="286" y="163"/>
      <point x="269" y="181"/>
      <point x="269" y="210" type="curve"/>
      <point x="269" y="670" type="line"/>
    </contour>
    <contour>
      <point x="70" y="517" type="line"/>
      <point x="70" y="375" type="line"/>
      <point x="397" y="375" type="line"/>
      <point x="397" y="517" type="line"/>
    </contour>
    <contour>
      <point x="192" y="274" type="move" name="center"/>
    </contour>
    <contour>
      <point x="212" y="0" type="move" name="bottom"/>
    </contour>
  </outline>
</glyph>
<glyph name="three.dnom" format="1">
  <advance width="374"/>
  <outline>
    <contour>
      <point x="249" y="256" type="line"/>
      <point x="340" y="335" type="line"/>
      <point x="340" y="419" type="line"/>
      <point x="22" y="419" type="line"/>
      <point x="22" y="311" type="line"/>
      <point x="164" y="311" type="line"/>
      <point x="86" y="243" type="line"/>
      <point x="86" y="165" type="line"/>
      <point x="168" y="165" type="line" smooth="yes"/>
      <point x="194" y="165"/>
      <point x="207" y="155"/>
      <point x="207" y="134" type="curve" smooth="yes"/>
      <point x="207" y="113"/>
      <point x="194" y="104"/>
      <point x="168" y="104" type="curve" smooth="yes"/>
      <point x="130" y="104"/>
      <point x="94" y="124"/>
      <point x="61" y="165" type="curve"/>
      <point x="-1" y="51" type="line"/>
      <point x="42" y="16"/>
      <point x="113" y="-7"/>
      <point x="181" y="-7" type="curve" smooth="yes"/>
      <point x="290" y="-7"/>
      <point x="360" y="52"/>
      <point x="360" y="134" type="curve" smooth="yes"/>
      <point x="360" y="197"/>
      <point x="320" y="238"/>
      <point x="268" y="251" type="curve" smooth="yes"/>
    </contour>
  </outline>
</glyph>
<glyph name="three.ss01" format="1">
  <advance width="575"/>
  <outline>
    <contour>
      <point x="373" y="324" type="line"/>
      <point x="524" y="469" type="line"/>
      <point x="524" y="599" type="line"/>
      <point x="30" y="599" type="line"/>
      <point x="30" y="431" type="line"/>
      <point x="263" y="431" type="line" smooth="yes"/>
      <point x="130" y="304" type="line"/>
      <point x="130" y="183" type="line"/>
      <point x="257" y="183" type="line" smooth="yes"/>
      <point x="305" y="183"/>
      <point x="329" y="163"/>
      <point x="329" y="122" type="curve" smooth="yes"/>
      <point x="329" y="81"/>
      <point x="305" y="61"/>
      <point x="257" y="61" type="curve" smooth="yes"/>
      <point x="196" y="61"/>
      <point x="138" y="94"/>
      <point x="85" y="159" type="curve"/>
      <point x="-7" y="-17" type="line"/>
      <point x="61" y="-73"/>
      <point x="171" y="-110"/>
      <point x="276" y="-110" type="curve" smooth="yes"/>
      <point x="446" y="-110"/>
      <point x="556" y="-14"/>
      <point x="556" y="123" type="curve" smooth="yes"/>
      <point x="556" y="228"/>
      <point x="491" y="296"/>
      <point x="403" y="317" type="curve" smooth="yes"/>
    </contour>
  </outline>
</glyph>
<glyph name="two.dnom" format="1">
  <advance width="394"/>
  <outline>
    <contour>
      <point x="140" y="427"/>
      <point x="74" y="402"/>
      <point x="9" y="360" type="curve"/>
      <point x="67" y="252" type="line"/>
      <point x="110" y="285"/>
      <point x="154" y="306"/>
      <point x="186" y="306" type="curve"/>
      <point x="201" y="306"/>
      <point x="209" y="301"/>
      <point x="209" y="290" type="curve"/>
      <point x="209" y="277"/>
      <point x="195" y="258"/>
      <point x="180" y="242" type="curve" smooth="yes"/>
      <point x="28" y="93" type="line"/>
      <point x="28" y="0" type="line"/>
      <point x="377" y="0" type="line"/>
      <point x="377" y="115" type="line"/>
      <point x="228" y="115" type="line"/>
      <point x="286" y="169" type="line" smooth="yes"/>
      <point x="336" y="216"/>
      <point x="373" y="262"/>
      <point x="373" y="312" type="curve"/>
      <point x="373" y="381"/>
      <point x="303" y="427"/>
      <point x="211" y="427" type="curve"/>
    </contour>
  </outline>
</glyph>
<glyph name="two.numr" format="1">
  <advance width="394"/>
  <outline>
    <contour>
      <point x="140" y="707"/>
      <point x="74" y="682"/>
      <point x="9" y="640" type="curve"/>
      <point x="67" y="532" type="line"/>
      <point x="110" y="565"/>
      <point x="154" y="586"/>
      <point x="186" y="586" type="curve"/>
      <point x="201" y="586"/>
      <point x="209" y="581"/>
      <point x="209" y="570" type="curve"/>
      <point x="209" y="557"/>
      <point x="195" y="538"/>
      <point x="180" y="522" type="curve" smooth="yes"/>
      <point x="28" y="373" type="line"/>
      <point x="28" y="280" type="line"/>
      <point x="377" y="280" type="line"/>
      <point x="377" y="395" type="line"/>
      <point x="228" y="395" type="line"/>
      <point x="286" y="449" type="line" smooth="yes"/>
      <point x="336" y="496"/>
      <point x="373" y="542"/>
      <point x="373" y="592" type="curve"/>
      <point x="373" y="661"/>
      <point x="303" y="707"/>
      <point x="211" y="707" type="curve"/>
    </contour>
  </outline>
</glyph>
<glyph name="two.ss01" format="1">
  <advance width="552"/>
  <outline>
    <contour>
      <point x="196" y="609"/>
      <point x="104" y="573"/>
      <point x="11" y="512" type="curve"/>
      <point x="96" y="345" type="line"/>
      <point x="158" y="392"/>
      <point x="217" y="423"/>
      <point x="261" y="423" type="curve" smooth="yes"/>
      <point x="275" y="423"/>
      <point x="282" y="418"/>
      <point x="282" y="408" type="curve" smooth="yes"/>
      <point x="282" y="393"/>
      <point x="265" y="370"/>
      <point x="247" y="351" type="curve" smooth="yes"/>
      <point x="39" y="143" type="line"/>
      <point x="39" y="0" type="line"/>
      <point x="528" y="0" type="line"/>
      <point x="528" y="177" type="line"/>
      <point x="335" y="177" type="line"/>
      <point x="405" y="238" type="line"/>
      <point x="473" y="304"/>
      <point x="525" y="370"/>
      <point x="525" y="443" type="curve" smooth="yes"/>
      <point x="525" y="542"/>
      <point x="426" y="609"/>
      <point x="298" y="609" type="curve" smooth="yes"/>
    </contour>
  </outline>
</glyph>
<glyph name="w.ss01" format="1">
  <advance width="988"/>
  <outline>
    <contour>
      <point x="726" y="547" type="line"/>
      <point x="726" y="254" type="line" smooth="yes"/>
      <point x="726" y="212"/>
      <point x="702" y="184"/>
      <point x="668" y="184" type="curve" smooth="yes"/>
      <point x="630" y="184"/>
      <point x="604" y="212"/>
      <point x="604" y="254" type="curve" smooth="yes"/>
      <point x="604" y="547" type="line"/>
      <point x="382" y="547" type="line"/>
      <point x="382" y="254" type="line" smooth="yes"/>
      <point x="382" y="212"/>
      <point x="359" y="184"/>
      <point x="324" y="184" type="curve" smooth="yes"/>
      <point x="287" y="184"/>
      <point x="262" y="212"/>
      <point x="262" y="254" type="curve" smooth="yes"/>
      <point x="262" y="547" type="line"/>
      <point x="40" y="547" type="line"/>
      <point x="40" y="244" type="line" smooth="yes"/>
      <point x="40" y="92"/>
      <point x="140" y="-10"/>
      <point x="288" y="-10" type="curve" smooth="yes"/>
      <point x="365" y="-10"/>
      <point x="450" y="31"/>
      <point x="494" y="92" type="curve"/>
      <point x="541" y="31"/>
      <point x="627" y="-10"/>
      <point x="704" y="-10" type="curve" smooth="yes"/>
      <point x="850" y="-10"/>
      <point x="948" y="92"/>
      <point x="948" y="244" type="curve" smooth="yes"/>
      <point x="948" y="547" type="line"/>
    </contour>
    <contour>
      <point x="494" y="547" type="move" name="top"/>
    </contour>
  </outline>
</glyph>
<glyph name="y.ss01" format="1">
  <advance width="679"/>
  <outline>
    <contour>
      <point x="365" y="45"/>
      <point x="452" y="157"/>
      <point x="452" y="331" type="curve"/>
      <point x="402" y="331" type="line"/>
      <point x="402" y="278"/>
      <point x="374" y="243"/>
      <point x="330" y="243" type="curve" smooth="yes"/>
      <point x="291" y="243"/>
      <point x="265" y="272"/>
      <point x="265" y="318" type="curve" smooth="yes"/>
      <point x="265" y="547" type="line"/>
      <point x="40" y="547" type="line"/>
      <point x="40" y="253" type="line" smooth="yes"/>
      <point x="40" y="127"/>
      <point x="115" y="45"/>
      <point x="231" y="45" type="curve" smooth="yes"/>
    </contour>
    <contour>
      <point x="402" y="547" type="line"/>
      <point x="402" y="59" type="line"/>
      <point x="402" y="8"/>
      <point x="358" y="-29"/>
      <point x="298" y="-29" type="curve" smooth="yes"/>
      <point x="249" y="-29"/>
      <point x="174" y="-10"/>
      <point x="121" y="16" type="curve"/>
      <point x="69" y="-139" type="line"/>
      <point x="135" y="-176"/>
      <point x="243" y="-203"/>
      <point x="325" y="-203" type="curve"/>
      <point x="499" y="-204"/>
      <point x="626" y="-95"/>
      <point x="626" y="55" type="curve"/>
      <point x="626" y="547" type="line"/>
    </contour>
    <contour>
      <point x="333" y="547" type="move" name="top"/>
    </contour>
  </outline>
</glyph>
<glyph name="z.ss01" format="1">
  <advance width="568"/>
  <outline>
    <contour>
      <point x="270" y="323" type="line"/>
      <point x="270" y="215" type="line"/>
      <point x="510" y="215" type="line"/>
      <point x="510" y="323" type="line"/>
    </contour>
    <contour>
      <point x="57" y="335" type="line"/>
      <point x="57" y="227" type="line"/>
      <point x="295" y="227" type="line"/>
      <point x="295" y="335" type="line"/>
    </contour>
    <contour>
      <point x="35" y="547" type="line"/>
      <point x="35" y="379" type="line"/>
      <point x="253" y="379" type="line"/>
      <point x="25" y="131" type="line"/>
      <point x="25" y="0" type="line"/>
      <point x="547" y="0" type="line"/>
      <point x="547" y="168" type="line"/>
      <point x="309" y="168" type="line"/>
      <point x="537" y="416" type="line"/>
      <point x="537" y="547" type="line"/>
    </contour>
    <contour>
      <point x="284" y="547" type="move" name="top"/>
    </contour>
  </outline>
</glyph>
<glyph name="zero.dnom" format="1">
  <advance width="459"/>
  <outline>
    <contour>
      <point x="106" y="425"/>
      <point x="25" y="341"/>
      <point x="25" y="211" type="curve" smooth="yes"/>
      <point x="25" y="80"/>
      <point x="106" y="-5"/>
      <point x="230" y="-5" type="curve" smooth="yes"/>
      <point x="354" y="-5"/>
      <point x="434" y="80"/>
      <point x="434" y="211" type="curve" smooth="yes"/>
      <point x="434" y="341"/>
      <point x="354" y="425"/>
      <point x="230" y="425" type="curve" smooth="yes"/>
    </contour>
    <contour>
      <point x="269" y="307"/>
      <point x="294" y="269"/>
      <point x="294" y="211" type="curve" smooth="yes"/>
      <point x="294" y="152"/>
      <point x="269" y="114"/>
      <point x="230" y="114" type="curve" smooth="yes"/>
      <point x="191" y="114"/>
      <point x="166" y="152"/>
      <point x="166" y="211" type="curve" smooth="yes"/>
      <point x="166" y="269"/>
      <point x="191" y="307"/>
      <point x="230" y="307" type="curve" smooth="yes"/>
    </contour>
  </outline>
</glyph>
<glyph name="zero.numr" format="1">
  <advance width="459"/>
  <outline>
    <contour>
      <point x="106" y="705"/>
      <point x="25" y="621"/>
      <point x="25" y="491" type="curve" smooth="yes"/>
      <point x="25" y="360"/>
      <point x="106" y="275"/>
      <point x="230" y="275" type="curve" smooth="yes"/>
      <point x="354" y="275"/>
      <point x="434" y="360"/>
      <point x="434" y="491" type="curve" smooth="yes"/>
      <point x="434" y="621"/>
      <point x="354" y="705"/>
      <point x="230" y="705" type="curve" smooth="yes"/>
    </contour>
    <contour>
      <point x="269" y="587"/>
      <point x="294" y="549"/>
      <point x="294" y="491" type="curve" smooth="yes"/>
      <point x="294" y="432"/>
      <point x="269" y="394"/>
      <point x="230" y="394" type="curve" smooth="yes"/>
      <point x="191" y="394"/>
      <point x="166" y="432"/>
      <point x="166" y="491" type="curve" smooth="yes"/>
      <point x="166" y="549"/>
      <point x="191" y="587"/>
      <point x="230" y="587" type="curve" smooth="yes"/>
    </contour>
  </outline>
</glyph>
<glyph name="zero.ss01" format="1">
  <advance width="713"/>
  <outline>
    <contour>
      <point x="162" y="608"/>
      <point x="35" y="487"/>
      <point x="35" y="301" type="curve" smooth="yes"/>
      <point x="35" y="114"/>
      <point x="162" y="-7"/>
      <point x="357" y="-7" type="curve" smooth="yes"/>
      <point x="552" y="-7"/>
      <point x="678" y="114"/>
      <point x="678" y="301" type="curve" smooth="yes"/>
      <point x="678" y="487"/>
      <point x="552" y="608"/>
      <point x="357" y="608" type="curve" smooth="yes"/>
    </contour>
    <contour>
      <point x="410" y="440"/>
      <point x="440" y="389"/>
      <point x="440" y="301" type="curve" smooth="yes"/>
      <point x="440" y="212"/>
      <point x="410" y="161"/>
      <point x="357" y="161" type="curve" smooth="yes"/>
      <point x="304" y="161"/>
      <point x="273" y="212"/>
      <point x="273" y="301" type="curve" smooth="yes"/>
      <point x="273" y="389"/>
      <point x="304" y="440"/>
      <point x="357" y="440" type="curve" smooth="yes"/>
    </contour>
  </outline>
</glyph>
